<?xml version="1.0" encoding="utf-8"?>
<!-- Generator: Adobe Illustrator 19.2.0, SVG Export Plug-In . SVG Version: 6.00 Build 0)  -->
<svg version="1.1" id="圖層_1" xmlns="http://www.w3.org/2000/svg" xmlns:xlink="http://www.w3.org/1999/xlink" x="0px" y="0px"
	 viewBox="0 0 2134 342" style="enable-background:new 0 0 2134 342;" xml:space="preserve">
<style type="text/css">
	.st0{opacity:0.35;}
	.st1{opacity:0.57;fill:url(#SVGID_1_);}
	.st2{fill:#FFFFFF;}
</style>
<g class="st0">
	<g>
		<linearGradient id="SVGID_1_" gradientUnits="userSpaceOnUse" x1="1066.816" y1="462.8352" x2="1066.816" y2="116.7153">
			<stop  offset="5.618000e-003" style="stop-color:#D9CD00"/>
			<stop  offset="0.9888" style="stop-color:#402816"/>
		</linearGradient>
		<polygon class="st1" points="2137.6,127.4 2027.1,127.4 2027.1,164.4 1939.1,164.4 1939.1,191 1907.5,191 1907.5,127.4 
			1817.3,127.4 1817.3,162.3 1763.2,162.3 1763.2,-0.6 1664,-0.6 1664,113.1 1639.2,113.1 1639.2,43.4 1562.5,43.4 1562.5,96.7 
			1497.1,96.7 1497.1,206.7 1473.4,206.7 1473.4,113.4 1393.9,113.4 1393.9,236.3 1387.1,236.3 1387.1,241.7 1374,241.7 1374,185.8 
			1312.4,185.8 1312.4,206.7 1289.4,206.7 1289.4,228.5 1260,228.5 1260,234.6 1246,234.6 1246,66.9 1166.4,66.9 1166.4,195.1 
			1146.5,195.1 1146.5,139.2 1132.8,139.2 1132.8,127.4 1022.3,127.4 1022.3,164.4 934.3,164.4 934.3,191 902.8,191 902.8,127.4 
			812.6,127.4 812.6,162.3 758.4,162.3 758.4,-0.6 659.2,-0.6 659.2,113.1 634.4,113.1 634.4,43.4 557.7,43.4 557.7,96.7 
			492.3,96.7 492.3,206.7 468.7,206.7 468.7,113.4 389.1,113.4 389.1,236.3 382.4,236.3 382.4,241.7 369.2,241.7 369.2,185.8 
			307.7,185.8 307.7,206.7 284.7,206.7 284.7,228.5 255.2,228.5 255.2,234.6 241.3,234.6 241.3,66.9 161.7,66.9 161.7,195.1 
			141.8,195.1 141.8,139.2 80.3,139.2 80.3,182 27.8,182 27.8,278.6 -3.9,278.6 -3.9,341.9 2137.6,341.9 		"/>
		<g>
			<rect x="739.2" y="23.8" class="st2" width="7" height="11.9"/>
			<rect x="739.2" y="46.4" class="st2" width="7" height="11.8"/>
			<rect x="739.2" y="68.9" class="st2" width="7" height="11.9"/>
			<rect x="672.1" y="53.3" class="st2" width="4.4" height="7.4"/>
			<rect x="680.3" y="72.3" class="st2" width="4.4" height="7.4"/>
			<rect x="688.5" y="91.3" class="st2" width="4.4" height="7.4"/>
			<rect x="696.6" y="110.2" class="st2" width="4.4" height="7.4"/>
			<rect x="704.8" y="129.2" class="st2" width="4.4" height="7.4"/>
			<rect x="801.1" y="174.1" class="st2" width="4.4" height="7.4"/>
			<rect x="793.8" y="174.1" class="st2" width="4.4" height="7.4"/>
			<rect x="786.5" y="174.1" class="st2" width="4.4" height="7.4"/>
			<rect x="892.4" y="138.7" class="st2" width="4.4" height="7.4"/>
			<rect x="884.3" y="147" class="st2" width="4.4" height="7.4"/>
			<rect x="567" y="52" class="st2" width="4.4" height="7.4"/>
			<rect x="567" y="68.7" class="st2" width="4.4" height="7.4"/>
			<rect x="567" y="85.5" class="st2" width="4.4" height="7.4"/>
			<rect x="504.4" y="108.9" class="st2" width="4.4" height="7.4"/>
			<rect x="397" y="123.1" class="st2" width="4.4" height="7.4"/>
			<rect x="407" y="123.1" class="st2" width="4.4" height="7.4"/>
			<rect x="417" y="123.1" class="st2" width="4.4" height="7.4"/>
			<rect x="427" y="123.1" class="st2" width="4.4" height="7.4"/>
			<rect x="437" y="123.1" class="st2" width="4.4" height="7.4"/>
			<rect x="447" y="123.1" class="st2" width="4.4" height="7.4"/>
			<g>
				<rect x="397" y="145.6" class="st2" width="4.4" height="7.4"/>
				<rect x="407" y="145.6" class="st2" width="4.4" height="7.4"/>
				<rect x="417" y="145.6" class="st2" width="4.4" height="7.4"/>
				<rect x="427" y="145.6" class="st2" width="4.4" height="7.4"/>
				<rect x="437" y="145.6" class="st2" width="4.4" height="7.4"/>
				<rect x="447" y="145.6" class="st2" width="4.4" height="7.4"/>
			</g>
			<g>
				<rect x="175.4" y="91.9" class="st2" width="4.4" height="7.4"/>
				<rect x="185.4" y="91.9" class="st2" width="4.4" height="7.4"/>
				<rect x="195.4" y="91.9" class="st2" width="4.4" height="7.4"/>
				<rect x="205.4" y="91.9" class="st2" width="4.4" height="7.4"/>
				<rect x="215.4" y="91.9" class="st2" width="4.4" height="7.4"/>
				<rect x="225.4" y="91.9" class="st2" width="4.4" height="7.4"/>
			</g>
			<g>
				<rect x="175.4" y="120.3" class="st2" width="4.4" height="7.4"/>
				<rect x="185.4" y="120.3" class="st2" width="4.4" height="7.4"/>
				<rect x="195.4" y="120.3" class="st2" width="4.4" height="7.4"/>
				<rect x="205.4" y="120.3" class="st2" width="4.4" height="7.4"/>
				<rect x="215.4" y="120.3" class="st2" width="4.4" height="7.4"/>
				<rect x="225.4" y="120.3" class="st2" width="4.4" height="7.4"/>
			</g>
			<g>
				<rect x="175.4" y="148.8" class="st2" width="4.4" height="7.4"/>
				<rect x="185.4" y="148.8" class="st2" width="4.4" height="7.4"/>
				<rect x="195.4" y="148.8" class="st2" width="4.4" height="7.4"/>
				<rect x="205.4" y="148.8" class="st2" width="4.4" height="7.4"/>
				<rect x="215.4" y="148.8" class="st2" width="4.4" height="7.4"/>
				<rect x="225.4" y="148.8" class="st2" width="4.4" height="7.4"/>
			</g>
			<g>
				<rect x="175.4" y="177.2" class="st2" width="4.4" height="7.4"/>
				<rect x="185.4" y="177.2" class="st2" width="4.4" height="7.4"/>
				<rect x="195.4" y="177.2" class="st2" width="4.4" height="7.4"/>
				<rect x="205.4" y="177.2" class="st2" width="4.4" height="7.4"/>
				<rect x="215.4" y="177.2" class="st2" width="4.4" height="7.4"/>
				<rect x="225.4" y="177.2" class="st2" width="4.4" height="7.4"/>
			</g>
			<g>
				<rect x="175.4" y="205.7" class="st2" width="4.4" height="7.4"/>
				<rect x="185.4" y="205.7" class="st2" width="4.4" height="7.4"/>
				<rect x="195.4" y="205.7" class="st2" width="4.4" height="7.4"/>
				<rect x="205.4" y="205.7" class="st2" width="4.4" height="7.4"/>
				<rect x="215.4" y="205.7" class="st2" width="4.4" height="7.4"/>
				<rect x="225.4" y="205.7" class="st2" width="4.4" height="7.4"/>
			</g>
			<rect x="514.4" y="121.9" class="st2" width="4.4" height="7.4"/>
			<rect x="524.4" y="135" class="st2" width="4.4" height="7.4"/>
			<rect x="127.4" y="155.1" class="st2" width="4.4" height="7.4"/>
			<rect x="111.5" y="175.9" class="st2" width="4.4" height="7.4"/>
			<rect x="95.5" y="196.7" class="st2" width="4.4" height="7.4"/>
			<rect x="79.5" y="217.5" class="st2" width="4.4" height="7.4"/>
			<rect x="63.6" y="238.3" class="st2" width="4.4" height="7.4"/>
			<rect x="80.6" y="260.4" class="st2" width="4.4" height="7.4"/>
			<rect x="97.5" y="282.5" class="st2" width="4.4" height="7.4"/>
			<rect x="567" y="102.2" class="st2" width="4.4" height="7.4"/>
			<rect x="567" y="119" class="st2" width="4.4" height="7.4"/>
			<rect x="567" y="135.7" class="st2" width="4.4" height="7.4"/>
			<rect x="567" y="152.4" class="st2" width="4.4" height="7.4"/>
			<rect x="1099.4" y="143.6" class="st2" width="4.4" height="7.4"/>
			<rect x="1085.6" y="143.6" class="st2" width="4.4" height="7.4"/>
			<rect x="1071.8" y="143.6" class="st2" width="4.4" height="7.4"/>
			<rect x="1058" y="143.6" class="st2" width="4.4" height="7.4"/>
			<rect x="1044.2" y="143.6" class="st2" width="4.4" height="7.4"/>
		</g>
	</g>
	<g>
		<g>
			<rect x="1743.9" y="23.8" class="st2" width="7" height="11.9"/>
			<rect x="1743.9" y="46.4" class="st2" width="7" height="11.8"/>
			<rect x="1743.9" y="68.9" class="st2" width="7" height="11.9"/>
			<rect x="1676.8" y="53.3" class="st2" width="4.4" height="7.4"/>
			<rect x="1685" y="72.3" class="st2" width="4.4" height="7.4"/>
			<rect x="1693.2" y="91.3" class="st2" width="4.4" height="7.4"/>
			<rect x="1701.4" y="110.2" class="st2" width="4.4" height="7.4"/>
			<rect x="1709.6" y="129.2" class="st2" width="4.4" height="7.4"/>
			<rect x="1805.8" y="174.1" class="st2" width="4.4" height="7.4"/>
			<rect x="1798.5" y="174.1" class="st2" width="4.4" height="7.4"/>
			<rect x="1791.2" y="174.1" class="st2" width="4.4" height="7.4"/>
			<rect x="1897.2" y="138.7" class="st2" width="4.4" height="7.4"/>
			<rect x="1889" y="147" class="st2" width="4.4" height="7.4"/>
			<rect x="1571.8" y="52" class="st2" width="4.4" height="7.4"/>
			<rect x="1571.8" y="68.7" class="st2" width="4.4" height="7.4"/>
			<rect x="1571.8" y="85.5" class="st2" width="4.4" height="7.4"/>
			<rect x="1509.1" y="108.9" class="st2" width="4.4" height="7.4"/>
			<rect x="1401.7" y="123.1" class="st2" width="4.4" height="7.4"/>
			<rect x="1411.7" y="123.1" class="st2" width="4.4" height="7.4"/>
			<rect x="1421.7" y="123.1" class="st2" width="4.4" height="7.4"/>
			<rect x="1431.7" y="123.1" class="st2" width="4.4" height="7.4"/>
			<rect x="1441.8" y="123.1" class="st2" width="4.4" height="7.4"/>
			<rect x="1451.8" y="123.1" class="st2" width="4.4" height="7.4"/>
			<g>
				<rect x="1401.7" y="145.6" class="st2" width="4.4" height="7.4"/>
				<rect x="1411.7" y="145.6" class="st2" width="4.4" height="7.4"/>
				<rect x="1421.7" y="145.6" class="st2" width="4.4" height="7.4"/>
				<rect x="1431.7" y="145.6" class="st2" width="4.4" height="7.4"/>
				<rect x="1441.8" y="145.6" class="st2" width="4.4" height="7.4"/>
				<rect x="1451.8" y="145.6" class="st2" width="4.4" height="7.4"/>
			</g>
			<g>
				<rect x="1180.1" y="91.9" class="st2" width="4.4" height="7.4"/>
				<rect x="1190.1" y="91.9" class="st2" width="4.4" height="7.4"/>
				<rect x="1200.1" y="91.9" class="st2" width="4.4" height="7.4"/>
				<rect x="1210.1" y="91.9" class="st2" width="4.4" height="7.4"/>
				<rect x="1220.2" y="91.9" class="st2" width="4.4" height="7.4"/>
				<rect x="1230.2" y="91.9" class="st2" width="4.4" height="7.4"/>
			</g>
			<g>
				<rect x="1180.1" y="120.3" class="st2" width="4.4" height="7.4"/>
				<rect x="1190.1" y="120.3" class="st2" width="4.4" height="7.4"/>
				<rect x="1200.1" y="120.3" class="st2" width="4.4" height="7.4"/>
				<rect x="1210.1" y="120.3" class="st2" width="4.4" height="7.4"/>
				<rect x="1220.2" y="120.3" class="st2" width="4.4" height="7.4"/>
				<rect x="1230.2" y="120.3" class="st2" width="4.4" height="7.4"/>
			</g>
			<g>
				<rect x="1180.1" y="148.8" class="st2" width="4.4" height="7.4"/>
				<rect x="1190.1" y="148.8" class="st2" width="4.4" height="7.4"/>
				<rect x="1200.1" y="148.8" class="st2" width="4.4" height="7.4"/>
				<rect x="1210.1" y="148.8" class="st2" width="4.4" height="7.4"/>
				<rect x="1220.2" y="148.8" class="st2" width="4.4" height="7.4"/>
				<rect x="1230.2" y="148.8" class="st2" width="4.4" height="7.4"/>
			</g>
			<g>
				<rect x="1180.1" y="177.2" class="st2" width="4.4" height="7.4"/>
				<rect x="1190.1" y="177.2" class="st2" width="4.4" height="7.4"/>
				<rect x="1200.1" y="177.2" class="st2" width="4.4" height="7.4"/>
				<rect x="1210.1" y="177.2" class="st2" width="4.4" height="7.4"/>
				<rect x="1220.2" y="177.2" class="st2" width="4.4" height="7.4"/>
				<rect x="1230.2" y="177.2" class="st2" width="4.4" height="7.4"/>
			</g>
			<g>
				<rect x="1180.1" y="205.7" class="st2" width="4.4" height="7.4"/>
				<rect x="1190.1" y="205.7" class="st2" width="4.4" height="7.4"/>
				<rect x="1200.1" y="205.7" class="st2" width="4.4" height="7.4"/>
				<rect x="1210.1" y="205.7" class="st2" width="4.4" height="7.4"/>
				<rect x="1220.2" y="205.7" class="st2" width="4.4" height="7.4"/>
				<rect x="1230.2" y="205.7" class="st2" width="4.4" height="7.4"/>
			</g>
			<rect x="1519.1" y="121.9" class="st2" width="4.4" height="7.4"/>
			<rect x="1529.1" y="135" class="st2" width="4.4" height="7.4"/>
			<rect x="1132.2" y="155.1" class="st2" width="4.4" height="7.4"/>
			<rect x="1116.2" y="175.9" class="st2" width="4.4" height="7.4"/>
			<rect x="1100.2" y="196.7" class="st2" width="4.4" height="7.4"/>
			<rect x="1084.3" y="217.5" class="st2" width="4.4" height="7.4"/>
			<rect x="1068.3" y="238.3" class="st2" width="4.4" height="7.4"/>
			<rect x="1085.3" y="260.4" class="st2" width="4.4" height="7.4"/>
			<rect x="1102.3" y="282.5" class="st2" width="4.4" height="7.4"/>
			<rect x="1571.8" y="102.2" class="st2" width="4.4" height="7.4"/>
			<rect x="1571.8" y="119" class="st2" width="4.4" height="7.4"/>
			<rect x="1571.8" y="135.7" class="st2" width="4.4" height="7.4"/>
			<rect x="1571.8" y="152.4" class="st2" width="4.4" height="7.4"/>
			<rect x="2104.2" y="143.6" class="st2" width="4.4" height="7.4"/>
			<rect x="2090.4" y="143.6" class="st2" width="4.4" height="7.4"/>
			<rect x="2076.6" y="143.6" class="st2" width="4.4" height="7.4"/>
			<rect x="2062.8" y="143.6" class="st2" width="4.4" height="7.4"/>
			<rect x="2049" y="143.6" class="st2" width="4.4" height="7.4"/>
		</g>
	</g>
</g>
</svg>
