<?xml version="1.0" encoding="utf-8"?>
<!-- Generator: Adobe Illustrator 19.2.0, SVG Export Plug-In . SVG Version: 6.00 Build 0)  -->
<svg version="1.1" id="圖層_1" xmlns="http://www.w3.org/2000/svg" xmlns:xlink="http://www.w3.org/1999/xlink" x="0px" y="0px"
	 viewBox="0 0 1920 900" style="enable-background:new 0 0 1920 900;" xml:space="preserve">
<style type="text/css">
	.st0{filter:url(#Adobe_OpacityMaskFilter);}
	.st1{fill:url(#SVGID_2_);}
	.st2{mask:url(#SVGID_1_);fill:url(#SVGID_3_);}
</style>
<defs>
	<filter id="Adobe_OpacityMaskFilter" filterUnits="userSpaceOnUse" x="18.9" y="-0.9" width="1882.9" height="904.2">
		<feColorMatrix  type="matrix" values="1 0 0 0 0  0 1 0 0 0  0 0 1 0 0  0 0 0 1 0"/>
	</filter>
</defs>
<mask maskUnits="userSpaceOnUse" x="18.9" y="-0.9" width="1882.9" height="904.2" id="SVGID_1_">
	<g class="st0">
		
			<radialGradient id="SVGID_2_" cx="941.9114" cy="447.0976" r="498.001" gradientTransform="matrix(1.8982 0 0 0.9115 -832.0685 41.5266)" gradientUnits="userSpaceOnUse">
			<stop  offset="0" style="stop-color:#FFFFFF"/>
			<stop  offset="8.492125e-002" style="stop-color:#F6F6F6"/>
			<stop  offset="0.2223" style="stop-color:#DEDEDE"/>
			<stop  offset="0.395" style="stop-color:#B7B7B7"/>
			<stop  offset="0.5962" style="stop-color:#818181"/>
			<stop  offset="0.8186" style="stop-color:#3D3D3D"/>
			<stop  offset="1" style="stop-color:#000000"/>
		</radialGradient>
		<rect x="12.5" y="-5.8" class="st1" width="1886.8" height="909.7"/>
	</g>
</mask>
<radialGradient id="SVGID_3_" cx="960.3369" cy="449.3046" r="739.0373" gradientTransform="matrix(1 0 0 0.9959 0 3.72)" gradientUnits="userSpaceOnUse">
	<stop  offset="0" style="stop-color:#FFFFFF"/>
	<stop  offset="0.1333" style="stop-color:#FFFFE6"/>
	<stop  offset="0.4163" style="stop-color:#FFFFB5"/>
	<stop  offset="0.6654" style="stop-color:#FFFF91"/>
	<stop  offset="0.8684" style="stop-color:#FFFF7C"/>
	<stop  offset="1" style="stop-color:#FFFF74"/>
</radialGradient>
<path class="st2" d="M960.3,451.7L369.4,102.4l84-32.7L960.3,451.7z M960.3,450.7l590.7,349.2l-84,32.8L960.3,450.7z M961.4,451.2
	L234,734.8l-68-40.3L961.4,451.2z M959.3,451.2l727.2-283.8l68.2,40.3L959.3,451.2z M961.2,451.6L29,405.2l11.1-51.7L961.2,451.6z
	 M959.5,450.8l932.2,46.4l-11.3,51.6L959.5,450.8z M961.2,450.8l-96.6,447.6L756.8,893L961.2,450.8z M959.5,451.6l96.6-447.6
	l107.5,5.3L959.5,451.6z M960.8,451.6L85.5,290.9l38.6-48.5L960.8,451.6z M959.7,450.7l875.5,160.6l-38.8,48.5L959.7,450.7z
	 M961.2,450.9L626.6,871.3l-101-18.7L961.2,450.9z M959.3,451.4l334.5-420.3l101,18.6L959.3,451.4z M961.4,451.3L105.9,634.9
	l-44.1-47.4L961.4,451.3z M959.3,451.1l855.5-183.7l44.1,47.5L959.3,451.1z M960.5,450.7L1343,861.5l-98.7,21.2L960.5,450.7z
	 M960.1,451.7L577.5,40.8l98.9-21.2L960.1,451.7z M961.2,451.4L35.9,522.5l-17-51.3L961.2,451.4z M959.3,450.9l925.5-71l17,51.2
	L959.3,450.9z M960.8,450.7l148,444.4l-106.9,8.2L960.8,450.7z M959.7,451.6L811.9,7.3l106.7-8.2L959.7,451.6z M961.4,451.1
	L411.6,815.5L324,785L961.4,451.1z M959.3,451.3l549.6-364.4l87.6,30.6L959.3,451.3z M960.1,450.7l758.9,263.9l-63.6,42.1
	L960.1,450.7z M960.5,451.7l-758.9-264l63.6-42.1L960.5,451.7z"/>
</svg>
