<?xml version="1.0" encoding="utf-8"?>
<!-- Generator: Adobe Illustrator 19.2.0, SVG Export Plug-In . SVG Version: 6.00 Build 0)  -->
<svg version="1.1" id="圖層_1" xmlns="http://www.w3.org/2000/svg" xmlns:xlink="http://www.w3.org/1999/xlink" x="0px" y="0px"
	 viewBox="0 0 689.2 335.4" style="enable-background:new 0 0 689.2 335.4;" xml:space="preserve">
<style type="text/css">
	.st0{fill:#DFF2FD;}
	.st1{fill-rule:evenodd;clip-rule:evenodd;fill:#25859F;}
	.st2{fill:#25859F;}
	.st3{opacity:0.35;}
	.st4{fill:#FFFFFF;}
	.st5{fill:url(#SVGID_1_);}
</style>
<path class="st0" d="M596.5,169.6c-17.9,0-33.5,8.8-43.3,22.1c2.6-9.1,4.1-18.8,4.1-28.8c0-57.9-46.9-104.8-104.8-104.8
	c-20,0-38.5,5.7-54.5,15.4C376.1,30.5,331.4,1.1,279.9,1.1c-69.1,0-125.9,53-132.1,120.5c-5.2-0.6-10.5-1.1-15.9-1.1
	c-55.4,0-100.3,34.8-100.3,77.7c0,42.9,44.9,77.7,100.3,77.7c31.7,0,495.5,1.4,512.7-26.9c6.5-10.8,5.8-21.8,5.6-25.6
	C648.6,195.9,621.7,169.6,596.5,169.6z"/>
<g>
	<path class="st1" d="M619.3,335.3H49.5c-24.1,0-43.7-19.7-43.7-43.7v0c0-24.1,19.7-43.7,43.7-43.7h569.9
		c24.1,0,43.7,19.7,43.7,43.7v0C663.1,315.7,643.4,335.3,619.3,335.3z"/>
	<path class="st2" d="M403.2,329.3c-3.9,0-6.5-2.8-6.5-6.7v-6.8c-2,0.5-3.4,0.9-4.9,1.3c-0.6,0.2-1.3,0.2-2,0.2
		c-1.3,0-2.7-0.4-3.8-1.1c-1.7-1-2.8-2.7-3.2-4.7l-1.1-6.8c-0.6-3.1,0.9-6.2,3.9-7.5v-36c-2-1.2-3-3.4-3-5.9v-7
		c0-3.9,2.6-7.1,6.5-7.1h21.8c0.4,0,0.7,0.1,1.1,0.1c0.9-0.9,2.1-1.5,3.3-1.8l5.3-1.2c0.5-0.1,1-0.2,1.5-0.2c2.1,0,4,0.9,5.4,2.5
		c0.2-0.3,0.4-0.4,0.7-0.6c1.3-1.3,3.1-1.9,5-1.9h5.5c3.3,0,6,2,6.8,5c2.3,0.3,4.3,1.7,5.3,3.9c2.2,4.9,4.5,11.4,5.6,15.9
		c0.2,0.8,0.5,1.6,0.4,2.3c1,1.2,1.9,2.8,1.9,4.5v6.7c0,1.4-0.6,2.7-1.3,3.8c0.7,1.4,0.7,3.1,0.3,4.7c-1.2,4.5-2.7,8.7-4.4,12.8
		c0.2,0.2,0.3,0.4,0.5,0.7c0.3,0.5,1.6,1.7,2.1,2.2c2.1,1.5,3.2,4,2.9,6.5c-0.7,6.6-2.5,22-13.3,22c-0.1,0-0.1,0-0.2,0
		c-4.3-0.1-7.3-2.4-9.4-5.3c-1.2,1.1-2.3,2.2-3.6,3.2c-1.3,1.1-2.9,1.6-4.5,1.6c-0.4,0-0.9,0-1.3-0.1c-2.1-0.4-3.8-1.7-4.8-3.5
		c-0.2-0.4-1-1.4-1.8-2.3c-0.7,0.2-1.5,0.3-2.3,0.3H415c-0.4,4-3.4,6-6.9,6H403.2z"/>
</g>
<g>
	<g class="st3">
		<path d="M47.5,295.9c1.1-3.9,2-10.3,2.4-15.1l3.2,0.6c-0.2,4.8-1.1,11.6-2.2,15.9L47.5,295.9z M90.9,316.3v5.1H62v-5.1h13.1V303
			h-9.6V298h9.6v-11H69c-0.9,3.3-1.9,6.3-3,8.6c-0.9-0.8-2.8-2-3.9-2.5c0.6-1.2,1.2-2.5,1.7-4l-2.6,1.6c-0.4-2.3-1.6-6.1-2.8-9.2
			v41.9H54v-53.6h4.4v10.8l2.8-1.4c1.2,2.7,2.5,6.3,3.1,8.8c1.5-4.6,2.5-10,3.1-15.5l4.3,0.9c-0.3,2.9-0.8,5.8-1.4,8.5h4.9V270h4.4
			v11.8h10.2v5.1H79.5v11h9.1v5.1h-9.1v13.3H90.9z"/>
		<path d="M138.2,277.2c-2,5.6-4.9,10.3-8.5,14.2c3.3,2.4,7,4.2,11,5.4c-0.7,1.3-1.3,3.6-1.6,5c-4.7-1.6-9-4.1-12.7-7.2
			c-4.1,3.4-8.8,6.1-13.6,7.9c-0.3-1-0.9-2.4-1.5-3.5l-0.5,0.7c-0.6-1.6-1.8-4.3-3-6.8v30.6h-4.1v-26.5c-1.4,5.9-3.2,11.5-5.1,15
			c-0.4-1.6-1.4-4-2.1-5.4c2.7-4.6,5.4-13.3,6.6-20.6h-5.6v-5h6.2v-11h4.1v11h4.8v3.9c3.3-3.7,6.2-9.3,7.9-15.2l3.9,1.3
			c-0.5,1.5-1,3.1-1.6,4.6h12l0.7-0.2L138.2,277.2z M112.7,296.9c3.7-1.5,7.2-3.3,10.3-5.7c-1.8-2-3.4-4.2-4.7-6.6
			c-1.1,1.8-2.2,3.3-3.4,4.7c-0.4-0.9-1.5-2.9-2.3-4v0.5h-4.8v0.7c1.2,1.5,4.9,7.5,5.7,8.9L112.7,296.9z M115.3,301.7h21.3v21.4
			h-4.3v-2.9h-12.8v3h-4.1V301.7z M119.4,306.5v8.9h12.8v-8.9H119.4z M120.7,280.2l-0.1,0.1c1.4,3,3.3,5.7,5.7,8.1
			c2.4-2.3,4.4-5.1,6-8.2H120.7z"/>
		<path d="M177.6,277.2c-0.9,6.8-3.1,12.2-8.9,15.4c-0.4-1-1.3-2.5-2.1-3.4v28.6c0,2.3-0.4,3.9-1.6,4.7c-1.3,0.8-3.2,0.8-6.3,0.8
			c-0.2-1.2-0.8-3.4-1.4-4.6c2.3,0.1,4.2,0.1,4.8,0.1c0.6-0.1,0.8-0.3,0.8-1.1v-9.5h-10.5c-0.4,5.4-1.4,11-3.6,15.3
			c-0.7-0.7-2.3-1.9-3.1-2.4c3.2-6.1,3.5-14.7,3.5-21.3v-9.3l-0.4,0.6c-0.7-0.8-2.3-2.5-3.2-3.2c3.3-4.4,5.7-11.2,7.1-18.2l4,1.1
			c-0.3,1.4-0.7,2.8-1,4.2h4.9l0.6-0.2l2.5,2c-0.8,2.5-1.8,5.3-2.8,7.7h5.6v4.2c4.5-2.5,6.2-6.5,6.9-11.5h-5.8v-4.5h20.5
			c0,0,0,1.3,0,1.9c-0.3,9.5-0.8,13.4-1.7,14.8c-0.7,1.1-1.5,1.5-2.7,1.6c-1,0.2-2.9,0.2-4.8,0.1c-0.1-1.4-0.5-3.3-1-4.5
			c1.6,0.2,3.2,0.2,3.8,0.2c0.6,0.1,1-0.1,1.3-0.5c0.5-0.7,0.8-3.1,1.1-9.1H177.6z M154.4,279.3c-0.6,1.8-1.3,3.6-2,5.3h4.8
			c0.6-1.5,1.2-3.4,1.7-5.3H154.4z M152.8,299.9c0,1.3,0,2.7,0,4.2h3.6v-5.9h-3.6V299.9z M152.8,294.2h3.6v-5.6h-3.6V294.2z
			 M159.4,294.2h3.5v-5.6h-3.5V294.2z M163,304.1v-5.9h-3.5v5.9H163z M189.4,312.9h-8.6v10.3h-4.1v-10.3h-9.3v-4.7h9.3v-6.3h-4.6
			c-0.7,2-1.4,3.7-2.2,5.2c-0.8-0.7-2.4-1.7-3.3-2.2c1.9-3.3,3.3-8,4.1-12.9l3.6,0.9c-0.2,1.4-0.5,2.8-0.8,4.2h3.3v-5.6h4.1v5.6h7.7
			v4.7h-7.7v6.3h8.6V312.9z"/>
		<path d="M214,302.5c-2.7,0-4.4-0.4-5.5-1.2c-3.6,1.9-7.3,3.5-11,4.8c-0.6-1.2-1.8-3.4-2.5-4.6c4.2-1.2,8.3-2.9,12.2-4.9v-0.3
			v-10.6h3.9v8.8c5.7-3.5,10.6-7.8,13.9-13l3.7,2.3c-3.9,5.8-9.1,10.6-15.1,14.4h0.6h8.8c2.2,0,2.6-0.8,2.8-6
			c0.9,0.8,2.5,1.5,3.6,1.7c-0.5,7-1.7,8.6-6,8.6H214z M205.1,288.4c-1.4,3.7-3.4,8-6.1,10.8l-3.5-2.6c2.5-2.6,4.8-6.6,6.1-10.1
			L205.1,288.4z M201.1,286.2h-4.3v-11.7h17.8c-0.3-1.5-0.7-3.2-1.1-4.5l4.2-0.9c0.6,1.6,1.1,3.7,1.5,5.4h17.4v11.7h-4.5v-6.8h-31
			V286.2z M228.6,306.4h4.4v16.8h-4.4V321h-28v-13.8h4.3v8.7h9.4v-11.7h4.4v11.7h9.8V306.4z M217.4,288.8c-1.7-1.9-5.1-4.6-8-6.1
			l2.1-3.2c2.8,1.4,6.4,3.8,8.1,5.7L217.4,288.8z M230.3,286.7c2.9,3,6.3,7.5,7.9,10.5l-3.3,2.9c-1.5-2.9-4.8-7.5-7.6-10.8
			L230.3,286.7z"/>
		<path d="M265.7,292.4c1.9,0,3.4,1.9,3.4,4.2c0,2.3-1.5,4.2-3.4,4.2c-1.9,0-3.4-1.9-3.4-4.2C262.3,294.3,263.8,292.4,265.7,292.4z"
			/>
		<path d="M335,301c0,0,0,1.5-0.1,2.2c-0.8,11.7-1.6,16.5-3.1,18.3c-0.9,1.2-1.9,1.6-3.3,1.8c-1.2,0.2-3.4,0.2-5.7,0.1
			c0-1.5-0.5-3.5-1.1-4.8c2.1,0.3,4.1,0.3,4.9,0.3c0.8,0,1.2-0.1,1.6-0.6c0.9-1,1.6-4.4,2.2-12.4h-27.9c-2.3,2.2-4.8,4.2-7.5,6
			c-0.5-1.3-1.6-3.4-2.3-4.6c8.2-5.1,14.5-13.1,18.9-22.3h-15.9v-4.8h8.7c-0.7-2.3-2-5.6-3.3-8l3.7-1.8c1.6,2.6,3.2,6.2,3.8,8.5
			l-2.4,1.3h7.6c1.3-3.3,2.4-6.7,3.3-10.1l4.4,1.5c-0.8,2.9-1.8,5.8-2.8,8.6h9.4c-0.5,3.4-1.1,7.5-1.7,10.6h5.4
			c-0.4,3.4-1,7.5-1.6,10.6H335z M294.6,320.2c2.7-2.7,4.5-7.3,5.3-11.9l3.7,1.5c-1,4.9-2.5,10-5.6,13.1L294.6,320.2z M309.7,309.9
			c0.8,3.4,1.3,7.8,1.3,10.6l-3.9,0.6c0.1-2.9-0.3-7.3-1-10.7L309.7,309.9z M311.2,295.1c-1.3,2-2.8,4-4.3,5.9h19.3
			c0.3-1.8,0.7-3.8,0.9-5.9H311.2z M316.6,308.9c1.1,2.9,2.1,6.8,2.5,9.3l-3.5,1.2c-0.3-2.6-1.3-6.5-2.3-9.5L316.6,308.9z
			 M316.7,284.7c-0.8,2-1.8,3.9-2.8,5.7h8.6c0.3-1.7,0.7-3.7,0.9-5.7H316.7z M323.2,316.6c-0.5-2.2-1.8-5.5-3.1-7.9l3-1.3
			c1.4,2.3,2.8,5.6,3.3,7.6L323.2,316.6z"/>
		<path d="M356.2,271.6c-1.3,4.1-2.9,8.3-4.7,12.3v39.5h-4.1v-31.4c-1.3,2.3-2.7,4.3-4.1,6.1c-0.4-1.3-1.7-4.3-2.4-5.5
			c4.4-5.4,8.6-14,11.2-22.5L356.2,271.6z M372.7,285.7v31.4c0,2.8-0.5,4.4-1.9,5.3c-1.4,0.9-3.5,1.1-6.5,1.1
			c-0.2-1.5-0.9-4-1.6-5.4c2.1,0.1,4.1,0.1,4.8,0c0.6,0,0.8-0.2,0.8-0.9v-31.4H362c-1.4,3.7-2.9,7-4.5,9.6c-0.8-1-2.5-2.7-3.6-3.6
			c3.5-5.1,6.2-13.4,7.8-21.6l4.3,1.2c-0.7,3.2-1.5,6.4-2.4,9.4h17.8l0.7-0.2l3.1,0.8c-0.6,4.4-1.5,9.6-2.1,12.9l-3.7-0.9
			c0.3-2,0.7-4.7,0.9-7.5H372.7z M365,296.1c-1.4,7.5-3.9,14.9-6.6,19.7c-0.8-0.9-2.7-2.3-3.7-2.9c2.8-4.3,4.9-11,6.1-17.8
			L365,296.1z M379.3,294.6c2.6,6.1,4.8,13.9,5.6,19.2l-4.2,1.9c-0.7-5.3-2.8-13.4-5.3-19.5L379.3,294.6z"/>
		<path d="M411.1,258.4v67.2h-4.9v-16c-4.8,1.3-9.5,2.6-13.5,3.7l-1.2-6.8c1.2-0.3,2.5-0.4,3.9-0.8v-47.4h-3.2v-7H414v7H411.1z
			 M406.2,258.4h-6.1v10.6h6.1V258.4z M406.2,275.5h-6.1v10.7h6.1V275.5z M400.1,304.6c1.9-0.4,4-0.9,6.1-1.5v-10.5h-6.1V304.6z
			 M453.7,286.4c-2.1,7.9-5.1,15-8.7,21.2c1,5.7,2.2,9,3.5,9.1c1,0,1.8-4.2,2.1-11.3c1,1.5,3.1,3.5,4,4.1c-1.4,12.7-4,15.8-6.3,15.8
			c-3.3-0.1-5.7-4.2-7.4-11.4c-3.1,4.3-6.6,8-10.2,11c-0.8-1.4-2.4-3.2-3.7-4.4c1.8-1.4,3.6-3,5.3-4.9h-3.7v-2.1h-8.2v6h-4.9v-35.8
			h17.9v30.7c2-2.4,4.1-5.2,5.9-8c-1.1-7.3-1.8-16.3-2.3-26.6h-24V273h4c-0.3-2.7-0.9-6.2-1.5-8.9l4.4-0.9c0.7,3,1.5,7,1.8,9.8h4.4
			c0.7-3,1.4-7,1.8-9.9l5,1.1c-0.8,3-1.4,6.3-2.1,8.8h6c-0.3-7.8-0.5-16.2-0.6-25.1h5.5c0,8.8,0.2,17.3,0.5,25.1h12v6.7h-11.7
			c0.3,6.8,0.8,13.2,1.4,18.5c2-4.6,3.7-9.6,5-14.9L453.7,286.4z M434.6,262.7h-20.2v-6.2h7.6c-0.6-2.3-1.4-4.9-2.1-7l5.3-1.2
			c0.9,2.5,1.8,5.7,2.5,8.2h6.9V262.7z M420.5,289.2v6.5h8.2v-6.5H420.5z M428.7,308v-6.8h-8.2v6.8H428.7z M447.6,270
			c-0.8-4-2.8-10.3-4.8-15l4.6-1.9c2.1,4.6,4.2,10.8,5.1,14.6L447.6,270z"/>
		<path d="M461.5,321.5c1.8-2.4,2.7-6.5,3.2-10.4l3,1c-0.5,4.3-1.3,8.7-3.3,11.3L461.5,321.5z M462.4,304.5c2.4-0.1,5.4-0.2,8.6-0.4
			v-3.8h-7.5v-4.2h7.5v-3.3h-7.3v-21h18.9v21h-7.7v3.3h7.8v4.2h-7.8v3.6c2.8-0.2,5.7-0.4,8.6-0.5l-0.1,4.3
			c-7.5,0.6-15.3,1.1-20.8,1.5L462.4,304.5z M466.9,289h4.6v-13.4h-4.6V289z M469.3,277.6c0.8,2.7,1.4,6.3,1.5,8.5l-2.1,0.8
			c-0.1-2.3-0.6-6-1.4-8.7L469.3,277.6z M471.4,310.9c0.7,3.2,1.2,7.3,1.2,10l-2.9,0.5c0-2.7-0.4-6.9-1-10.2L471.4,310.9z
			 M475.9,310.4c1,2.9,2,6.8,2.3,9.3l-2.8,0.8c-0.2-2.6-1.2-6.5-2.2-9.5L475.9,310.4z M479.1,275.5h-4.8V289h4.8V275.5z
			 M474.7,286.3c0.7-2.4,1.6-6.4,1.9-8.9l2.4,1.1c-0.9,2.9-1.8,6.5-2.6,8.6L474.7,286.3z M480.4,309.1c1.6,2.7,3.3,6.4,3.9,8.8
			l-2.9,1.5c-0.6-2.5-2.2-6.3-3.7-9.1L480.4,309.1z M495.6,287.2v10h7.8v25.9h-4.1v-2.3h-10.5v2.5h-4v-26.2h6.5v-27.3h4.2v12.3h9.6
			v5H495.6z M499.3,302.2h-10.5v13.7h10.5V302.2z"/>
		<path d="M523.2,297.3c-0.9,5.2-2.2,10.7-3.9,15.1c0.9,0.6,1.9,1.6,3.4,2.7c3.3,2.5,7.5,2.8,13.1,2.8c5.7,0,13.7-0.5,18.9-1.3
			c-0.5,1.5-1.2,4.1-1.3,5.6c-3.6,0.3-12.2,0.6-17.8,0.6c-6.2,0-10.2-0.6-13.7-3.1c-1.9-1.3-3.6-3.4-4.6-3.4s-2.7,3.8-4,7.4l-3-5
			c1.6-2.6,3.3-4.9,4.8-6.1c1.2-3.2,2.4-7.4,3.1-11.3h-6.1c1.2-3.4,2.6-8.2,3.8-12.7h-4.8v-4.9h10.5c-1.1,4.1-2.5,8.9-3.7,13h2.5
			l0.6-0.2L523.2,297.3z M516.2,281.2c-0.6-2.6-1.7-6.7-2.5-9.8l4-1.5c0.9,3,2.1,7,2.7,9.5L516.2,281.2z M534,295.9
			c-2,5.8-5.6,12.2-8.6,15.8c-0.8-1.3-2.1-3.1-3.2-4.1c3-3,6.4-8.4,8.2-13.3L534,295.9z M536,293h-12.4v-5H536v-17.4h4.3V288h12.8v5
			h-12.8v22H536V293z M529.9,285.8c-0.9-2.9-3-7.8-4.7-11.5l3.7-1.9c1.7,3.5,4,8.3,4.9,11.2L529.9,285.8z M545.2,294
			c3,4.4,6.7,10.6,8.4,14.3l-3.3,3c-1.7-3.9-5.3-10.2-8.2-14.8L545.2,294z M552.2,274.1c-1.7,4-3.8,8.6-5.4,11.6l-3.4-1.8
			c1.6-3.1,3.5-8.2,4.5-11.7L552.2,274.1z"/>
		<path d="M567.6,296.9c-1.7-1.9-5.3-5.1-7.9-7.3l2.5-3.9c2.4,2,6.2,5,8,6.8L567.6,296.9z M571.8,303.8c-2.1,6.1-4.6,12.9-7,18.3
			l-3.9-3.4c2.1-4.4,5.2-11.7,7.4-18.2L571.8,303.8z M570.3,282.2c-1.7-2-5.3-5.3-7.9-7.7l2.7-3.7c2.5,2,6.2,5.1,8,7.1L570.3,282.2z
			 M588.7,297.7v3.9h11.7v4.4h-11.7v4.3h13.8v4.6h-13.8v8.5h-4.5v-8.5h-12.7v-4.6h12.7V306h-10.5v-4.4h10.5v-3.9h-9.9v-4.3h9.9v-4.5
			h-12.3v-4.6h12.3v-4.4h-9.7v-4.2h9.7v-5.9h4.5v5.9h10.9v8.6h3.3v4.6h-3.3v8.8H588.7z M588.7,284.3h6.8v-4.4h-6.8V284.3z
			 M588.7,293.4h6.8v-4.5h-6.8V293.4z"/>
	</g>
	<g>
		<g>
			<path class="st4" d="M44.5,292.9c1.1-3.9,2-10.3,2.4-15.1l3.2,0.6c-0.2,4.8-1.1,11.6-2.2,15.9L44.5,292.9z M87.9,313.3v5.1H59
				v-5.1h13.1V300h-9.6v-5.1h9.6v-11H66c-0.9,3.3-1.9,6.3-3,8.6c-0.9-0.8-2.8-2-3.9-2.5c0.6-1.2,1.2-2.5,1.7-4l-2.6,1.6
				c-0.4-2.3-1.6-6.1-2.8-9.2v41.9h-4.4v-53.6h4.4v10.8l2.8-1.4c1.2,2.7,2.5,6.3,3.1,8.8c1.5-4.6,2.5-10,3.1-15.5l4.3,0.9
				c-0.3,2.9-0.8,5.8-1.4,8.5h4.9V267h4.4v11.8h10.2v5.1H76.5v11h9.1v5.1h-9.1v13.3H87.9z"/>
			<path class="st4" d="M135.2,274.2c-2,5.6-4.9,10.3-8.5,14.2c3.2,2.4,7,4.2,11,5.4c-0.7,1.3-1.3,3.6-1.6,5
				c-4.7-1.6-9-4.1-12.7-7.2c-4.1,3.4-8.8,6.1-13.6,7.9c-0.3-1-0.9-2.4-1.5-3.5l-0.5,0.7c-0.6-1.6-1.8-4.3-3-6.8v30.6h-4.1v-26.5
				c-1.4,5.9-3.2,11.5-5.1,15c-0.4-1.6-1.4-4-2.1-5.4c2.7-4.6,5.4-13.3,6.6-20.6h-5.6v-5h6.2v-11h4.1v11h4.8v3.9
				c3.3-3.7,6.2-9.3,7.9-15.2l3.9,1.3c-0.5,1.5-1,3.1-1.6,4.6h12l0.7-0.2L135.2,274.2z M109.6,293.9c3.7-1.5,7.2-3.3,10.3-5.7
				c-1.8-2-3.4-4.2-4.7-6.6c-1.1,1.8-2.2,3.3-3.4,4.7c-0.4-0.9-1.5-2.9-2.3-4v0.5h-4.8v0.7c1.2,1.5,4.9,7.5,5.7,8.9L109.6,293.9z
				 M112.2,298.7h21.3v21.4h-4.3v-2.9h-12.8v3h-4.1V298.7z M116.4,303.5v8.9h12.8v-8.9H116.4z M117.6,277.2l-0.1,0.1
				c1.4,3,3.3,5.7,5.7,8.1c2.4-2.3,4.4-5.1,6-8.2H117.6z"/>
			<path class="st4" d="M174.5,274.2c-0.9,6.8-3.1,12.2-8.9,15.4c-0.4-1-1.3-2.5-2.1-3.4v28.6c0,2.3-0.4,3.9-1.6,4.7
				c-1.3,0.8-3.2,0.8-6.3,0.8c-0.2-1.2-0.8-3.4-1.4-4.6c2.3,0.1,4.2,0.1,4.8,0.1c0.6-0.1,0.8-0.3,0.8-1.1v-9.5h-10.5
				c-0.4,5.4-1.4,11-3.6,15.3c-0.7-0.7-2.3-1.9-3.1-2.4c3.2-6.1,3.5-14.7,3.5-21.3v-9.3l-0.4,0.6c-0.7-0.8-2.3-2.5-3.2-3.2
				c3.3-4.4,5.7-11.2,7.1-18.2l4,1.1c-0.3,1.4-0.7,2.8-1,4.2h4.9l0.6-0.2l2.5,2c-0.8,2.5-1.8,5.3-2.8,7.7h5.6v4.2
				c4.5-2.5,6.2-6.5,6.9-11.5h-5.8v-4.5h20.5c0,0,0,1.3,0,1.9c-0.3,9.5-0.8,13.4-1.7,14.8c-0.7,1.1-1.5,1.5-2.7,1.6
				c-1,0.2-2.9,0.2-4.8,0.1c-0.1-1.4-0.5-3.3-1-4.5c1.6,0.2,3.2,0.2,3.8,0.2c0.6,0.1,1-0.1,1.3-0.5c0.5-0.7,0.8-3.1,1.1-9.1H174.5z
				 M151.4,276.2c-0.6,1.8-1.3,3.6-2,5.3h4.8c0.6-1.5,1.2-3.4,1.7-5.3H151.4z M149.8,296.9c0,1.3,0,2.7,0,4.2h3.6v-5.9h-3.6V296.9z
				 M149.8,291.1h3.6v-5.6h-3.6V291.1z M156.4,291.1h3.5v-5.6h-3.5V291.1z M159.9,301.1v-5.9h-3.5v5.9H159.9z M186.4,309.8h-8.6
				v10.3h-4.1v-10.3h-9.3v-4.7h9.3v-6.3h-4.6c-0.7,2-1.4,3.7-2.2,5.2c-0.8-0.7-2.4-1.7-3.3-2.2c1.9-3.3,3.3-8,4.1-12.9l3.6,0.9
				c-0.2,1.4-0.5,2.8-0.8,4.2h3.3v-5.6h4.1v5.6h7.7v4.7h-7.7v6.3h8.6V309.8z"/>
			<path class="st4" d="M211,299.5c-2.7,0-4.4-0.4-5.5-1.2c-3.6,1.9-7.3,3.5-11,4.8c-0.6-1.2-1.8-3.4-2.5-4.6
				c4.2-1.2,8.3-2.9,12.2-4.9v-0.3v-10.6h3.9v8.8c5.7-3.5,10.6-7.8,13.9-13l3.7,2.3c-3.9,5.8-9.1,10.6-15.1,14.4h0.6h8.8
				c2.2,0,2.6-0.8,2.8-6c0.9,0.8,2.5,1.5,3.6,1.7c-0.5,7-1.7,8.6-6,8.6H211z M202.1,285.4c-1.4,3.7-3.4,8-6.1,10.8l-3.5-2.6
				c2.5-2.6,4.8-6.6,6.1-10.1L202.1,285.4z M198.1,283.2h-4.3v-11.7h17.8c-0.3-1.5-0.7-3.2-1.1-4.5l4.2-0.9c0.6,1.6,1.1,3.7,1.5,5.4
				h17.4v11.7h-4.5v-6.8h-31V283.2z M225.6,303.4h4.4v16.8h-4.4v-2.2h-28v-13.8h4.3v8.7h9.4v-11.7h4.4v11.7h9.8V303.4z M214.4,285.8
				c-1.7-1.9-5.1-4.6-8-6.1l2.1-3.2c2.8,1.4,6.4,3.8,8.1,5.7L214.4,285.8z M227.3,283.7c2.9,3,6.3,7.5,7.9,10.5l-3.3,2.9
				c-1.5-2.9-4.8-7.5-7.6-10.8L227.3,283.7z"/>
			<path class="st4" d="M262.6,289.4c1.9,0,3.4,1.9,3.4,4.2c0,2.3-1.5,4.2-3.4,4.2c-1.9,0-3.4-1.9-3.4-4.2
				C259.2,291.2,260.7,289.4,262.6,289.4z"/>
			<path class="st4" d="M332,298c0,0,0,1.5-0.1,2.2c-0.8,11.7-1.6,16.5-3.1,18.3c-0.9,1.2-1.9,1.6-3.3,1.8c-1.2,0.2-3.4,0.2-5.7,0.1
				c0-1.5-0.5-3.5-1.1-4.8c2.1,0.3,4.1,0.3,4.9,0.3c0.8,0,1.2-0.1,1.6-0.6c0.9-1,1.6-4.4,2.2-12.4h-27.9c-2.3,2.2-4.8,4.2-7.5,6
				c-0.5-1.3-1.6-3.4-2.3-4.6c8.2-5.1,14.5-13.1,18.9-22.3h-15.9v-4.8h8.7c-0.7-2.3-2-5.6-3.3-8l3.7-1.8c1.6,2.6,3.2,6.2,3.8,8.5
				l-2.4,1.3h7.6c1.3-3.3,2.4-6.7,3.3-10.1l4.4,1.5c-0.8,2.9-1.8,5.8-2.8,8.6h9.4c-0.5,3.4-1.1,7.5-1.7,10.6h5.4
				c-0.4,3.4-1,7.5-1.6,10.6H332z M291.6,317.2c2.7-2.7,4.5-7.3,5.3-11.9l3.7,1.5c-1,4.9-2.5,10-5.6,13.1L291.6,317.2z M306.6,306.8
				c0.8,3.4,1.3,7.8,1.3,10.6l-3.9,0.6c0.1-2.9-0.3-7.3-1-10.7L306.6,306.8z M308.1,292.1c-1.3,2-2.8,4-4.3,5.9h19.3
				c0.3-1.8,0.7-3.8,0.9-5.9H308.1z M313.6,305.9c1.1,2.9,2.1,6.8,2.5,9.3l-3.5,1.2c-0.3-2.6-1.3-6.5-2.3-9.5L313.6,305.9z
				 M313.6,281.7c-0.8,2-1.8,3.9-2.8,5.7h8.6c0.3-1.7,0.7-3.7,0.9-5.7H313.6z M320.1,313.6c-0.5-2.2-1.8-5.5-3.1-7.9l3-1.3
				c1.4,2.3,2.8,5.6,3.3,7.6L320.1,313.6z"/>
			<path class="st4" d="M353.2,268.6c-1.3,4.1-2.9,8.3-4.7,12.3v39.5h-4.1v-31.4c-1.3,2.3-2.7,4.3-4.1,6.1c-0.4-1.3-1.7-4.3-2.4-5.5
				c4.4-5.4,8.6-14,11.2-22.5L353.2,268.6z M369.7,282.7v31.4c0,2.8-0.5,4.4-1.9,5.3c-1.4,0.9-3.5,1.1-6.5,1.1
				c-0.2-1.5-0.9-4-1.6-5.4c2.1,0.1,4.1,0.1,4.8,0c0.6,0,0.8-0.2,0.8-0.9v-31.4H359c-1.4,3.7-2.9,7-4.5,9.6c-0.8-1-2.5-2.7-3.6-3.6
				c3.5-5.1,6.2-13.4,7.8-21.6l4.3,1.2c-0.7,3.2-1.5,6.4-2.4,9.4h17.8l0.7-0.2l3.1,0.8c-0.6,4.4-1.5,9.6-2.1,12.9l-3.7-0.9
				c0.3-2,0.7-4.7,0.9-7.5H369.7z M362,293.1c-1.4,7.5-3.9,14.9-6.6,19.7c-0.8-0.9-2.7-2.3-3.7-2.9c2.8-4.3,4.9-11,6.1-17.8
				L362,293.1z M376.2,291.5c2.6,6.1,4.8,13.9,5.6,19.2l-4.2,1.9c-0.7-5.3-2.8-13.4-5.3-19.5L376.2,291.5z"/>
			<path class="st4" d="M408.1,255.3v67.2h-4.9v-16c-4.8,1.3-9.5,2.6-13.5,3.7l-1.2-6.8c1.2-0.3,2.5-0.4,3.9-0.8v-47.4h-3.2v-7h21.8
				v7H408.1z M403.2,255.3h-6.1v10.6h6.1V255.3z M403.2,272.4h-6.1v10.7h6.1V272.4z M397.1,301.6c1.9-0.4,4-0.9,6.1-1.5v-10.5h-6.1
				V301.6z M450.7,283.3c-2.1,7.9-5.1,15-8.7,21.2c1,5.7,2.2,9,3.5,9.1c1,0,1.8-4.2,2.1-11.3c1,1.5,3.1,3.5,4,4.1
				c-1.4,12.7-4,15.8-6.3,15.8c-3.3-0.1-5.7-4.2-7.4-11.4c-3.1,4.3-6.6,8-10.2,11c-0.8-1.4-2.4-3.2-3.7-4.4c1.8-1.4,3.6-3,5.3-4.9
				h-3.7v-2.1h-8.2v6h-4.9v-35.8h17.9v30.7c2-2.4,4.1-5.2,5.9-8c-1.1-7.3-1.8-16.3-2.3-26.6h-24V270h4c-0.3-2.7-0.9-6.2-1.5-8.9
				l4.4-0.9c0.7,3,1.5,7,1.8,9.8h4.4c0.7-3,1.4-7,1.8-9.9l5,1.1c-0.8,3-1.4,6.3-2.1,8.8h6c-0.3-7.8-0.5-16.2-0.6-25.1h5.5
				c0,8.8,0.2,17.3,0.5,25.1h12v6.7h-11.7c0.3,6.8,0.8,13.2,1.4,18.5c2-4.6,3.7-9.6,5-14.9L450.7,283.3z M431.6,259.7h-20.2v-6.2
				h7.6c-0.6-2.3-1.4-4.9-2.1-7l5.3-1.2c0.9,2.5,1.8,5.7,2.5,8.2h6.9V259.7z M417.5,286.2v6.5h8.2v-6.5H417.5z M425.7,305v-6.8h-8.2
				v6.8H425.7z M444.6,267c-0.8-4-2.8-10.3-4.8-15l4.6-1.9c2.1,4.6,4.2,10.8,5.1,14.6L444.6,267z"/>
			<path class="st4" d="M458.5,318.5c1.8-2.4,2.7-6.5,3.2-10.4l3,1c-0.5,4.3-1.3,8.7-3.3,11.3L458.5,318.5z M459.3,301.5
				c2.4-0.1,5.4-0.2,8.6-0.4v-3.8h-7.5v-4.2h7.5v-3.3h-7.3v-21h18.9v21h-7.7v3.3h7.8v4.2h-7.8v3.6c2.8-0.2,5.7-0.4,8.6-0.5l-0.1,4.3
				c-7.5,0.6-15.3,1.1-20.8,1.5L459.3,301.5z M463.9,285.9h4.6v-13.4h-4.6V285.9z M466.3,274.5c0.8,2.7,1.4,6.3,1.5,8.5l-2.1,0.8
				c-0.1-2.3-0.6-6-1.4-8.7L466.3,274.5z M468.4,307.9c0.7,3.2,1.2,7.3,1.2,10l-2.9,0.5c0-2.7-0.4-6.9-1-10.2L468.4,307.9z
				 M472.9,307.4c1,2.9,2,6.8,2.3,9.3l-2.8,0.8c-0.2-2.6-1.2-6.5-2.2-9.5L472.9,307.4z M476.1,272.5h-4.8v13.4h4.8V272.5z
				 M471.7,283.3c0.7-2.4,1.6-6.4,1.9-8.9l2.4,1.1c-0.9,2.9-1.8,6.5-2.6,8.6L471.7,283.3z M477.3,306.1c1.6,2.7,3.3,6.4,3.9,8.8
				l-2.9,1.5c-0.6-2.5-2.2-6.3-3.7-9.1L477.3,306.1z M492.5,284.2v10h7.8v25.9h-4.1v-2.3h-10.5v2.5h-4v-26.2h6.5v-27.3h4.2v12.3h9.6
				v5H492.5z M496.2,299.1h-10.5v13.7h10.5V299.1z"/>
			<path class="st4" d="M520.1,294.3c-0.9,5.2-2.2,10.7-3.9,15.1c0.9,0.6,1.9,1.6,3.4,2.7c3.3,2.5,7.5,2.8,13.1,2.8
				c5.7,0,13.7-0.5,18.9-1.3c-0.5,1.5-1.2,4.1-1.3,5.6c-3.6,0.3-12.2,0.6-17.8,0.6c-6.2,0-10.2-0.6-13.7-3.1
				c-1.9-1.3-3.6-3.4-4.6-3.4s-2.7,3.8-4,7.4l-3-5c1.6-2.6,3.3-4.9,4.8-6.1c1.2-3.2,2.4-7.4,3.1-11.3h-6.1c1.2-3.4,2.6-8.2,3.8-12.7
				h-4.8v-4.9h10.5c-1.1,4.1-2.5,8.9-3.7,13h2.5l0.6-0.2L520.1,294.3z M513.2,278.2c-0.6-2.6-1.7-6.7-2.5-9.8l4-1.5
				c0.9,3,2.1,7,2.7,9.5L513.2,278.2z M531,292.8c-2,5.8-5.6,12.2-8.6,15.8c-0.8-1.3-2.1-3.1-3.2-4.1c3-3,6.4-8.4,8.2-13.3
				L531,292.8z M533,290h-12.4v-5H533v-17.4h4.3V285h12.8v5h-12.8v22H533V290z M526.8,282.8c-0.9-2.9-3-7.8-4.7-11.5l3.7-1.9
				c1.7,3.5,4,8.3,4.9,11.2L526.8,282.8z M542.1,291c3,4.4,6.7,10.6,8.4,14.3l-3.3,3c-1.7-3.9-5.3-10.2-8.2-14.8L542.1,291z
				 M549.2,271.1c-1.7,4-3.8,8.6-5.4,11.6l-3.4-1.8c1.6-3.1,3.5-8.2,4.5-11.7L549.2,271.1z"/>
			<path class="st4" d="M564.5,293.8c-1.7-1.9-5.3-5.1-7.9-7.3l2.5-3.9c2.4,2,6.2,5,8,6.8L564.5,293.8z M568.8,300.8
				c-2.1,6.1-4.6,12.9-7,18.3l-3.9-3.4c2.1-4.4,5.2-11.7,7.4-18.2L568.8,300.8z M567.3,279.2c-1.7-2-5.3-5.3-7.9-7.7l2.7-3.7
				c2.5,2,6.2,5.1,8,7.1L567.3,279.2z M585.7,294.6v3.9h11.7v4.4h-11.7v4.3h13.8v4.6h-13.8v8.5h-4.5v-8.5h-12.7v-4.6h12.7v-4.3
				h-10.5v-4.4h10.5v-3.9h-9.9v-4.3h9.9v-4.5h-12.3v-4.6h12.3v-4.4h-9.7v-4.2h9.7v-5.9h4.5v5.9h10.9v8.6h3.3v4.6h-3.3v8.8H585.7z
				 M585.7,281.3h6.8v-4.4h-6.8V281.3z M585.7,290.4h6.8v-4.5h-6.8V290.4z"/>
		</g>
	</g>
</g>
<g>
	<g class="st3">
		<path d="M134.5,142.8l12.1,1.7c-2.3,4.8-4.7,9.6-6.9,13.8h14.7l-2.2,15.6c6.7-8.1,12.9-19.7,17.2-31l10.4,2.5
			c-1.5,4.1-3.4,8.2-5.4,12.2h26.8c0,0-0.5,3.8-0.8,5.2c-7.3,43-10.5,58.3-15.1,63.4c-3.2,3.6-6,4.6-9.9,5.3c-2,0.3-4.5,0.3-7.3,0.3
			c-2.4,0-5-0.1-7.6-0.2c0.3-3.2-0.6-8-2.1-11.2c6,0.6,11.6,0.6,14.1,0.6c1.9,0,3-0.4,4.4-1.6c3.2-3.1,6.5-17.5,12.3-51.5h-20.4
			c-3.3,5.8-7,11.1-10.5,15.2c-1.3-1.4-4.2-3.7-6.6-5.4l-6.3,44.9H120l-1,7h-10.3l10.1-71.5h10.8
			C131.4,153.5,133.4,147.3,134.5,142.8 M142.8,168.3h-15.1l-2.2,15.6h15.1L142.8,168.3 M139.2,193.7h-15.1l-2.7,18.9h15.1
			L139.2,193.7 M653.6,142.9L653.6,142.9 M653.6,142.9l-0.7,5h25.7l-1.3,9.5h-25.7l-0.5,3.6h-11.3l2.5-18.1H653.6 M631.5,142.9
			L631.5,142.9 M631.5,142.9l-2.5,18.1h-11.2l0.5-3.5h-25.6l1.4-9.6h25.6l0.7-5H631.5 M357.2,142.9L357.2,142.9 M357.2,142.9
			l-1.7,11.8h35.9l-1.6,11.3h-35.9l-3,21.5c0.4,0.8,0.7,1.4,1.1,2.2c6.9-5.5,12.1-14,15.2-23.2l10.8,2c-1.4,3.6-2.9,7-4.6,10.3
			c4.8,4.2,10.7,9.3,13.7,12.6l-9,8c-2.2-3-6.5-7.2-10.7-11.2c-2.3,3.2-4.8,6-7.5,8.3c-1.4-1.3-4.3-3.5-6.7-4.9
			c6.9,11.3,19,21.5,32.6,26.8c-3.1,2.4-7.5,7.3-9.8,10.5c-10.8-5.4-20.3-14-27.4-24.3l-3.9,28h-11.9l3.9-27.4
			c-10,10.1-21.8,18.5-33.9,23.8c-1.4-2.8-4.5-7.4-6.6-9.8c16.3-6.1,32.8-18,42.9-31L342,166h-34.6l1.6-11.3h34.6l1.7-11.8H357.2
			 M262.4,142.9L262.4,142.9 M262.4,142.9l-2,14.3h29.8l-1.6,11.3h-29.8l-1.7,12.3h36.6l-1.6,11.3h-31.4
			c6.8,10.7,18.3,20.9,30.1,26.4c-3,2.3-7.3,6.9-9.6,9.9c-10.4-5.9-20.1-15.5-27.2-26.4l-4.3,30.6h-12.1l4.2-30
			c-10.1,10.6-22.6,19.9-34.5,25.8c-1.5-2.9-4.6-7.5-7-9.9c13.5-5.5,27.9-15.7,37.8-26.4h-30.8l1.6-11.3H245l1.7-12.3h-28.9
			l1.6-11.3h28.9l2-14.3H262.4 M60.8,143.4l6.2,9.7c-5,1.4-10.4,2.7-16,3.8l-1.8,13h18.3c0.5-8.7,1.4-17.6,2.6-26.4h11.9
			c-1.4,8.9-2.3,17.9-2.8,26.4H105l-1.5,10.9H78.8c-0.1,5.8,0.1,11.3,0.5,16.3c4-4.1,7.8-8.5,10.9-13.1l9.4,4.3
			c-5.4,7.8-11.7,14.8-18.8,21.1c1.5,7.4,3.9,11.8,6.7,11.8c2,0,3.8-4.6,5.9-16c2.1,2.7,5.5,5.3,8.4,6.5
			c-4.2,16.8-8.3,21.1-16.9,21.1c-6.9,0-11.5-5.8-14.2-15.2c-6.2,4.6-12.7,8.6-19.3,11.7c-1.2-2.7-3.8-6.6-6.2-9.2
			c7.8-3.4,15.8-8.1,23.1-13.6c-1-7.6-1.4-16.4-1.2-25.8H47.7l-1.5,11c5-0.9,10.1-1.8,15-2.7l-0.6,10.4l-16,3.2l-2.3,16.4
			c-0.9,6.3-2.6,9.3-6.7,11.2c-3.7,1.7-8.8,2.2-15.6,2.2c-0.6,0-1.2,0-1.8,0c0-3.2-1.2-8.4-2.4-11.5c2.6,0.1,5.3,0.2,7.6,0.2
			c2.3,0,4.1,0,4.9-0.1c1.7,0,2.4-0.5,2.6-2l2-13.9c-6.3,1.3-12.3,2.5-17.5,3.5L14.2,197c5.5-0.9,12.5-1.9,20.2-3.3l1.8-12.9h-18
			l1.5-10.9h18l1.5-11c-5.3,0.9-10.6,1.5-15.5,2.1c-0.1-2.8-1-7-1.9-9.6C35.5,149.7,50.7,146.6,60.8,143.4 M81.9,143.6L81.9,143.6
			 M93.6,145.5c4.4,4.4,9.8,10.8,11.9,15.3l-10,6.4c-1.9-4.4-6.8-11.3-11.3-15.9L93.6,145.5 M574.4,146l-4.7,33.4h-66.1l4.7-33.4
			H574.4 M561.8,154h-43.6l-0.7,4.9h43.6L561.8,154 M560,166.4h-43.6l-0.7,5h43.6L560,166.4 M487.1,149.2L487.1,149.2 M487.1,149.2
			l-1.7,11.7h-29.6c-2,3-4.4,6-6.8,8.8l-1.4,10l7.9-6c9.1,7.4,22.2,18.5,28,26.1l-10.8,8.8c-4.9-7.1-16.3-18.1-25.4-26.1l-7,49.8
			h-12.4l6.6-46.9c-10,9.3-21.3,17.7-33.6,23.7c-1.4-3.1-4.2-7.8-6.3-10.4c18.5-8.2,35.4-23.1,46.3-37.8h-38l1.7-11.7H487.1
			 M391.4,154.7L391.4,154.7 M290.2,157.2L290.2,157.2 M154.5,158.3L154.5,158.3 M669.6,163l-3,21.1h-69.5l3-21.1H669.6
			 M658.1,170.3h-10.3l-0.9,6.3h10.3L658.1,170.3 M638.4,170.3h-10l-0.9,6.3h10L638.4,170.3 M618.9,170.3h-9.8l-0.9,6.3h9.8
			L618.9,170.3 M322.7,166.5l10.7,2.1c-1.5,3.6-3.1,7-4.9,10.4c3,3,6.2,6.2,8,8.5l-8.7,8c-1.2-1.8-3.2-4.2-5.4-6.7
			c-3.9,5.2-8.1,9.7-12.8,13.2c-1.5-2-5.5-5.8-7.7-7.5C311.2,188.4,318.4,178.3,322.7,166.5 M105,170L105,170 M168.3,180.1
			c3.8,6.6,8.8,15.8,11,21.4l-10.4,6c-1.9-5.8-6.4-15.2-10.1-22.2L168.3,180.1 M578.2,183.7L578.2,183.7 M578.2,183.7l-1.4,10.1
			h-35.3l-1,7.2h29.3l-1.4,9.9H539l-1.3,9.3c2.4,0.2,5,0.3,7.6,0.3c5.3,0,23.6,0,30.4-0.3c-1.9,2.6-4.3,7.6-5.3,11h-27.1
			c-17.4,0-28.9-2.5-35.3-13.7c-4.3,6.3-9.4,11.4-15.5,15.3c-1.3-2.1-5.1-6.3-7.4-8c10.6-6.1,17.8-16.3,21.8-29.1l11.1,1.7
			c-1.1,3.1-2.3,6-3.4,8.8c2,6.5,6.2,10.1,12,12l3.4-24.4h-37.1l1.4-10.1H578.2 M672.7,187.3l-2.4,17.1h-11.2l1.2-8.5h-36.5l7.1,1.5
			c-0.9,0.9-1.8,1.6-2.6,2.4h20.3l2.1-0.5l6.6,4.1c-14.1,18.4-40.3,25.8-67.2,28.8c-0.5-2.7-1.8-7.2-3.2-9.7c10-0.8,20-2.1,29.1-4.6
			c-2.2-2.3-5.1-4.8-7.7-6.6c-2.2,0.8-4.5,1.4-6.9,2.1c-0.9-2.5-3.5-6.3-5.4-8c10.8-2.2,18.6-5.6,23.5-9.5h-20.8l-1.2,8.5h-10.7
			l2.4-17.1H672.7 M639.4,207.5H618c3.1,2.2,6.3,4.8,8.3,7C631.3,212.6,635.8,210.3,639.4,207.5 M61.2,189.1L61.2,189.1
			 M575.7,220.2L575.7,220.2 M134.5,135c-3.6,0-6.8,2.5-7.6,6.1c-0.6,2.6-1.6,6-2.8,9.4h-5.3c-3.2,0-6.1,2-7.2,4.9
			c-3.7-6.5-10.3-13.3-12.4-15.4c-1.5-1.5-3.5-2.3-5.5-2.3c-1.4,0-2.9,0.4-4.1,1.2l-1,0.6c-1.4-2.2-3.8-3.6-6.6-3.6h0H70
			c-1.7,0-3.2,0.5-4.5,1.4c-1.4-1-3-1.6-4.7-1.6c-0.8,0-1.6,0.1-2.3,0.4c-9.3,2.9-24.1,6-37.6,7.8c-2.3,0.3-4.4,1.6-5.6,3.6
			s-1.5,4.4-0.8,6.6c0.7,2.2,1.4,5.6,1.5,7.4c0,0.6,0.1,1.1,0.2,1.7c-2.2,1.1-3.8,3.3-4.2,5.9l-1.5,10.9c-0.3,2.2,0.4,4.5,1.8,6.2
			c1.3,1.5,3.1,2.4,5.1,2.6c-0.6,0.1-1.2,0.2-1.7,0.3l-2.7,0.4c-4.1,0.6-7,4.4-6.6,8.5l1.1,11.5c0.2,2.2,1.3,4.2,3.1,5.5
			c0.1,0,0.1,0.1,0.2,0.1c-0.5,0.4-0.9,0.9-1.3,1.4c-1.6,2.1-2,4.9-1,7.3c1,2.6,1.9,6.9,1.9,8.9c0,4.2,3.5,7.7,7.7,7.7
			c0.6,0,1.3,0,1.9,0c8.8,0,14.4-0.9,18.9-2.9c2.4-1.1,4.3-2.5,5.8-4c0.9,1.6,2.4,2.8,4.1,3.4c0.9,0.3,1.7,0.5,2.6,0.5
			c1.2,0,2.3-0.3,3.4-0.8c4.2-2.1,8.4-4.4,12.4-6.9c5.2,9,12.2,11.1,17.7,11.1c8,0,13.2-3.1,16.8-7.9c0.3,0.7,0.7,1.4,1.3,2
			c1.5,1.7,3.6,2.7,5.9,2.7H119c3.9,0,7.2-2.9,7.7-6.7l0-0.3h18.6c2.9,0,5.5-1.6,6.8-4c0.4,1.7,0.6,3.4,0.5,4.5
			c-0.2,2.1,0.5,4.2,2,5.8s3.4,2.5,5.6,2.6c3.2,0.1,5.7,0.2,7.9,0.2c3.5,0,6.2-0.1,8.4-0.4c0.1,0,0.2,0,0.3,0
			c4.6-0.8,9.5-2.3,14.4-7.8c1.5-1.7,2.9-3.8,4.1-6.9c1.7,1.8,4,5.4,5.2,7.6c1.4,2.7,4.1,4.2,6.9,4.2c1.2,0,2.3-0.3,3.4-0.8
			c6.8-3.4,13.8-7.7,20.4-12.8l-1.3,8.9c-0.3,2.2,0.4,4.5,1.8,6.2c1.5,1.7,3.6,2.7,5.9,2.7h12.1c3.9,0,7.2-2.9,7.7-6.7l1.8-12.7
			c5.6,5.8,11.8,10.6,18.2,14.2c1.2,0.7,2.5,1,3.8,1c2.3,0,4.6-1.1,6.2-3c1.3-1.7,3.3-3.9,5.2-5.8c1.2,1.7,2.4,3.6,3,4.9
			c1.4,2.7,4.1,4.3,7,4.3c1,0,2.1-0.2,3.1-0.7c6.9-3,13.7-6.9,20.2-11.6l-1,7c-0.3,2.2,0.4,4.5,1.8,6.2c1.5,1.7,3.6,2.7,5.9,2.7
			h11.9c3.9,0,7.2-2.9,7.7-6.7l1.5-10.9c5.6,5.4,11.9,9.8,18.6,13.1c1.1,0.6,2.3,0.8,3.5,0.8c2.4,0,4.8-1.1,6.3-3.2
			c2-2.7,6-7.1,8.4-9c2.2-1.7,3.3-4.5,2.9-7.3c-0.4-2.8-2.3-5.1-4.9-6.1c-2.9-1.1-5.8-2.6-8.6-4.2c1.2-0.3,2.3-0.9,3.3-1.7l4.1-3.6
			c0.3,0.7,0.7,1.4,1.2,2c1.6,2,4.2,6.1,5.3,8.7c0.9,1.9,2.5,3.4,4.5,4.1c0.9,0.3,1.8,0.5,2.7,0.5c1.2,0,2.3-0.3,3.4-0.8
			c6.6-3.2,13.2-7.2,19.6-11.9l-3.8,27c-0.3,2.2,0.4,4.5,1.8,6.2c1.5,1.7,3.6,2.7,5.9,2.7h12.4c3.9,0,7.2-2.9,7.7-6.7l4.9-35.1
			c6.1,5.9,11,11.2,13.4,14.7c1.2,1.8,3.2,3,5.3,3.3c0.4,0.1,0.7,0.1,1.1,0.1c1.8,0,3.5-0.6,4.9-1.7l10.8-8.8
			c1.5-1.2,2.4-2.8,2.8-4.6c0.5,0.1,1,0.2,1.6,0.2h3.3c-3.6,7.3-8.6,12.9-15,16.5c-2.3,1.3-3.8,3.8-3.9,6.4
			c-0.1,2.7,1.1,5.2,3.3,6.7c1.3,0.9,4.4,4.4,5.3,5.7c1.1,1.8,2.9,3,4.9,3.5c0.6,0.1,1.2,0.2,1.7,0.2c1.5,0,2.9-0.4,4.2-1.2
			c4.2-2.7,8-5.8,11.4-9.5c9.7,8.3,23,9.1,35.1,9.1h27.1c3.4,0,6.4-2.2,7.4-5.5c0.5-1.7,1.5-4,2.6-6c0.7,1.8,1.5,4.4,1.8,6.2
			c0.7,3.8,3.9,6.4,7.7,6.4c0.3,0,0.6,0,0.9,0c32.7-3.6,55.4-12.8,69.3-27.8h10.3c3.9,0,7.2-2.9,7.7-6.7l2.4-17.1
			c0.3-2.2-0.4-4.5-1.8-6.2c-0.9-1.1-2.1-1.9-3.4-2.3l2.1-14.7h0.1c3.9,0,7.2-2.9,7.7-6.7l1.3-9.5c0.3-2.2-0.4-4.5-1.8-6.2
			c-1.5-1.7-3.6-2.7-5.9-2.7h-17.7c-1.1-2.9-4-5-7.3-5h0h-11.3c-2.1,0-4,0.8-5.4,2.2c-1.4-1.4-3.3-2.2-5.4-2.2h0h-11.2
			c-3.3,0-6.1,2-7.3,5h-19c-3.9,0-7.2,2.9-7.7,6.7l-1.4,9.6c-0.3,2.2,0.4,4.5,1.8,6.2c1.3,1.5,3.2,2.5,5.2,2.7l-2,14.2H589
			c-1.3,0-2.6,0.3-3.7,0.9c-1.2-2.7-3.9-4.6-7.1-4.6h0h-0.1l4-28.7c0.3-2.2-0.4-4.5-1.8-6.2c-1.5-1.7-3.6-2.7-5.9-2.7h-66.1
			c-3.9,0-7.2,2.9-7.7,6.7l-4.3,30.9h-2c-3.9,0-7.2,2.9-7.7,6.7l-1.1,7.6c-5.3-5.6-13.1-12.7-23.8-21.4h23.8c3.9,0,7.2-2.9,7.7-6.7
			l1.6-11.5c0.1-0.4,0.1-0.9,0.1-1.3c0-4.3-3.5-7.8-7.8-7.8h0h-82.5c-3.9,0-7.2,2.9-7.7,6.7l-0.1,0.9c-1.4-1.3-3.3-2.2-5.4-2.2h0
			h-26.9l0.4-2.7c0.1-0.4,0.1-0.9,0.1-1.3c0-4.3-3.5-7.8-7.8-7.8h0h-11.9c-3.9,0-7.2,2.9-7.7,6.7l-0.7,5.1H309
			c-3.9,0-7.2,2.9-7.7,6.7l-1.6,11.3c-0.3,2.2,0.4,4.5,1.8,6.2s3.6,2.7,5.9,2.7h3.3c-2.8,4.7-6.1,8.7-9.8,11.7l0.5-3.6
			c0.3-2.2-0.4-4.5-1.8-6.2c-1.2-1.4-2.9-2.3-4.7-2.6c0.7-1,1.2-2.2,1.4-3.5l1.6-11.1c0.1-0.4,0.1-0.9,0.1-1.3
			c0-4.3-3.5-7.8-7.8-7.8h0h-20.8l0.7-5.2c0.1-0.4,0.1-0.9,0.1-1.3c0-4.3-3.5-7.8-7.8-7.8h0h-12.1c-3.9,0-7.2,2.9-7.7,6.7l-1.1,7.6
			h-22.1c-3.9,0-7.2,2.9-7.7,6.7l-1.6,11.3c-0.3,2,0.2,4,1.4,5.6h-2.5c-0.8,0-1.6,0.1-2.4,0.4c0.5-2.9,1-6,1.6-9.2
			c0.3-1.6,0.8-4.9,0.9-5.5c0.3-2.2-0.4-4.5-1.8-6.2c-1.5-1.7-3.6-2.7-5.9-2.7h-14.7c0.2-0.6,0.4-1.1,0.7-1.7
			c0.8-2.1,0.6-4.4-0.4-6.4c-1-2-2.9-3.4-5.1-3.9l-10.4-2.5c-0.6-0.1-1.2-0.2-1.8-0.2c-3.2,0-6.1,1.9-7.3,5c-1.4,3.7-3.1,7.4-4.8,11
			c-0.9-0.4-1.9-0.6-2.9-0.6h0h-2.1c0.4-0.8,0.8-1.7,1.2-2.6c1.1-2.2,1-4.9-0.2-7c-1.2-2.2-3.3-3.7-5.8-4l-12.1-1.7
			C135.2,135,134.8,135,134.5,135L134.5,135z M653.6,150.7L653.6,150.7L653.6,150.7L653.6,150.7z M631.5,150.7L631.5,150.7
			L631.5,150.7L631.5,150.7z M574.4,153.8L574.4,153.8L574.4,153.8L574.4,153.8z M487.1,157L487.1,157L487.1,157L487.1,157z
			 M384.3,173.8h5.4c3.9,0,7.2-2.9,7.7-6.7l0.1-0.4c1.4,1.4,3.4,2.2,5.4,2.2h20.9c-8.7,8.8-18.9,16.2-29.1,21.3
			c-0.3-1.5-0.9-2.8-2-3.9c-2.4-2.5-6.1-5.9-9.8-9.2C383.5,175.9,383.9,174.8,384.3,173.8L384.3,173.8z M669.6,170.8L669.6,170.8
			L669.6,170.8L669.6,170.8z M174.8,175.8h5.1c-0.4,2.1-0.8,4.4-1.2,6.8c-1.3-2.4-2.6-4.6-3.6-6.4
			C175,176.1,174.9,175.9,174.8,175.8L174.8,175.8z M578.2,191.5L578.2,191.5L578.2,191.5L578.2,191.5z M99.8,200.9
			c2.2-2.6,4.2-5.3,6.1-8.1c0.1-0.1,0.1-0.1,0.1-0.2l-1.7,11.9C102.8,203.7,101,202.2,99.8,200.9L99.8,200.9z M672.7,195.1
			L672.7,195.1L672.7,195.1L672.7,195.1z M199.5,210.5c0.8-3.6,1.7-7.7,2.6-12.5c1.4,1.3,3.3,2,5.2,2h10.2
			C211.7,204.2,205.5,207.8,199.5,210.5L199.5,210.5z M154.5,213.7l2.1-15.2c2.2,4.7,3.9,8.7,4.8,11.3c0.4,1.3,1.1,2.4,2,3.3
			c-1.4-0.1-2.9-0.2-4.4-0.3c-0.2,0-0.5,0-0.7,0C157,212.7,155.7,213,154.5,213.7L154.5,213.7z M277.4,200h14.7
			c1.3,0,2.5-0.3,3.6-0.9c0.4,0.5,0.9,1,1.5,1.5c1.9,1.5,5.3,4.7,6.3,6c0.1,0.1,0.2,0.3,0.3,0.4c-3.2,1.7-6.5,3.2-9.7,4.5
			C288.2,208.8,282.4,204.7,277.4,200L277.4,200z M577.5,201.5c0.6-0.1,1.1-0.2,1.6-0.3l-0.3,2.2c-0.3,2.2,0.4,4.5,1.8,6.2
			c1.5,1.7,3.6,2.7,5.9,2.7h4.9c0.4,0.5,1,1.3,1.4,2c-2.2,0.2-4.4,0.4-6.8,0.6c-1.4,0.1-2.6,0.6-3.7,1.3c-1.3-2.2-3.7-3.6-6.4-3.7
			c0-0.1,0.1-0.3,0.1-0.4l1.4-9.9C577.5,201.9,577.5,201.7,577.5,201.5L577.5,201.5z"/>
		<path d="M99.5,188.4c-5.4,7.8-11.7,14.8-18.8,21.1c1.5,7.4,3.9,11.8,6.7,11.8c2,0,3.8-4.6,5.9-16c2.1,2.7,5.5,5.3,8.4,6.5
			c-4.2,16.8-8.3,21.1-16.9,21.1c-6.9,0-11.5-5.8-14.2-15.2c-6.2,4.6-12.7,8.6-19.3,11.7c-1.2-2.7-3.8-6.6-6.2-9.2
			c7.8-3.4,15.8-8.1,23.1-13.6c-1-7.6-1.4-16.4-1.2-25.8H47.7l-1.5,11c5-0.9,10.1-1.8,15-2.7l-0.6,10.4l-16,3.2l-2.3,16.4
			c-0.9,6.3-2.6,9.3-6.7,11.2c-4,1.8-9.7,2.3-17.4,2.2c0-3.2-1.2-8.4-2.4-11.5c5.3,0.3,10.8,0.2,12.5,0.1c1.7,0,2.4-0.5,2.6-2
			l2-13.9c-6.3,1.3-12.3,2.5-17.5,3.5L14.2,197c5.5-0.9,12.5-1.9,20.2-3.3l1.8-12.9h-18l1.5-10.9h18l1.5-11
			c-5.3,0.9-10.6,1.5-15.5,2.1c-0.1-2.8-1-7-1.9-9.6c13.6-1.8,28.8-4.9,38.9-8.1l6.2,9.7c-5,1.4-10.4,2.7-16,3.8l-1.8,13h18.3
			c0.5-8.7,1.4-17.6,2.6-26.4h11.9c-1.4,8.9-2.3,17.9-2.8,26.4H105l-1.5,10.9H78.8c-0.1,5.8,0.1,11.3,0.5,16.3
			c4-4.1,7.8-8.5,10.9-13.1L99.5,188.4z M95.5,167.2c-1.9-4.4-6.8-11.3-11.3-15.9l9.4-5.9c4.4,4.4,9.8,10.8,11.9,15.3L95.5,167.2z
			 M201.3,157.6c0,0-0.5,3.8-0.8,5.2c-7.3,43-10.5,58.3-15.1,63.4c-3.2,3.6-6,4.6-9.9,5.3c-3.7,0.5-9.4,0.4-15,0.2
			c0.3-3.2-0.6-8-2.1-11.2c6,0.6,11.6,0.6,14.1,0.6c1.9,0,3-0.4,4.4-1.6c3.2-3.1,6.5-17.5,12.3-51.5h-20.4
			c-3.3,5.8-7,11.1-10.5,15.2c-1.3-1.4-4.2-3.7-6.6-5.4l-6.3,44.9H120l-1,7h-10.3l10.1-71.5h10.8c1.9-4.8,3.9-11,4.9-15.5l12.1,1.7
			c-2.3,4.8-4.7,9.6-6.9,13.8h14.7l-2.2,15.6c6.7-8.1,12.9-19.7,17.2-31l10.4,2.5c-1.5,4.1-3.4,8.2-5.4,12.2H201.3z M142.8,168.3
			h-15.1l-2.2,15.6h15.1L142.8,168.3z M136.5,212.6l2.7-18.9h-15.1l-2.7,18.9H136.5z M168.9,207.4c-1.9-5.8-6.4-15.2-10.1-22.2
			l9.6-5.1c3.8,6.6,8.8,15.8,11,21.4L168.9,207.4z M260.7,192.2c6.8,10.7,18.3,20.9,30.1,26.4c-3,2.3-7.3,6.9-9.6,9.9
			c-10.4-5.9-20.1-15.5-27.2-26.4l-4.3,30.6h-12.1l4.2-30c-10.1,10.6-22.6,19.9-34.5,25.8c-1.5-2.9-4.6-7.5-7-9.9
			c13.5-5.5,27.9-15.7,37.8-26.4h-30.8l1.6-11.3H245l1.7-12.3h-28.9l1.6-11.3h28.9l2-14.3h12.1l-2,14.3h29.8l-1.6,11.3h-29.8
			l-1.7,12.3h36.6l-1.6,11.3H260.7z M378.1,199.4c-2.2-3-6.5-7.2-10.7-11.2c-2.3,3.2-4.8,6-7.5,8.3c-1.4-1.3-4.3-3.5-6.7-4.9
			c6.9,11.3,19,21.5,32.6,26.8c-3.1,2.4-7.5,7.3-9.8,10.5c-10.8-5.4-20.3-14-27.4-24.3l-3.9,28h-11.9l3.9-27.4
			c-10,10.1-21.8,18.5-33.9,23.8c-1.4-2.8-4.5-7.4-6.6-9.8c16.3-6.1,32.8-18,42.9-31L342,166h-34.6l1.6-11.3h34.6l1.7-11.8h11.9
			l-1.7,11.8h35.9l-1.6,11.3h-35.9l-3,21.5c0.4,0.8,0.7,1.4,1.1,2.2c6.9-5.5,12.1-14,15.2-23.2l10.8,2c-1.4,3.6-2.9,7-4.6,10.3
			c4.8,4.2,10.7,9.3,13.7,12.6L378.1,199.4z M333.5,168.6c-1.5,3.6-3.1,7-4.9,10.4c3,3,6.2,6.2,8,8.5l-8.7,8
			c-1.2-1.8-3.2-4.2-5.4-6.7c-3.9,5.2-8.1,9.7-12.8,13.2c-1.5-2-5.5-5.8-7.7-7.5c9.2-6.1,16.4-16.2,20.8-27.9L333.5,168.6z
			 M455.6,173.8c9.1,7.4,22.2,18.5,28,26.1l-10.8,8.8c-4.9-7.1-16.3-18.1-25.4-26.1l-7,49.8h-12.4l6.6-46.9
			c-10,9.3-21.3,17.7-33.6,23.7c-1.4-3.1-4.2-7.8-6.3-10.4c18.5-8.2,35.4-23.1,46.3-37.8h-38l1.7-11.7h82.5l-1.7,11.7h-29.6
			c-2,3-4.4,6-6.8,8.8l-1.4,10L455.6,173.8z M537.7,220.2c2.4,0.2,5,0.3,7.6,0.3c5.3,0,23.6,0,30.4-0.3c-1.9,2.6-4.3,7.6-5.3,11
			h-27.1c-17.4,0-28.9-2.5-35.3-13.7c-4.3,6.3-9.4,11.4-15.5,15.3c-1.3-2.1-5.1-6.3-7.4-8c10.6-6.1,17.8-16.3,21.8-29.1l11.1,1.7
			c-1.1,3.1-2.3,6-3.4,8.8c2,6.5,6.2,10.1,12,12l3.4-24.4h-37.1l1.4-10.1h83.9l-1.4,10.1h-35.3l-1,7.2h29.3l-1.4,9.9H539
			L537.7,220.2z M569.7,179.4h-66.1l4.7-33.4h66.1L569.7,179.4z M561.8,154h-43.6l-0.7,4.9h43.6L561.8,154z M560,166.4h-43.6l-0.7,5
			h43.6L560,166.4z M618.2,157.5h-25.6l1.4-9.6h25.6l0.7-5h11.2l-2.5,18.1h-11.2L618.2,157.5z M589,187.3h83.7l-2.4,17.1h-11.2
			l1.2-8.5h-36.5l7.1,1.5c-0.9,0.9-1.8,1.6-2.6,2.4h20.3l2.1-0.5l6.6,4.1c-14.1,18.4-40.3,25.8-67.2,28.8c-0.5-2.7-1.8-7.2-3.2-9.7
			c10-0.8,20-2.1,29.1-4.6c-2.2-2.3-5.1-4.8-7.7-6.6c-2.2,0.8-4.5,1.4-6.9,2.1c-0.9-2.5-3.5-6.3-5.4-8c10.8-2.2,18.6-5.6,23.5-9.5
			h-20.8l-1.2,8.5h-10.7L589,187.3z M600.1,163h69.5l-3,21.1h-69.5L600.1,163z M608.2,176.6h9.8l0.9-6.3h-9.8L608.2,176.6z
			 M618,207.5c3.1,2.2,6.3,4.8,8.3,7c4.9-1.9,9.4-4.2,13.1-7H618z M627.5,176.6h10l0.9-6.3h-10L627.5,176.6z M678.6,147.9l-1.3,9.5
			h-25.7l-0.5,3.6h-11.3l2.5-18.1h11.3l-0.7,5H678.6z M646.9,176.6h10.3l0.9-6.3h-10.3L646.9,176.6z"/>
	</g>
	<g>
		<g>
			<g>
				<path class="st2" d="M131.5,139.8l12.1,1.7c-2.3,4.8-4.7,9.6-6.9,13.8h14.7l-2.2,15.6c6.7-8.1,12.9-19.7,17.2-31l10.4,2.5
					c-1.5,4.1-3.4,8.2-5.4,12.2h26.8c0,0-0.5,3.8-0.8,5.2c-7.3,43-10.5,58.3-15.1,63.4c-3.2,3.6-6,4.6-9.9,5.3
					c-2,0.3-4.5,0.3-7.3,0.3c-2.4,0-5-0.1-7.6-0.2c0.3-3.2-0.6-8-2.1-11.2c6,0.6,11.6,0.6,14.1,0.6c1.9,0,3-0.4,4.4-1.6
					c3.2-3.1,6.5-17.5,12.3-51.5h-20.4c-3.3,5.8-7,11.1-10.5,15.2c-1.3-1.4-4.2-3.7-6.6-5.4l-6.3,44.9H117l-1,7h-10.3l10.1-71.5
					h10.8C128.4,150.5,130.4,144.3,131.5,139.8 M139.8,165.3h-15.1l-2.2,15.6h15.1L139.8,165.3 M136.2,190.7h-15.1l-2.7,18.9h15.1
					L136.2,190.7 M650.6,139.9L650.6,139.9 M650.6,139.9l-0.7,5h25.7l-1.3,9.5h-25.7l-0.5,3.6h-11.3l2.5-18.1H650.6 M628.5,139.9
					L628.5,139.9 M628.5,139.9l-2.5,18.1h-11.2l0.5-3.5h-25.6l1.4-9.6h25.6l0.7-5H628.5 M354.2,139.9L354.2,139.9 M354.2,139.9
					l-1.7,11.8h35.9l-1.6,11.3h-35.9l-3,21.5c0.4,0.8,0.7,1.4,1.1,2.2c6.9-5.5,12.1-14,15.2-23.2l10.8,2c-1.4,3.6-2.9,7-4.6,10.3
					c4.8,4.2,10.7,9.3,13.7,12.6l-9,8c-2.2-3-6.5-7.2-10.7-11.2c-2.3,3.2-4.8,6-7.5,8.3c-1.4-1.3-4.3-3.5-6.7-4.9
					c6.9,11.3,19,21.5,32.6,26.8c-3.1,2.4-7.5,7.3-9.8,10.5c-10.8-5.4-20.3-14-27.4-24.3l-3.9,28h-11.9l3.9-27.4
					c-10,10.1-21.8,18.5-33.9,23.8c-1.4-2.8-4.5-7.4-6.6-9.8c16.3-6.1,32.8-18,42.9-31L339,163h-34.6l1.6-11.3h34.6l1.7-11.8H354.2
					 M259.4,139.9L259.4,139.9 M259.4,139.9l-2,14.3h29.8l-1.6,11.3h-29.8l-1.7,12.3h36.6l-1.6,11.3h-31.4
					c6.8,10.7,18.3,20.9,30.1,26.4c-3,2.3-7.3,6.9-9.6,9.9c-10.4-5.9-20.1-15.5-27.2-26.4l-4.3,30.6h-12.1l4.2-30
					c-10.1,10.6-22.6,19.9-34.5,25.8c-1.5-2.9-4.6-7.5-7-9.9c13.5-5.5,27.9-15.7,37.8-26.4h-30.8l1.6-11.3H242l1.7-12.3h-28.9
					l1.6-11.3h28.9l2-14.3H259.4 M57.8,140.4l6.2,9.7c-5,1.4-10.4,2.7-16,3.8l-1.8,13h18.3c0.5-8.7,1.4-17.6,2.6-26.4h11.9
					c-1.4,8.9-2.3,17.9-2.8,26.4H102l-1.5,10.9H75.8c-0.1,5.8,0.1,11.3,0.5,16.3c4-4.1,7.8-8.5,10.9-13.1l9.4,4.3
					c-5.4,7.8-11.7,14.8-18.8,21.1c1.5,7.4,3.9,11.8,6.7,11.8c2,0,3.8-4.6,5.9-16c2.1,2.7,5.5,5.3,8.4,6.5
					c-4.2,16.8-8.3,21.1-16.9,21.1c-6.9,0-11.5-5.8-14.2-15.2c-6.2,4.6-12.7,8.6-19.3,11.7c-1.2-2.7-3.8-6.6-6.2-9.2
					c7.8-3.4,15.8-8.1,23.1-13.6c-1-7.6-1.4-16.4-1.2-25.8H44.7l-1.5,11c5-0.9,10.1-1.8,15-2.7l-0.6,10.4l-16,3.2l-2.3,16.4
					c-0.9,6.3-2.6,9.3-6.7,11.2c-3.7,1.7-8.8,2.2-15.6,2.2c-0.6,0-1.2,0-1.8,0c0-3.2-1.2-8.4-2.4-11.5c2.6,0.1,5.3,0.2,7.6,0.2
					c2.3,0,4.1,0,4.9-0.1c1.7,0,2.4-0.5,2.6-2l2-13.9c-6.3,1.3-12.3,2.5-17.5,3.5L11.2,194c5.5-0.9,12.5-1.9,20.2-3.3l1.8-12.9h-18
					l1.5-10.9h18l1.5-11c-5.3,0.9-10.6,1.5-15.5,2.1c-0.1-2.8-1-7-1.9-9.6C32.5,146.7,47.7,143.6,57.8,140.4 M78.9,140.6L78.9,140.6
					 M90.6,142.5c4.4,4.4,9.8,10.8,11.9,15.3l-10,6.4c-1.9-4.4-6.8-11.3-11.3-15.9L90.6,142.5 M571.4,143l-4.7,33.4h-66.1l4.7-33.4
					H571.4 M558.8,151h-43.6l-0.7,4.9h43.6L558.8,151 M557,163.4h-43.6l-0.7,5h43.6L557,163.4 M484.1,146.2L484.1,146.2
					 M484.1,146.2l-1.7,11.7h-29.6c-2,3-4.4,6-6.8,8.8l-1.4,10l7.9-6c9.1,7.4,22.2,18.5,28,26.1l-10.8,8.8
					c-4.9-7.1-16.3-18.1-25.4-26.1l-7,49.8h-12.4l6.6-46.9c-10,9.3-21.3,17.7-33.6,23.7c-1.4-3.1-4.2-7.8-6.3-10.4
					c18.5-8.2,35.4-23.1,46.3-37.8h-38l1.7-11.7H484.1 M388.4,151.7L388.4,151.7 M287.2,154.2L287.2,154.2 M151.5,155.3L151.5,155.3
					 M666.6,160l-3,21.1h-69.5l3-21.1H666.6 M655.1,167.3h-10.3l-0.9,6.3h10.3L655.1,167.3 M635.4,167.3h-10l-0.9,6.3h10
					L635.4,167.3 M615.9,167.3h-9.8l-0.9,6.3h9.8L615.9,167.3 M319.7,163.5l10.7,2.1c-1.5,3.6-3.1,7-4.9,10.4c3,3,6.2,6.2,8,8.5
					l-8.7,8c-1.2-1.8-3.2-4.2-5.4-6.7c-3.9,5.2-8.1,9.7-12.8,13.2c-1.5-2-5.5-5.8-7.7-7.5C308.2,185.4,315.4,175.3,319.7,163.5
					 M102,167L102,167 M165.3,177.1c3.8,6.6,8.8,15.8,11,21.4l-10.4,6c-1.9-5.8-6.4-15.2-10.1-22.2L165.3,177.1 M575.2,180.7
					L575.2,180.7 M575.2,180.7l-1.4,10.1h-35.3l-1,7.2h29.3l-1.4,9.9H536l-1.3,9.3c2.4,0.2,5,0.3,7.6,0.3c5.3,0,23.6,0,30.4-0.3
					c-1.9,2.6-4.3,7.6-5.3,11h-27.1c-17.4,0-28.9-2.5-35.3-13.7c-4.3,6.3-9.4,11.4-15.5,15.3c-1.3-2.1-5.1-6.3-7.4-8
					c10.6-6.1,17.8-16.3,21.8-29.1l11.1,1.7c-1.1,3.1-2.3,6-3.4,8.8c2,6.5,6.2,10.1,12,12l3.4-24.4h-37.1l1.4-10.1H575.2
					 M669.7,184.3l-2.4,17.1h-11.2l1.2-8.5h-36.5l7.1,1.5c-0.9,0.9-1.8,1.6-2.6,2.4h20.3l2.1-0.5l6.6,4.1
					c-14.1,18.4-40.3,25.8-67.2,28.8c-0.5-2.7-1.8-7.2-3.2-9.7c10-0.8,20-2.1,29.1-4.6c-2.2-2.3-5.1-4.8-7.7-6.6
					c-2.2,0.8-4.5,1.4-6.9,2.1c-0.9-2.5-3.5-6.3-5.4-8c10.8-2.2,18.6-5.6,23.5-9.5h-20.8l-1.2,8.5h-10.7l2.4-17.1H669.7
					 M636.4,204.5H615c3.1,2.2,6.3,4.8,8.3,7C628.3,209.6,632.8,207.3,636.4,204.5 M58.2,186.1L58.2,186.1 M572.7,217.2L572.7,217.2
					 M131.5,132c-3.6,0-6.8,2.5-7.6,6.1c-0.6,2.6-1.6,6-2.8,9.4h-5.3c-3.2,0-6.1,2-7.2,4.9c-3.7-6.5-10.3-13.3-12.4-15.4
					c-1.5-1.5-3.5-2.3-5.5-2.3c-1.4,0-2.9,0.4-4.1,1.2l-1,0.6c-1.4-2.2-3.8-3.6-6.6-3.6h0H67c-1.7,0-3.2,0.5-4.5,1.4
					c-1.4-1-3-1.6-4.7-1.6c-0.8,0-1.6,0.1-2.3,0.4c-9.3,2.9-24.1,6-37.6,7.8c-2.3,0.3-4.4,1.6-5.6,3.6s-1.5,4.4-0.8,6.6
					c0.7,2.2,1.4,5.6,1.5,7.4c0,0.6,0.1,1.1,0.2,1.7c-2.2,1.1-3.8,3.3-4.2,5.9l-1.5,10.9c-0.3,2.2,0.4,4.5,1.8,6.2
					c1.3,1.5,3.1,2.4,5.1,2.6c-0.6,0.1-1.2,0.2-1.7,0.3l-2.7,0.4c-4.1,0.6-7,4.4-6.6,8.5l1.1,11.5c0.2,2.2,1.3,4.2,3.1,5.5
					c0.1,0,0.1,0.1,0.2,0.1c-0.5,0.4-0.9,0.9-1.3,1.4c-1.6,2.1-2,4.9-1,7.3c1,2.6,1.9,6.9,1.9,8.9c0,4.2,3.5,7.7,7.7,7.7
					c0.6,0,1.3,0,1.9,0c8.8,0,14.4-0.9,18.9-2.9c2.4-1.1,4.3-2.5,5.8-4c0.9,1.6,2.4,2.8,4.1,3.4c0.9,0.3,1.7,0.5,2.6,0.5
					c1.2,0,2.3-0.3,3.4-0.8c4.2-2.1,8.4-4.4,12.4-6.9c5.2,9,12.2,11.1,17.7,11.1c8,0,13.2-3.1,16.8-7.9c0.3,0.7,0.7,1.4,1.3,2
					c1.5,1.7,3.6,2.7,5.9,2.7H116c3.9,0,7.2-2.9,7.7-6.7l0-0.3h18.6c2.9,0,5.5-1.6,6.8-4c0.4,1.7,0.6,3.4,0.5,4.5
					c-0.2,2.1,0.5,4.2,2,5.8s3.4,2.5,5.6,2.6c3.2,0.1,5.7,0.2,7.9,0.2c3.5,0,6.2-0.1,8.4-0.4c0.1,0,0.2,0,0.3,0
					c4.6-0.8,9.5-2.3,14.4-7.8c1.5-1.7,2.9-3.8,4.1-6.9c1.7,1.8,4,5.4,5.2,7.6c1.4,2.7,4.1,4.2,6.9,4.2c1.2,0,2.3-0.3,3.4-0.8
					c6.8-3.4,13.8-7.7,20.4-12.8l-1.3,8.9c-0.3,2.2,0.4,4.5,1.8,6.2c1.5,1.7,3.6,2.7,5.9,2.7h12.1c3.9,0,7.2-2.9,7.7-6.7l1.8-12.7
					c5.6,5.8,11.8,10.6,18.2,14.2c1.2,0.7,2.5,1,3.8,1c2.3,0,4.6-1.1,6.2-3c1.3-1.7,3.3-3.9,5.2-5.8c1.2,1.7,2.4,3.6,3,4.9
					c1.4,2.7,4.1,4.3,7,4.3c1,0,2.1-0.2,3.1-0.7c6.9-3,13.7-6.9,20.2-11.6l-1,7c-0.3,2.2,0.4,4.5,1.8,6.2c1.5,1.7,3.6,2.7,5.9,2.7
					h11.9c3.9,0,7.2-2.9,7.7-6.7l1.5-10.9c5.6,5.4,11.9,9.8,18.6,13.1c1.1,0.6,2.3,0.8,3.5,0.8c2.4,0,4.8-1.1,6.3-3.2
					c2-2.7,6-7.1,8.4-9c2.2-1.7,3.3-4.5,2.9-7.3c-0.4-2.8-2.3-5.1-4.9-6.1c-2.9-1.1-5.8-2.6-8.6-4.2c1.2-0.3,2.3-0.9,3.3-1.7
					l4.1-3.6c0.3,0.7,0.7,1.4,1.2,2c1.6,2,4.2,6.1,5.3,8.7c0.9,1.9,2.5,3.4,4.5,4.1c0.9,0.3,1.8,0.5,2.7,0.5c1.2,0,2.3-0.3,3.4-0.8
					c6.6-3.2,13.2-7.2,19.6-11.9l-3.8,27c-0.3,2.2,0.4,4.5,1.8,6.2c1.5,1.7,3.6,2.7,5.9,2.7h12.4c3.9,0,7.2-2.9,7.7-6.7l4.9-35.1
					c6.1,5.9,11,11.2,13.4,14.7c1.2,1.8,3.2,3,5.3,3.3c0.4,0.1,0.7,0.1,1.1,0.1c1.8,0,3.5-0.6,4.9-1.7l10.8-8.8
					c1.5-1.2,2.4-2.8,2.8-4.6c0.5,0.1,1,0.2,1.6,0.2h3.3c-3.6,7.3-8.6,12.9-15,16.5c-2.3,1.3-3.8,3.8-3.9,6.4
					c-0.1,2.7,1.1,5.2,3.3,6.7c1.3,0.9,4.4,4.4,5.3,5.7c1.1,1.8,2.9,3,4.9,3.5c0.6,0.1,1.2,0.2,1.7,0.2c1.5,0,2.9-0.4,4.2-1.2
					c4.2-2.7,8-5.8,11.4-9.5c9.7,8.3,23,9.1,35.1,9.1h27.1c3.4,0,6.4-2.2,7.4-5.5c0.5-1.7,1.5-4,2.6-6c0.7,1.8,1.5,4.4,1.8,6.2
					c0.7,3.8,3.9,6.4,7.7,6.4c0.3,0,0.6,0,0.9,0c32.7-3.6,55.4-12.8,69.3-27.8h10.3c3.9,0,7.2-2.9,7.7-6.7l2.4-17.1
					c0.3-2.2-0.4-4.5-1.8-6.2c-0.9-1.1-2.1-1.9-3.4-2.3l2.1-14.7h0.1c3.9,0,7.2-2.9,7.7-6.7l1.3-9.5c0.3-2.2-0.4-4.5-1.8-6.2
					c-1.5-1.7-3.6-2.7-5.9-2.7h-17.7c-1.1-2.9-4-5-7.3-5h0h-11.3c-2.1,0-4,0.8-5.4,2.2c-1.4-1.4-3.3-2.2-5.4-2.2h0h-11.2
					c-3.3,0-6.1,2-7.3,5h-19c-3.9,0-7.2,2.9-7.7,6.7l-1.4,9.6c-0.3,2.2,0.4,4.5,1.8,6.2c1.3,1.5,3.2,2.5,5.2,2.7l-2,14.2H586
					c-1.3,0-2.6,0.3-3.7,0.9c-1.2-2.7-3.9-4.6-7.1-4.6h0h-0.1l4-28.7c0.3-2.2-0.4-4.5-1.8-6.2c-1.5-1.7-3.6-2.7-5.9-2.7h-66.1
					c-3.9,0-7.2,2.9-7.7,6.7l-4.3,30.9h-2c-3.9,0-7.2,2.9-7.7,6.7l-1.1,7.6c-5.3-5.6-13.1-12.7-23.8-21.4h23.8
					c3.9,0,7.2-2.9,7.7-6.7l1.6-11.5c0.1-0.4,0.1-0.9,0.1-1.3c0-4.3-3.5-7.8-7.8-7.8h0h-82.5c-3.9,0-7.2,2.9-7.7,6.7l-0.1,0.9
					c-1.4-1.3-3.3-2.2-5.4-2.2h0h-26.9l0.4-2.7c0.1-0.4,0.1-0.9,0.1-1.3c0-4.3-3.5-7.8-7.8-7.8h0h-11.9c-3.9,0-7.2,2.9-7.7,6.7
					l-0.7,5.1H306c-3.9,0-7.2,2.9-7.7,6.7l-1.6,11.3c-0.3,2.2,0.4,4.5,1.8,6.2s3.6,2.7,5.9,2.7h3.3c-2.8,4.7-6.1,8.7-9.8,11.7
					l0.5-3.6c0.3-2.2-0.4-4.5-1.8-6.2c-1.2-1.4-2.9-2.3-4.7-2.6c0.7-1,1.2-2.2,1.4-3.5l1.6-11.1c0.1-0.4,0.1-0.9,0.1-1.3
					c0-4.3-3.5-7.8-7.8-7.8h0h-20.8l0.7-5.2c0.1-0.4,0.1-0.9,0.1-1.3c0-4.3-3.5-7.8-7.8-7.8h0h-12.1c-3.9,0-7.2,2.9-7.7,6.7
					l-1.1,7.6h-22.1c-3.9,0-7.2,2.9-7.7,6.7l-1.6,11.3c-0.3,2,0.2,4,1.4,5.6h-2.5c-0.8,0-1.6,0.1-2.4,0.4c0.5-2.9,1-6,1.6-9.2
					c0.3-1.6,0.8-4.9,0.9-5.5c0.3-2.2-0.4-4.5-1.8-6.2c-1.5-1.7-3.6-2.7-5.9-2.7h-14.7c0.2-0.6,0.4-1.1,0.7-1.7
					c0.8-2.1,0.6-4.4-0.4-6.4c-1-2-2.9-3.4-5.1-3.9l-10.4-2.5c-0.6-0.1-1.2-0.2-1.8-0.2c-3.2,0-6.1,1.9-7.3,5
					c-1.4,3.7-3.1,7.4-4.8,11c-0.9-0.4-1.9-0.6-2.9-0.6h0h-2.1c0.4-0.8,0.8-1.7,1.2-2.6c1.1-2.2,1-4.9-0.2-7c-1.2-2.2-3.3-3.7-5.8-4
					l-12.1-1.7C132.2,132,131.8,132,131.5,132L131.5,132z M650.6,147.7L650.6,147.7L650.6,147.7L650.6,147.7z M628.5,147.7
					L628.5,147.7L628.5,147.7L628.5,147.7z M571.4,150.8L571.4,150.8L571.4,150.8L571.4,150.8z M484.1,154L484.1,154L484.1,154
					L484.1,154z M381.3,170.8h5.4c3.9,0,7.2-2.9,7.7-6.7l0.1-0.4c1.4,1.4,3.4,2.2,5.4,2.2h20.9c-8.7,8.8-18.9,16.2-29.1,21.3
					c-0.3-1.5-0.9-2.8-2-3.9c-2.4-2.5-6.1-5.9-9.8-9.2C380.5,172.9,380.9,171.8,381.3,170.8L381.3,170.8z M666.6,167.8L666.6,167.8
					L666.6,167.8L666.6,167.8z M171.8,172.8h5.1c-0.4,2.1-0.8,4.4-1.2,6.8c-1.3-2.4-2.6-4.6-3.6-6.4
					C172,173.1,171.9,172.9,171.8,172.8L171.8,172.8z M575.2,188.5L575.2,188.5L575.2,188.5L575.2,188.5z M96.8,197.9
					c2.2-2.6,4.2-5.3,6.1-8.1c0.1-0.1,0.1-0.1,0.1-0.2l-1.7,11.9C99.8,200.7,98,199.2,96.8,197.9L96.8,197.9z M669.7,192.1
					L669.7,192.1L669.7,192.1L669.7,192.1z M196.5,207.5c0.8-3.6,1.7-7.7,2.6-12.5c1.4,1.3,3.3,2,5.2,2h10.2
					C208.7,201.2,202.5,204.8,196.5,207.5L196.5,207.5z M151.5,210.7l2.1-15.2c2.2,4.7,3.9,8.7,4.8,11.3c0.4,1.3,1.1,2.4,2,3.3
					c-1.4-0.1-2.9-0.2-4.4-0.3c-0.2,0-0.5,0-0.7,0C154,209.7,152.7,210,151.5,210.7L151.5,210.7z M274.4,197h14.7
					c1.3,0,2.5-0.3,3.6-0.9c0.4,0.5,0.9,1,1.5,1.5c1.9,1.5,5.3,4.7,6.3,6c0.1,0.1,0.2,0.3,0.3,0.4c-3.2,1.7-6.5,3.2-9.7,4.5
					C285.2,205.8,279.4,201.7,274.4,197L274.4,197z M574.5,198.5c0.6-0.1,1.1-0.2,1.6-0.3l-0.3,2.2c-0.3,2.2,0.4,4.5,1.8,6.2
					c1.5,1.7,3.6,2.7,5.9,2.7h4.9c0.4,0.5,1,1.3,1.4,2c-2.2,0.2-4.4,0.4-6.8,0.6c-1.4,0.1-2.6,0.6-3.7,1.3c-1.3-2.2-3.7-3.6-6.4-3.7
					c0-0.1,0.1-0.3,0.1-0.4l1.4-9.9C574.5,198.9,574.5,198.7,574.5,198.5L574.5,198.5z"/>
			</g>
			
				<linearGradient id="SVGID_1_" gradientUnits="userSpaceOnUse" x1="335.1151" y1="242.5517" x2="335.1151" y2="138.1598" gradientTransform="matrix(1 0 -0.1422 1.0109 32.475 -2.4981)">
				<stop  offset="0.4624" style="stop-color:#F2FF94"/>
				<stop  offset="0.4675" style="stop-color:#F3FF98"/>
				<stop  offset="0.5402" style="stop-color:#F9FFD0"/>
				<stop  offset="0.5944" style="stop-color:#FDFFF2"/>
				<stop  offset="0.6237" style="stop-color:#FFFFFF"/>
			</linearGradient>
			<path class="st5" d="M96.5,185.4c-5.4,7.8-11.7,14.8-18.8,21.1c1.5,7.4,3.9,11.8,6.7,11.8c2,0,3.8-4.6,5.9-16
				c2.1,2.7,5.5,5.3,8.4,6.5c-4.2,16.8-8.3,21.1-16.9,21.1c-6.9,0-11.5-5.8-14.2-15.2c-6.2,4.6-12.7,8.6-19.3,11.7
				c-1.2-2.7-3.8-6.6-6.2-9.2c7.8-3.4,15.8-8.1,23.1-13.6c-1-7.6-1.4-16.4-1.2-25.8H44.7l-1.5,11c5-0.9,10.1-1.8,15-2.7l-0.6,10.4
				l-16,3.2l-2.3,16.4c-0.9,6.3-2.6,9.3-6.7,11.2c-4,1.8-9.7,2.3-17.4,2.2c0-3.2-1.2-8.4-2.4-11.5c5.3,0.3,10.8,0.2,12.5,0.1
				c1.7,0,2.4-0.5,2.6-2l2-13.9c-6.3,1.3-12.3,2.5-17.5,3.5L11.2,194c5.5-0.9,12.5-1.9,20.2-3.3l1.8-12.9h-18l1.5-10.9h18l1.5-11
				c-5.3,0.9-10.6,1.5-15.5,2.1c-0.1-2.8-1-7-1.9-9.6c13.6-1.8,28.8-4.9,38.9-8.1l6.2,9.7c-5,1.4-10.4,2.7-16,3.8l-1.8,13h18.3
				c0.5-8.7,1.4-17.6,2.6-26.4h11.9c-1.4,8.9-2.3,17.9-2.8,26.4H102l-1.5,10.9H75.8c-0.1,5.8,0.1,11.3,0.5,16.3
				c4-4.1,7.8-8.5,10.9-13.1L96.5,185.4z M92.5,164.2c-1.9-4.4-6.8-11.3-11.3-15.9l9.4-5.9c4.4,4.4,9.8,10.8,11.9,15.3L92.5,164.2z
				 M198.3,154.6c0,0-0.5,3.8-0.8,5.2c-7.3,43-10.5,58.3-15.1,63.4c-3.2,3.6-6,4.6-9.9,5.3c-3.7,0.5-9.4,0.4-15,0.2
				c0.3-3.2-0.6-8-2.1-11.2c6,0.6,11.6,0.6,14.1,0.6c1.9,0,3-0.4,4.4-1.6c3.2-3.1,6.5-17.5,12.3-51.5h-20.4
				c-3.3,5.8-7,11.1-10.5,15.2c-1.3-1.4-4.2-3.7-6.6-5.4l-6.3,44.9H117l-1,7h-10.3l10.1-71.5h10.8c1.9-4.8,3.9-11,4.9-15.5l12.1,1.7
				c-2.3,4.8-4.7,9.6-6.9,13.8h14.7l-2.2,15.6c6.7-8.1,12.9-19.7,17.2-31l10.4,2.5c-1.5,4.1-3.4,8.2-5.4,12.2H198.3z M139.8,165.3
				h-15.1l-2.2,15.6h15.1L139.8,165.3z M133.5,209.6l2.7-18.9h-15.1l-2.7,18.9H133.5z M165.9,204.4c-1.9-5.8-6.4-15.2-10.1-22.2
				l9.6-5.1c3.8,6.6,8.8,15.8,11,21.4L165.9,204.4z M257.7,189.2c6.8,10.7,18.3,20.9,30.1,26.4c-3,2.3-7.3,6.9-9.6,9.9
				c-10.4-5.9-20.1-15.5-27.2-26.4l-4.3,30.6h-12.1l4.2-30c-10.1,10.6-22.6,19.9-34.5,25.8c-1.5-2.9-4.6-7.5-7-9.9
				c13.5-5.5,27.9-15.7,37.8-26.4h-30.8l1.6-11.3H242l1.7-12.3h-28.9l1.6-11.3h28.9l2-14.3h12.1l-2,14.3h29.8l-1.6,11.3h-29.8
				l-1.7,12.3h36.6l-1.6,11.3H257.7z M375.1,196.4c-2.2-3-6.5-7.2-10.7-11.2c-2.3,3.2-4.8,6-7.5,8.3c-1.4-1.3-4.3-3.5-6.7-4.9
				c6.9,11.3,19,21.5,32.6,26.8c-3.1,2.4-7.5,7.3-9.8,10.5c-10.8-5.4-20.3-14-27.4-24.3l-3.9,28h-11.9l3.9-27.4
				c-10,10.1-21.8,18.5-33.9,23.8c-1.4-2.8-4.5-7.4-6.6-9.8c16.3-6.1,32.8-18,42.9-31L339,163h-34.6l1.6-11.3h34.6l1.7-11.8h11.9
				l-1.7,11.8h35.9l-1.6,11.3h-35.9l-3,21.5c0.4,0.8,0.7,1.4,1.1,2.2c6.9-5.5,12.1-14,15.2-23.2l10.8,2c-1.4,3.6-2.9,7-4.6,10.3
				c4.8,4.2,10.7,9.3,13.7,12.6L375.1,196.4z M330.5,165.6c-1.5,3.6-3.1,7-4.9,10.4c3,3,6.2,6.2,8,8.5l-8.7,8
				c-1.2-1.8-3.2-4.2-5.4-6.7c-3.9,5.2-8.1,9.7-12.8,13.2c-1.5-2-5.5-5.8-7.7-7.5c9.2-6.1,16.4-16.2,20.8-27.9L330.5,165.6z
				 M452.6,170.8c9.1,7.4,22.2,18.5,28,26.1l-10.8,8.8c-4.9-7.1-16.3-18.1-25.4-26.1l-7,49.8h-12.4l6.6-46.9
				c-10,9.3-21.3,17.7-33.6,23.7c-1.4-3.1-4.2-7.8-6.3-10.4c18.5-8.2,35.4-23.1,46.3-37.8h-38l1.7-11.7h82.5l-1.7,11.7h-29.6
				c-2,3-4.4,6-6.8,8.8l-1.4,10L452.6,170.8z M534.7,217.2c2.4,0.2,5,0.3,7.6,0.3c5.3,0,23.6,0,30.4-0.3c-1.9,2.6-4.3,7.6-5.3,11
				h-27.1c-17.4,0-28.9-2.5-35.3-13.7c-4.3,6.3-9.4,11.4-15.5,15.3c-1.3-2.1-5.1-6.3-7.4-8c10.6-6.1,17.8-16.3,21.8-29.1l11.1,1.7
				c-1.1,3.1-2.3,6-3.4,8.8c2,6.5,6.2,10.1,12,12l3.4-24.4h-37.1l1.4-10.1h83.9l-1.4,10.1h-35.3l-1,7.2h29.3l-1.4,9.9H536
				L534.7,217.2z M566.7,176.4h-66.1l4.7-33.4h66.1L566.7,176.4z M558.8,151h-43.6l-0.7,4.9h43.6L558.8,151z M557,163.4h-43.6
				l-0.7,5h43.6L557,163.4z M615.2,154.5h-25.6l1.4-9.6h25.6l0.7-5h11.2l-2.5,18.1h-11.2L615.2,154.5z M586,184.3h83.7l-2.4,17.1
				h-11.2l1.2-8.5h-36.5l7.1,1.5c-0.9,0.9-1.8,1.6-2.6,2.4h20.3l2.1-0.5l6.6,4.1c-14.1,18.4-40.3,25.8-67.2,28.8
				c-0.5-2.7-1.8-7.2-3.2-9.7c10-0.8,20-2.1,29.1-4.6c-2.2-2.3-5.1-4.8-7.7-6.6c-2.2,0.8-4.5,1.4-6.9,2.1c-0.9-2.5-3.5-6.3-5.4-8
				c10.8-2.2,18.6-5.6,23.5-9.5h-20.8l-1.2,8.5h-10.7L586,184.3z M597.1,160h69.5l-3,21.1h-69.5L597.1,160z M605.2,173.6h9.8
				l0.9-6.3h-9.8L605.2,173.6z M615,204.5c3.1,2.2,6.3,4.8,8.3,7c4.9-1.9,9.4-4.2,13.1-7H615z M624.5,173.6h10l0.9-6.3h-10
				L624.5,173.6z M675.6,144.9l-1.3,9.5h-25.7l-0.5,3.6h-11.3l2.5-18.1h11.3l-0.7,5H675.6z M643.9,173.6h10.3l0.9-6.3h-10.3
				L643.9,173.6z"/>
		</g>
	</g>
</g>
</svg>
