<?xml version="1.0" encoding="utf-8"?>
<!-- Generator: Adobe Illustrator 19.2.0, SVG Export Plug-In . SVG Version: 6.00 Build 0)  -->
<svg version="1.1" id="圖層_1" xmlns="http://www.w3.org/2000/svg" xmlns:xlink="http://www.w3.org/1999/xlink" x="0px" y="0px"
	 viewBox="0 0 349.3 229" style="enable-background:new 0 0 349.3 229;" xml:space="preserve">
<style type="text/css">
	.st0{opacity:0.35;}
	.st1{fill:#FDDDBF;}
	.st2{fill:#F7F9F8;}
	.st3{fill:#ECEDED;}
	.st4{fill:#F9F8F8;}
	.st5{fill:#E4E5E1;}
	.st6{fill:#FEF8F7;}
	.st7{fill:#543F2A;}
	.st8{fill:#FFDBC1;}
	.st9{fill:#F0ECE8;}
	.st10{fill:#F17B84;}
</style>
<g>
	<g class="st0">
		<path d="M265.7,128.5c13.5-2.7,44.2-14.1,44.2-14.1c-1.5-9.2-4-20.4-8.6-32.7c-4.1-11.1-8.9-20.3-13.3-27.8
			c-10.7,5-23.8,10.1-38.9,14c-9.6,2.5-18.6,4.1-26.7,5.2c0.5,3.5,1,7.1,1.4,11c0.4,4.4,0.6,8.5,0.7,12.4c-3.1-2.8-7.5-2-9.1,0.5
			c-1.3,2-0.9,5.4,1.6,7.1c2.1,1.5,5.1,1.2,7-0.8c-0.7,4.8-2.3,11.5-5.8,18.7c-2.6,5.4-5.7,9.7-8.3,12.9
			C233.7,135.3,252.2,131.2,265.7,128.5z M280,80.9c3.6-3.8,7.1-7.6,10.7-11.5c0.3-0.1,0.6-0.1,0.8,0c0.3,0.2,0.3,0.7,0,1.1
			c-2.6,3.2-5.2,6.5-7.8,9.7c-0.2,0.3-0.1,0.7,0.3,0.8l12.4,3.5c0.2,0.1,0.3,0.3,0.2,0.5c-0.1,0.2-0.3,0.4-0.5,0.3
			c-5.3-0.9-10.6-1.8-15.9-2.7c-0.1-0.1-0.3-0.2-0.5-0.5C279.4,81.8,279.6,81.3,280,80.9z M271.6,99.9c1.8-1.2,8.6-5.5,13.5-2.4
			c3.2,2,3.9,6,4.1,7.3c-3.4,0.1-7.7,0.6-12.5,1.9c-6,1.6-10.7,3.9-14,5.9C263.3,110.2,265.5,103.8,271.6,99.9z M244.3,83.8l20,1.1
			c0,0,0.5,0.2,0.6,0.6c0.1,0.4-0.1,0.8-0.1,0.8c-5,4.3-10,8.7-14.9,13c-0.3,0.1-0.7,0-0.9-0.2c-0.2-0.3-0.2-0.6-0.2-0.7
			c4-3.8,8.1-7.5,12.1-11.3c0.2-0.2,0.1-0.5-0.2-0.5l-16.4-2.1c0,0-0.2-0.1-0.2-0.3C244,84.1,244.1,83.9,244.3,83.8z"/>
		<path d="M111.6,116c-2.2-3.2-4.4-6.2-6.5-8.9c-1.2-1.3-2.6-2.7-4.3-4.1c-2.5-2.1-4.9-3.6-7-4.7c-1.7,3-4.6,7.2-9.1,11.3
			c-5.6,5-11.4,7.5-15,8.8c2.9,0.9,7,2.6,11.3,5.9c3.3,2.5,7.6,7.5,7.6,7.5l28.7-7C115.5,122,113.7,119,111.6,116z"/>
		<path d="M117.2,124.8l1.4-0.3c-1.6-4.2-2.7-6.2-4.6-9.2c-2-3.1-4.1-5.8-6.1-8.4c-1.1,0.2-2.1,0.2-2.8,0.2c2.1,2.7,4.3,5.7,6.5,8.9
			C113.7,119,115.5,122,117.2,124.8z"/>
		<path d="M118.6,124.4l9.3-2.3c-0.3-3-1.1-6.8-2.7-11.2c-1.7-4.4-3.8-7.9-5.5-10.4c-1.1,1.2-3,3-5.9,4.4c-2.2,1.1-4.3,1.6-6,1.8
			c2,2.6,4.2,5.3,6.1,8.4C116,118.3,117.1,120.2,118.6,124.4z"/>
		<path d="M314.3,126.4l-4.4-12c0.7,4,1.5,8,2.2,12C312.6,126.4,313.4,126.4,314.3,126.4z"/>
		<path d="M317.1,126.3l-0.1-10.7c-2.3-0.1-4.6-0.5-7.1-1.2l4.4,12C315.1,126.4,316,126.4,317.1,126.3z"/>
		<path d="M320.3,175.3c-2.7-16.3-5.4-32.6-8.1-48.9c-0.7-4-1.5-8-2.2-12c0,0-30.7,11.4-44.2,14.1c-13.5,2.7-32,6.8-55.8,6.4
			c-2.5,0.4-5,0.8-7.6,1.2c0.5,1.5,0.9,3.2,1.3,4.9c0.4,1.9,0.7,3.6,0.9,5.3c2.9-0.4,5.7-0.7,8.4-0.9c4.2,10.6,8.3,22,12.2,34.2
			c1.8,5.6,3.4,10.8,4.8,15.9c7.4,0,24.5-0.8,48-6.9C309.7,180.4,320.3,175.3,320.3,175.3z M254.8,169.8c-3.2-3-6.5-6.1-9.7-9.1
			l1-0.9c-0.2-0.2-0.4-0.3-0.5-0.5l8.8-8.5c6.5,1.3,11.8,0.5,14.8-0.1c4.1-0.9,8.3-1.8,11.7-5.5c2.8-3.1,3.7-6.6,4.1-8.6
			c-1.4-1.2-2.7-2.4-4.1-3.6l1.2-3.6l7.8-2l2.7,3.3l-2.1,4.3c-0.1,2-0.4,5.4-1.6,9.3c-1,3.7-2.8,7.9-6,11.8
			c-4.8,5.9-10.6,8.5-14.1,10C263.1,168.5,258.1,169.4,254.8,169.8z"/>
		<path d="M223.9,103.3c-1.8,1.9-4.8,2.3-7,0.8c-2.5-1.7-2.9-5.1-1.6-7.1c1.6-2.5,6-3.2,9.1-0.5c-0.1-3.9-0.3-8-0.7-12.4
			c-0.4-3.9-0.8-7.5-1.4-11c8.2-1.1,17.2-2.8,26.7-5.2c15.2-3.9,28.2-9,38.9-14c3.3-1.5,6.5-3.1,9.8-4.6
			c-2.8-6.9-9.7-20.6-24.5-28.1c-26.7-13.4-63.6,1.4-72.8,22.7c-0.8,1.9-1.3,3.6-1.6,4.9c-0.4-0.1-1.8-0.5-2.7-1.8
			c-0.7-1-0.8-2-0.8-2.4c-0.3,0.7-1,2.2-0.9,4.2c0.1,1.5,0.7,2.7,1,3.3c-0.6-0.1-1.3-0.1-2.1,0.2c-2.7,0.9-3.5,4-3.6,4.3
			c0.3-0.2,1.4-0.8,2.7-0.5c0.4,0.1,0.8,0.3,1,0.5c-1,0.6-2.4,1.6-3.7,3.2c-3.8,4.6-3.7,10.6-3.3,15.1c1.5,15.9,8.4,31.3,10.5,35.7
			c2.9,6.3,7.1,14.7,12.9,24.4c2.6-3.2,5.6-7.4,8.3-12.9C221.7,114.8,223.2,108.2,223.9,103.3z"/>
		<path d="M335.9,120c1.9-1.7,3.2-3.5,3.3-3.6c3.2-4.6,3.3-9.5,3.3-13.6c0.1-8.8-2.7-15.7-4.7-20.6c-0.8-2-1.5-3.5-2.1-4.7
			c-0.1-1.4-1.2-2.3-2.1-2.2c-0.6,0.1-1.2,0.6-1.4,1.3c-0.3-0.6-1-0.9-1.6-0.6c-0.6,0.2-1,1-0.7,1.7c-0.6-0.7-1.5-0.8-2.1-0.4
			c-0.5,0.3-0.7,0.9-0.7,1.5c-0.4-0.8-1.3-1.2-2-1c-0.8,0.3-1.3,1.5-0.8,2.5c1.2,1.7,2.7,4.1,4,7.3c1.3,3,3.3,7.8,3.1,13.9
			c-0.1,3.5-0.2,6.7-2.2,9.3c-2.4,3.2-7,4.7-12.3,4.5l0.1,10.7C322.5,126,330.5,124.7,335.9,120z"/>
		<path d="M348.5,185c-0.1-0.4-0.4-3-2.2-3.7c-1.3-0.6-2.7,0.1-3.7,0.6c-0.6,0.3-2.1,1.1-4.3,4c-0.9,1.2-2.2,3-3.3,5.4
			c0.6-5.7,0.5-10.4,0.3-13.8c-0.3-4.1-0.7-5.2-1.5-5.9c-3.5-3-12.7,3.3-13.5,3.8c0,0-10.5,5.1-42.4,13.4c-23.4,6.1-40.6,6.9-48,6.9
			c1.4,4.8,2.7,9.6,3.9,14.4c-3.4-0.8-6.7-0.7-10.1-1.5c-3.9,7-4.8,13.3-2.2,15.7c1.4,1.3,4.2,1.8,5.5,0.7c1.6-1.3,0.9-4.7,0.5-6.9
			c-0.3-1.4-0.7-2.6-1-3.4c1.7,0.9,4.4,2.1,7.9,2.7c2.7,0.4,4.7,0.8,6-0.3c1.7-1.4,1.5-4.1,1.1-8.3c-0.2-2.2-0.7-5.3-1.9-9
			c11.7-0.3,25.7-1.5,41.3-4.7c19-4,34.9-9.8,47.2-15.4c0.2,2.9,0.4,5.9,0.8,9c0.5,4.4,1.1,8.5,1.8,12.5c3.4-0.7,8.1-2.2,12.2-6
			C344.8,193.2,349.1,189.3,348.5,185z"/>
		<path d="M282.8,156c3.2-4,5-8.2,6-11.8c-1,3.3-2.8,6.9-5.6,10.4c-4.8,5.9-10.6,8.5-14.1,10c-5.5,2.5-10.5,3.4-13.9,3.7
			c-3.1-2.9-6.1-5.8-9.2-8.6l-1,0.9c3.2,3,6.5,6.1,9.7,9.1c3.4-0.4,8.3-1.2,13.9-3.7C272.1,164.5,278,161.9,282.8,156z"/>
		<path d="M289.8,127.3l-7.8,2l-1.2,3.6c1.4,1.2,2.7,2.4,4.1,3.6c-0.3,1.9-1.2,5.5-4.1,8.6c-3.4,3.7-7.6,4.6-11.7,5.5
			c-3,0.7-8.2,1.4-14.8,0.1l-8.8,8.5c0.2,0.2,0.4,0.3,0.5,0.5c3.1,2.9,6.1,5.8,9.2,8.6c3.4-0.4,8.3-1.2,13.9-3.7
			c3.5-1.6,9.3-4.2,14.1-10c2.8-3.4,4.5-7.1,5.6-10.4c1.2-3.9,1.6-7.3,1.6-9.3l2.1-4.3L289.8,127.3z"/>
		<path d="M276.7,106.7c4.8-1.3,9.1-1.7,12.5-1.9c-0.2-1.3-0.9-5.3-4.1-7.3c-5-3.1-11.7,1.2-13.5,2.4c-6.2,3.9-8.3,10.3-9,12.7
			C266,110.6,270.7,108.3,276.7,106.7z"/>
		<path d="M244.3,84.6l16.4,2.1c0.3,0,0.4,0.4,0.2,0.5c-4,3.8-8.1,7.5-12.1,11.3c0,0-0.1,0.4,0.2,0.7c0.2,0.2,0.5,0.3,0.9,0.2
			c5-4.3,10-8.7,14.9-13c0,0,0.3-0.4,0.1-0.8c-0.1-0.5-0.5-0.6-0.6-0.6l-20-1.1c-0.2,0.1-0.2,0.3-0.2,0.5
			C244.1,84.5,244.2,84.6,244.3,84.6z"/>
		<path d="M280,82.6c5.3,0.9,10.6,1.8,15.9,2.7c0.2,0,0.5-0.1,0.5-0.3c0-0.2,0-0.4-0.2-0.5L283.9,81c-0.3-0.1-0.5-0.5-0.3-0.8
			c2.6-3.2,5.2-6.5,7.8-9.7c0.3-0.4,0.3-0.9,0-1.1c-0.2-0.2-0.5-0.2-0.8,0c-3.6,3.8-7.1,7.6-10.7,11.5c-0.4,0.4-0.6,0.9-0.4,1.3
			C279.7,82.4,279.9,82.6,280,82.6z"/>
		<path d="M31.5,113.9c4-1.5,9.2-3.9,14.6-7.8c4.5-3.2,8-6.6,10.5-9.5c-2.9-1.1-10.6-4.5-16.2-12.9c-6.4-9.5-6-19.1-5.8-22
			c-2.4,3-7.4,8.5-15.6,12.2c-6.5,2.9-12.3,3.6-15.9,3.7c1.8,5.5,5.4,14.3,12.9,23C21.4,107.1,27.2,111.3,31.5,113.9z"/>
		<path d="M38.3,137.6c-14.2-2.9-25.8,0.4-31.1,2.4c1.5,4,3.4,10.6,3.4,19c-0.1,8-1.9,14.3-3.4,18.3c3.1-2,15.2-9.1,30.8-6.4
			c9.4,1.6,16,6.2,19.3,8.8c1.4-3.3,3-8.3,3.4-14.6c0.5-8.9-1.8-15.8-3.4-19.6C53.1,142.8,46.7,139.4,38.3,137.6z"/>
		<path d="M160.8,202.6c-0.8-2.7-3.3-4.5-6-4.4c-2.9,0.1-5.4,2.6-5.6,5.6c-4,0.6-6.8,4.1-6.5,7.9c0.2,3.4,2.8,6.3,6.3,7
			c1.8,2.8,5.2,4.1,8.3,3.3c3.1-0.8,5.4-3.5,5.6-6.8c3.5-0.9,5.6-4.4,4.9-7.7C167.1,204.5,164.1,202.3,160.8,202.6z"/>
		<path d="M192.6,205.9c-2.8-2.1-6.6-1.8-8.8,0.6c-1.9,2.1-2.2,5.3-0.7,7.9c-1.1,1.6-1.2,3.6-0.3,5.1c1.2,2,4.1,2.9,6.7,1.6
			c1.8,1.3,4.1,1.3,5.6,0.1c1.9-1.4,1.8-3.7,1.8-3.9c0.5-0.4,1.3-1,1.9-2.1c0.1-0.2,1.3-2.5,0.6-4.9
			C198.6,207.7,195.8,205.9,192.6,205.9z"/>
		<path d="M152.8,13.9c2.6,2.4,8,2.1,12.9-1.5c-2.4-4.9-6.3-8-10-7.6c-0.4,0-3.4,0.4-4.6,2.7C150.1,9.7,151.3,12.6,152.8,13.9z"/>
		<path d="M136.3,29.2c2.6,2.4,8,2.1,12.9-1.5c-2.4-4.9-6.3-8-10-7.6c-0.4,0-3.4,0.4-4.6,2.7C133.5,25,134.8,27.8,136.3,29.2z"/>
		<path d="M128.1,50.3c2.6,2.4,8,2.1,12.9-1.5c-2.4-4.9-6.3-8-10-7.6c-0.4,0-3.4,0.4-4.6,2.7C125.4,46.1,126.6,49,128.1,50.3z"/>
		<path d="M155.9,38.6c-0.4,0-3.4,0.4-4.6,2.7c-1.1,2.2,0.2,5.1,1.7,6.4c2.6,2.4,8,2.1,12.9-1.5C163.5,41.3,159.6,38.3,155.9,38.6z"
			/>
		<path d="M163.7,25.8c-1.1,2.2,0.2,5.1,1.7,6.4c2.6,2.4,8,2.1,12.9-1.5c-2.4-4.9-6.3-8-10-7.6C167.9,23.1,164.8,23.5,163.7,25.8z"
			/>
		<path d="M144.9,164.5c-1.3,0.1-2.5,0.2-3.8,0.3c-1.3-5.7-2.6-11.5-3.8-17.2c1.5-0.2,3-0.4,4.5-0.6c0.1,0.9,0.2,1.7,0.2,2.6
			l3.6-1.2c-0.6-2.1-1.1-4.1-1.7-6.2c-2.6,0.8-5.2,1.7-7.8,2.5c-1.6-7.7-3.2-15.3-4.7-23c-1.2,0.2-2.3,0.4-3.5,0.6l-9.3,2.3
			c0.1,0.3,0.2,0.7,0.4,1c-0.1-0.4-0.2-0.7-0.4-1l-1.4,0.3c0,0.1,0.1,0.1,0.1,0.2c0-0.1-0.1-0.1-0.1-0.2l-28.7,7c0,0-2.3,0.6-3.3,1
			c4.8,22.4,9.7,44.9,14.5,67.3c15.6-2.7,31.1-5.5,46.7-8.2c-1.5-8-3-15.9-4.6-23.9c2.6-0.6,5.3-1.2,7.9-1.8c-0.5-2.1-1-4.3-1.5-6.4
			l-3.3,1C145,162,144.9,163.2,144.9,164.5z"/>
		<path d="M204.5,146.4c-0.2-1.7-0.5-3.4-0.9-5.3c-0.4-1.8-0.8-3.4-1.3-4.9c-7.4,1.2-15,2.6-22.9,4.2c-11.9,2.4-23.1,5.2-33.7,8
			l-3.6,1.2c-0.7,0.1-1.2,0.7-1.2,1.4c0,0.7,0.7,1.3,1.4,1.2c-0.9,0.2-1.5,1-1.4,1.8c0.1,0.7,0.9,1.3,1.7,1.3c0.1,0,0.3-0.1,0.4-0.1
			c-0.2,0-0.3,0-0.4,0.1c-0.8,0.2-1.3,1-1.1,1.6c0.1,0.7,0.9,1.2,1.8,1.1c-0.8,0.5-1.2,1.4-1.1,2c0.2,0.8,1.6,1.4,2.8,0.8l3.3-1
			c9.8-3.5,21.1-6.9,33.8-9.6C190,148.5,197.5,147.2,204.5,146.4z"/>
	</g>
	<g>
		<g>
			<g>
				<path class="st1" d="M263.5,126.3c13.5-2.7,44.2-14.1,44.2-14.1c-1.5-9.2-4-20.4-8.6-32.7c-4.1-11.1-8.9-20.3-13.3-27.8
					c-10.7,5-23.8,10.1-38.9,14c-9.6,2.5-18.6,4.1-26.7,5.2c0.5,3.5,1,7.1,1.4,11c0.4,4.4,0.6,8.5,0.7,12.4c-3.1-2.8-7.5-2-9.1,0.5
					c-1.3,2-0.9,5.4,1.6,7.1c2.1,1.5,5.1,1.2,7-0.8c-0.7,4.8-2.3,11.5-5.8,18.7c-2.6,5.4-5.7,9.7-8.3,12.9
					C231.5,133.1,250,129,263.5,126.3z M277.8,78.7c3.6-3.8,7.1-7.6,10.7-11.5c0.3-0.1,0.6-0.1,0.8,0c0.3,0.2,0.3,0.7,0,1.1
					c-2.6,3.2-5.2,6.5-7.8,9.7c-0.2,0.3-0.1,0.7,0.3,0.8l12.4,3.5c0.2,0.1,0.3,0.3,0.2,0.5c-0.1,0.2-0.3,0.4-0.5,0.3
					c-5.3-0.9-10.6-1.8-15.9-2.7c-0.1-0.1-0.3-0.2-0.5-0.5C277.2,79.6,277.4,79.1,277.8,78.7z M269.4,97.7c1.8-1.2,8.6-5.5,13.5-2.4
					c3.2,2,3.9,6,4.1,7.3c-3.4,0.1-7.7,0.6-12.5,1.9c-6,1.6-10.7,3.9-14,5.9C261.2,108,263.3,101.7,269.4,97.7z M242.1,81.6l20,1.1
					c0,0,0.5,0.2,0.6,0.6c0.1,0.4-0.1,0.8-0.1,0.8c-5,4.3-10,8.7-14.9,13c-0.3,0.1-0.7,0-0.9-0.2c-0.2-0.3-0.2-0.6-0.2-0.7
					c4-3.8,8.1-7.5,12.1-11.3c0.2-0.2,0.1-0.5-0.2-0.5l-16.4-2.1c0,0-0.2-0.1-0.2-0.3C241.8,81.9,241.9,81.8,242.1,81.6z"/>
				<path class="st2" d="M109.4,113.8c-2.2-3.2-4.4-6.2-6.5-8.9c-1.2-1.3-2.6-2.7-4.3-4.1c-2.5-2.1-4.9-3.6-7-4.7
					c-1.7,3-4.6,7.2-9.1,11.3c-5.6,5-11.4,7.5-15,8.8c2.9,0.9,7,2.6,11.3,5.9c3.3,2.5,7.6,7.5,7.6,7.5l28.7-7
					C113.3,119.8,111.5,116.8,109.4,113.8z"/>
				<path class="st3" d="M115,122.6l1.4-0.3c-1.6-4.2-2.7-6.2-4.6-9.2c-2-3.1-4.1-5.8-6.1-8.4c-1.1,0.2-2.1,0.2-2.8,0.2
					c2.1,2.7,4.3,5.7,6.5,8.9C111.5,116.8,113.3,119.8,115,122.6z"/>
				<path class="st4" d="M116.4,122.3l9.3-2.3c-0.3-3-1.1-6.8-2.7-11.2c-1.7-4.4-3.8-7.9-5.5-10.4c-1.1,1.2-3,3-5.9,4.4
					c-2.2,1.1-4.3,1.6-6,1.8c2,2.6,4.2,5.3,6.1,8.4C113.8,116.1,114.9,118,116.4,122.3z"/>
				<path class="st5" d="M312.1,124.2l-4.4-12c0.7,4,1.5,8,2.2,12C310.4,124.2,311.2,124.2,312.1,124.2z"/>
				<path class="st6" d="M314.9,124.1l-0.1-10.7c-2.3-0.1-4.6-0.5-7.1-1.2l4.4,12C312.9,124.2,313.8,124.2,314.9,124.1z"/>
				<path class="st2" d="M318.1,173.1c-2.7-16.3-5.4-32.6-8.1-48.9c-0.7-4-1.5-8-2.2-12c0,0-30.7,11.4-44.2,14.1
					c-13.5,2.7-32,6.8-55.8,6.4c-2.5,0.4-5,0.8-7.6,1.2c0.5,1.5,0.9,3.2,1.3,4.9c0.4,1.9,0.7,3.6,0.9,5.3c2.9-0.4,5.7-0.7,8.4-0.9
					c4.2,10.6,8.3,22,12.2,34.2c1.8,5.6,3.4,10.8,4.8,15.9c7.4,0,24.5-0.8,48-6.9C307.5,178.2,318.1,173.1,318.1,173.1z
					 M252.6,167.6c-3.2-3-6.5-6.1-9.7-9.1l1-0.9c-0.2-0.2-0.4-0.3-0.5-0.5l8.8-8.5c6.5,1.3,11.8,0.5,14.8-0.1
					c4.1-0.9,8.3-1.8,11.7-5.5c2.8-3.1,3.7-6.6,4.1-8.6c-1.4-1.2-2.7-2.4-4.1-3.6l1.2-3.6l7.8-2l2.7,3.3l-2.1,4.3
					c-0.1,2-0.4,5.4-1.6,9.3c-1,3.7-2.8,7.9-6,11.8c-4.8,5.9-10.6,8.5-14.1,10C260.9,166.3,256,167.2,252.6,167.6z"/>
				<path class="st7" d="M221.8,101.2c-1.8,1.9-4.8,2.3-7,0.8c-2.5-1.7-2.9-5.1-1.6-7.1c1.6-2.5,6-3.2,9.1-0.5
					c-0.1-3.9-0.3-8-0.7-12.4c-0.4-3.9-0.8-7.5-1.4-11c8.2-1.1,17.2-2.8,26.7-5.2c15.2-3.9,28.2-9,38.9-14c3.3-1.5,6.5-3.1,9.8-4.6
					c-2.8-6.9-9.7-20.6-24.5-28.1c-26.7-13.4-63.6,1.4-72.8,22.7c-0.8,1.9-1.3,3.6-1.6,4.9c-0.4-0.1-1.8-0.5-2.7-1.8
					c-0.7-1-0.8-2-0.8-2.4c-0.3,0.7-1,2.2-0.9,4.2c0.1,1.5,0.7,2.7,1,3.3c-0.6-0.1-1.3-0.1-2.1,0.2c-2.7,0.9-3.5,4-3.6,4.3
					c0.3-0.2,1.4-0.8,2.7-0.5c0.4,0.1,0.8,0.3,1,0.5c-1,0.6-2.4,1.6-3.7,3.2c-3.8,4.6-3.7,10.6-3.3,15.1
					c1.5,15.9,8.4,31.3,10.5,35.7c2.9,6.3,7.1,14.7,12.9,24.4c2.6-3.2,5.6-7.4,8.3-12.9C219.5,112.6,221,106,221.8,101.2z"/>
				<path class="st8" d="M333.7,117.9c1.9-1.7,3.2-3.5,3.3-3.6c3.2-4.6,3.3-9.5,3.3-13.6c0.1-8.8-2.7-15.7-4.7-20.6
					c-0.8-2-1.5-3.5-2.1-4.7c-0.1-1.4-1.2-2.3-2.1-2.2c-0.6,0.1-1.2,0.6-1.4,1.3c-0.3-0.6-1-0.9-1.6-0.6c-0.6,0.2-1,1-0.7,1.7
					c-0.6-0.7-1.5-0.8-2.1-0.4c-0.5,0.3-0.7,0.9-0.7,1.5c-0.4-0.8-1.3-1.2-2-1c-0.8,0.3-1.3,1.5-0.8,2.5c1.2,1.7,2.7,4.1,4,7.3
					c1.3,3,3.3,7.8,3.1,13.9c-0.1,3.5-0.2,6.7-2.2,9.3c-2.4,3.2-7,4.7-12.3,4.5l0.1,10.7C320.3,123.8,328.3,122.5,333.7,117.9z"/>
				<path class="st7" d="M346.3,182.8c-0.1-0.4-0.4-3-2.2-3.7c-1.3-0.6-2.7,0.1-3.7,0.6c-0.6,0.3-2.1,1.1-4.3,4
					c-0.9,1.2-2.2,3-3.3,5.4c0.6-5.7,0.5-10.4,0.3-13.8c-0.3-4.1-0.7-5.2-1.5-5.9c-3.5-3-12.7,3.3-13.5,3.8c0,0-10.5,5.1-42.4,13.4
					c-23.4,6.1-40.6,6.9-48,6.9c1.4,4.8,2.7,9.6,3.9,14.4c-3.4-0.8-6.7-0.7-10.1-1.5c-3.9,7-4.8,13.3-2.2,15.7
					c1.4,1.3,4.2,1.8,5.5,0.7c1.6-1.3,0.9-4.7,0.5-6.9c-0.3-1.4-0.7-2.6-1-3.4c1.7,0.9,4.4,2.1,7.9,2.7c2.7,0.4,4.7,0.8,6-0.3
					c1.7-1.4,1.5-4.1,1.1-8.3c-0.2-2.2-0.7-5.3-1.9-9c11.7-0.3,25.7-1.5,41.3-4.7c19-4,34.9-9.8,47.2-15.4c0.2,2.9,0.4,5.9,0.8,9
					c0.5,4.4,1.1,8.5,1.8,12.5c3.4-0.7,8.1-2.2,12.2-6C342.6,191,346.9,187.1,346.3,182.8z"/>
				<path class="st9" d="M280.6,153.8c3.2-4,5-8.2,6-11.8c-1,3.3-2.8,6.9-5.6,10.4c-4.8,5.9-10.6,8.5-14.1,10
					c-5.5,2.5-10.5,3.4-13.9,3.7c-3.1-2.9-6.1-5.8-9.2-8.6l-1,0.9c3.2,3,6.5,6.1,9.7,9.1c3.4-0.4,8.3-1.2,13.9-3.7
					C270,162.3,275.8,159.7,280.6,153.8z"/>
				<path class="st7" d="M287.7,125.1l-7.8,2l-1.2,3.6c1.4,1.2,2.7,2.4,4.1,3.6c-0.3,1.9-1.2,5.5-4.1,8.6c-3.4,3.7-7.6,4.6-11.7,5.5
					c-3,0.7-8.2,1.4-14.8,0.1l-8.8,8.5c0.2,0.2,0.4,0.3,0.5,0.5c3.1,2.9,6.1,5.8,9.2,8.6c3.4-0.4,8.3-1.2,13.9-3.7
					c3.5-1.6,9.3-4.2,14.1-10c2.8-3.4,4.5-7.1,5.6-10.4c1.2-3.9,1.6-7.3,1.6-9.3l2.1-4.3L287.7,125.1z"/>
				<path class="st10" d="M274.5,104.5c4.8-1.3,9.1-1.7,12.5-1.9c-0.2-1.3-0.9-5.3-4.1-7.3c-5-3.1-11.7,1.2-13.5,2.4
					c-6.2,3.9-8.3,10.3-9,12.7C263.8,108.4,268.6,106.1,274.5,104.5z"/>
				<path class="st7" d="M242.1,82.4l16.4,2.1c0.3,0,0.4,0.4,0.2,0.5c-4,3.8-8.1,7.5-12.1,11.3c0,0-0.1,0.4,0.2,0.7
					c0.2,0.2,0.5,0.3,0.9,0.2c5-4.3,10-8.7,14.9-13c0,0,0.3-0.4,0.1-0.8c-0.1-0.5-0.5-0.6-0.6-0.6l-20-1.1c-0.2,0.1-0.2,0.3-0.2,0.5
					C241.9,82.3,242.1,82.4,242.1,82.4z"/>
				<path class="st7" d="M277.8,80.5c5.3,0.9,10.6,1.8,15.9,2.7c0.2,0,0.5-0.1,0.5-0.3c0-0.2,0-0.4-0.2-0.5l-12.4-3.5
					c-0.3-0.1-0.5-0.5-0.3-0.8c2.6-3.2,5.2-6.5,7.8-9.7c0.3-0.4,0.3-0.9,0-1.1c-0.2-0.2-0.5-0.2-0.8,0c-3.6,3.8-7.1,7.6-10.7,11.5
					c-0.4,0.4-0.6,0.9-0.4,1.3C277.5,80.3,277.7,80.4,277.8,80.5z"/>
				<path class="st2" d="M29.3,111.8c4-1.5,9.2-3.9,14.6-7.8c4.5-3.2,8-6.6,10.5-9.5c-2.9-1.1-10.6-4.5-16.2-12.9
					c-6.4-9.5-6-19.1-5.8-22c-2.4,3-7.4,8.5-15.6,12.2c-6.5,2.9-12.3,3.6-15.9,3.7c1.8,5.5,5.4,14.3,12.9,23
					C19.3,104.9,25,109.1,29.3,111.8z"/>
				<path class="st2" d="M36.1,135.5c-14.2-2.9-25.8,0.4-31.1,2.4c1.5,4,3.4,10.6,3.4,19c-0.1,8-1.9,14.3-3.4,18.3
					c3.1-2,15.2-9.1,30.8-6.4c9.4,1.6,16,6.2,19.3,8.8c1.4-3.3,3-8.3,3.4-14.6c0.5-8.9-1.8-15.8-3.4-19.6
					C50.9,140.6,44.5,137.2,36.1,135.5z"/>
				<path class="st2" d="M158.6,200.4c-0.8-2.7-3.3-4.5-6-4.4c-2.9,0.1-5.4,2.6-5.6,5.6c-4,0.6-6.8,4.1-6.5,7.9
					c0.2,3.4,2.8,6.3,6.3,7c1.8,2.8,5.2,4.1,8.3,3.3c3.1-0.8,5.4-3.5,5.6-6.8c3.5-0.9,5.6-4.4,4.9-7.7
					C164.9,202.3,161.9,200.1,158.6,200.4z"/>
				<path class="st2" d="M190.4,203.7c-2.8-2.1-6.6-1.8-8.8,0.6c-1.9,2.1-2.2,5.3-0.7,7.9c-1.1,1.6-1.2,3.6-0.3,5.1
					c1.2,2,4.1,2.9,6.7,1.6c1.8,1.3,4.1,1.3,5.6,0.1c1.9-1.4,1.8-3.7,1.8-3.9c0.5-0.4,1.3-1,1.9-2.1c0.1-0.2,1.3-2.5,0.6-4.9
					C196.4,205.5,193.6,203.7,190.4,203.7z"/>
				<path class="st6" d="M150.7,11.8c2.6,2.4,8,2.1,12.9-1.5c-2.4-4.9-6.3-8-10-7.6c-0.4,0-3.4,0.4-4.6,2.7
					C147.9,7.5,149.2,10.4,150.7,11.8z"/>
				<path class="st6" d="M134.1,27c2.6,2.4,8,2.1,12.9-1.5c-2.4-4.9-6.3-8-10-7.6c-0.4,0-3.4,0.4-4.6,2.7
					C131.3,22.8,132.6,25.6,134.1,27z"/>
				<path class="st6" d="M125.9,48.1c2.6,2.4,8,2.1,12.9-1.5c-2.4-4.9-6.3-8-10-7.6c-0.4,0-3.4,0.4-4.6,2.7
					C123.2,43.9,124.5,46.8,125.9,48.1z"/>
				<path class="st6" d="M153.7,36.5c-0.4,0-3.4,0.4-4.6,2.7c-1.1,2.2,0.2,5.1,1.7,6.4c2.6,2.4,8,2.1,12.9-1.5
					C161.3,39.1,157.4,36.1,153.7,36.5z"/>
				<path class="st6" d="M161.5,23.6c-1.1,2.2,0.2,5.1,1.7,6.4c2.6,2.4,8,2.1,12.9-1.5c-2.4-4.9-6.3-8-10-7.6
					C165.7,20.9,162.6,21.3,161.5,23.6z"/>
			</g>
			<g>
				<path class="st7" d="M142.7,162.3c-1.3,0.1-2.5,0.2-3.8,0.3c-1.3-5.7-2.6-11.5-3.8-17.2c1.5-0.2,3-0.4,4.5-0.6
					c0.1,0.9,0.2,1.7,0.2,2.6l3.6-1.2c-0.6-2.1-1.1-4.1-1.7-6.2c-2.6,0.8-5.2,1.7-7.8,2.5c-1.6-7.7-3.2-15.3-4.7-23
					c-1.2,0.2-2.3,0.4-3.5,0.6l-9.3,2.3c0.1,0.3,0.2,0.7,0.4,1c-0.1-0.4-0.2-0.7-0.4-1l-1.4,0.3c0,0.1,0.1,0.1,0.1,0.2
					c0-0.1-0.1-0.1-0.1-0.2l-28.7,7c0,0-2.3,0.6-3.3,1c4.8,22.4,9.7,44.9,14.5,67.3c15.6-2.7,31.1-5.5,46.7-8.2
					c-1.5-8-3-15.9-4.6-23.9c2.6-0.6,5.3-1.2,7.9-1.8c-0.5-2.1-1-4.3-1.5-6.4l-3.3,1C142.8,159.8,142.7,161.1,142.7,162.3z"/>
				<path class="st1" d="M202.3,144.2c-0.2-1.7-0.5-3.4-0.9-5.3c-0.4-1.8-0.8-3.4-1.3-4.9c-7.4,1.2-15,2.6-22.9,4.2
					c-11.9,2.4-23.1,5.2-33.7,8l-3.6,1.2c-0.7,0.1-1.2,0.7-1.2,1.4c0,0.7,0.7,1.3,1.4,1.2c-0.9,0.2-1.5,1-1.4,1.8
					c0.1,0.7,0.9,1.3,1.7,1.3c0.1,0,0.3-0.1,0.4-0.1c-0.2,0-0.3,0-0.4,0.1c-0.8,0.2-1.3,1-1.1,1.6c0.1,0.7,0.9,1.2,1.8,1.1
					c-0.8,0.5-1.2,1.4-1.1,2c0.2,0.8,1.6,1.4,2.8,0.8l3.3-1c9.8-3.5,21.1-6.9,33.8-9.6C187.8,146.3,195.3,145.1,202.3,144.2z"/>
			</g>
		</g>
	</g>
</g>
</svg>
