<?xml version="1.0" encoding="utf-8"?>
<!-- Generator: Adobe Illustrator 19.2.0, SVG Export Plug-In . SVG Version: 6.00 Build 0)  -->
<svg version="1.1" id="圖層_1" xmlns="http://www.w3.org/2000/svg" xmlns:xlink="http://www.w3.org/1999/xlink" x="0px" y="0px"
	 viewBox="0 0 287 342.3" style="enable-background:new 0 0 287 342.3;" xml:space="preserve">
<style type="text/css">
	.st0{opacity:0.35;}
	.st1{fill:#FFDBBF;}
	.st2{fill:#A75130;}
	.st3{fill:#543F2C;}
	.st4{fill:#FEDCC0;}
	.st5{fill:#F1D8C2;}
	.st6{fill:#EAECEA;}
	.st7{fill:#FDDDC0;}
	.st8{fill:#DFE2E8;}
	.st9{fill:#F5F9F9;}
	.st10{fill:#53402A;}
	.st11{fill:#B25132;}
	.st12{fill:#EB7D86;}
	.st13{fill:#9C4022;}
	.st14{fill:#B25033;}
	.st15{fill:#EEA932;}
	.st16{fill:#F8F8F7;}
	.st17{fill:#A24B31;}
	.st18{fill:#DFDEDE;}
	.st19{fill:#533F2D;}
	.st20{fill:#B25131;}
	.st21{fill:#A2492B;}
	.st22{fill:#F7F9F8;}
</style>
<g>
	<g class="st0">
		<path d="M123,89.8c-5.4-4.6-12-11.8-16.5-21.8c-5.1-11.4-5.8-23.2-5-26.5c0.7-2.6,1.3-8.5,1.2-9c-0.1-0.4-0.3-0.5-0.3-0.7
			c-0.2,0-1.1-0.3-1.4-0.2c-0.5,0.2-0.5,0.9-0.8,0.8c-0.5-0.1,0-1.3-0.6-1.5c-0.1,0-1.1-0.1-1.3,0.1c-0.4,0.3-0.5,0.9-0.8,0.8
			c-0.3-0.1-0.2-1-0.5-1.5c-0.3-0.4-1.1-0.2-1.3-0.3c-0.5,0-0.3,1.2-0.7,1.1c-0.4-0.1-0.5-0.9-1-1.3c-0.3-0.2-0.8-0.3-1.5,0.3
			c-0.7,0.6-1.2,1.4-1.5,3c-0.3,1.6-0.6,10.3,0.3,18.2c1.4,12.6,4.6,18.4,8.9,25.8c5.1,8.8,10.9,14.2,15.2,18.2
			c0.4,0.3,0.7,0.6,1,0.9c1.3-1.3,2.6-2.6,3.9-3.9C121.2,91.7,122.1,90.7,123,89.8z"/>
		<path d="M91.1,240.8l-5.9,2.5c-0.2,1.1-0.2,2.6,0.3,4.5l7.4-3.2L91.1,240.8z"/>
		<path d="M101.8,264.1l-7.8,3.3c0.6,1.3,1.1,2.6,1.7,3.8l7.8-3.4L101.8,264.1z"/>
		<path d="M88.8,235.8c-0.3,0.5-0.7,1.4-1.2,2.3c-1.2,2.3-1.8,3.5-1.9,3.8c0,0.1-0.1,0.2-0.1,0.3l5.2-2.2L88.8,235.8z"/>
		<path d="M97.6,254.9l-7.7,3.3c0.6,1.3,1.2,2.6,1.7,3.9l7.7-3.3L97.6,254.9z"/>
		<path d="M93.2,245.5l-7.5,3.2c0,0.1,0.1,0.2,0.1,0.4c0.5,1.1,1,2.3,1.5,3.4l7.6-3.3L93.2,245.5z"/>
		<path d="M99.7,259.7L92,263c0.5,1.2,1.1,2.4,1.6,3.7l7.8-3.3L99.7,259.7z"/>
		<path d="M95.3,250.1l-7.6,3.3c0.6,1.4,1.2,2.7,1.8,4.1l7.7-3.3L95.3,250.1z"/>
		<path d="M217.6,160c0,0-1.6-4.7-2.2-8.9l-74.5,21c0.7,3.3,1.5,6.5,2.2,9.8l2.3,7.3c0,0-18.1,12.3-18.6,13.6c-0.5,1.3,2,9.3,2,9.3
			s3.5,12.7,7.4,11.6c1.1-0.3,1.9-1.4,2.5-2.8c1.5-3.7,1.6-9.7,0.5-11.9c-1.5-3-6.4-4.8-6.4-4.8v-0.8l20-10.5
			c-0.2-5.7-0.4-11.4-0.6-17.2c0.7-0.2,1.3-0.5,2-0.7c6-2.2,12.3-4.3,18.7-6.4c9-2.9,17.7-5.4,26.2-7.7c3-0.8,6-1.6,8.9-2.3v2
			L217.6,160z"/>
		<path d="M214.2,131.4c0.1,1.4,0.1,2.7,0.2,3.7c1.7,3.2,3.6,6.6,5.8,10.1c3.5,5.6,7.1,10.5,10.5,14.9l18.6,2.5
			c-5-4.6-10.5-10.3-15.9-17.4c-5-6.5-8.9-12.9-12.1-18.8c-1.3,1.2-2.8,2.4-4.5,3.5C215.8,130.4,215,130.9,214.2,131.4z"/>
		<path d="M214.2,131.4c-0.1,0.1-0.3,0.2-0.4,0.2c0,1.5,0.1,2.5,0.1,2.5c0.2,0.3,0.3,0.6,0.5,0.9
			C214.3,134.1,214.3,132.8,214.2,131.4z"/>
		<path d="M213.8,120c0.1-4.3,0.5-8.6,0.5-8.8h0c0,0.3-0.7,7-0.7,11.4c0,2.8,0.1,6.5,0.2,9c0.1-0.1,0.3-0.1,0.4-0.2
			C214,127.4,213.8,122.4,213.8,120z"/>
		<path d="M180.3,110.2c8.6,0.9,20.2,1.6,34,1.1c0,0,0,0,0,0c-2.7-2.8-6-6.7-9-11.7c-2.9-5-4.8-9.6-5.9-13.2c2.6,2.3,6,2.4,7.7,0.8
			c1.7-1.5,1.3-4.2,1.2-4.7c-0.1-0.4-0.5-3.3-2.8-4.4c-1.2-0.5-2.3-0.3-3.4-0.2c-1.8,0.3-3.1,1.1-3.8,1.6
			c-0.4-6.9-0.8-13.8-1.2-20.8c-2.8,0.1-6.8,0.2-11.5,0c-7.3-0.3-13.4-0.5-19.8-2.3c-4.6-1.3-11.9-4.1-19.8-11
			c-4.1,5.5-9.4,14.2-12.9,25.7c-2.7,8.9-3.5,17.5-3.6,23.5c5.9,3.5,14.6,8,25.8,11.2C164.5,108.5,171.5,109.2,180.3,110.2z
			 M175.6,77c0.7-3.1,2.4-5.3,3.8-5c1.3,0.3,1.8,3.1,1,6.2c-0.7,3.1-2.4,5.3-3.8,5C175.3,82.9,174.8,80.1,175.6,77z M143.1,74.2
			c-1.3-0.3-1.8-3.1-1-6.2c0.7-3.1,2.4-5.3,3.8-5c1.3,0.3,1.8,3.1,1,6.2C146.1,72.2,144.4,74.5,143.1,74.2z M148.6,95.9
			c-1.3-1.8-1.7-3.7-2.2-6.1c-0.4-1.9-0.5-3.5-0.5-4.7c3.9,0.6,8,1.4,12.4,2.5c3.8,0.9,7.4,1.9,10.6,3c-0.1,0.8-0.7,4.7-4.4,7.5
			c-0.6,0.5-4,3-8.7,2.2C155.3,100.2,151.2,99.5,148.6,95.9z"/>
		<path d="M152.8,192.9l-20,10.5v0.8c0,0,4.9,1.8,6.4,4.8c1,2.1,1,8.2-0.5,11.9c1.4,2.5,3.1,4.5,4.6,4.1c4-1.1,3.4-13,1.6-16.2
			c-1.8-3.1-6.8-3.4-6.8-3.4l-0.1-0.7l18.8-12.7c-1-5.6-1.7-11.8-2.6-17c-0.7,0.2-1.3,0.5-2,0.7
			C152.4,181.5,152.6,187.2,152.8,192.9z"/>
		<path d="M213.8,120c-0.1,2.4,0.1,7.4,0.4,11.4c0.8-0.5,1.6-1,2.5-1.6c1.7-1.2,3.2-2.4,4.5-3.5c-2.9-5.4-5.1-10.5-6.9-15
			c0,0,0,0,0,0C214.3,111.4,214,115.7,213.8,120z"/>
		<path d="M185.6,58.8c4.7,0.2,8.7,0.1,11.5,0c0.4,6.9,0.8,13.8,1.2,20.8c0.7-0.5,2-1.3,3.8-1.6c1-0.2,2.2-0.4,3.4,0.2
			c2.3,1,2.8,3.9,2.8,4.4c0.1,0.5,0.4,3.1-1.2,4.7c-1.7,1.6-5,1.4-7.7-0.8c1.1,3.7,3,8.3,5.9,13.2c3,5.1,6.3,9,9,11.7
			c2.7-6.6,18.7-46.1,14.9-65.1c-0.7-3.7-2.2-10.7-7.5-13c-4.2-1.8-8.5,0.3-8.5,0.3c-1.2-3.8-4.2-11.5-11.8-16.9
			c-11.8-8.3-26.3-5.2-30.2-3.9c-4.3,1.5-6.9,2.5-6.9,2.5c-3.4,1.3-4.7,1.9-6.9,2.5c-2.7,0.7-4.9,0.8-6.3,0.8
			c-1.8,0-5.5-0.3-9.4-2.7c-5.8-3.5-7.7-9.1-8.2-10.6c-0.7,4.8-1.5,15.1,3.3,26.4c2.8,6.5,6.5,11.1,9.3,14.1
			c7.9,6.9,15.2,9.7,19.8,11C172.2,58.3,178.3,58.5,185.6,58.8z"/>
		<path d="M103.9,268.8l-7.9,3.4c0.6,1.3,1.1,2.5,1.7,3.8l7.9-3.4L103.9,268.8z"/>
		<path d="M277.2,201.7c1.4-2.9,3.4-7.1,5-12.9c1.2-4.4,1.5-7.2,0.5-10c-0.4-1.1-1.3-2.8-3.8-5.1c-2.7-2.5-6.6-4.8-16.3-8
			c-3.3-1.1-7.8-2.3-13.3-3.3l-18.6-2.5c-1.2,0-2.4,0-3.6,0l32.7,71.3c0.2-0.2,0.3-0.4,0.5-0.6C267.7,221.1,277.2,201.7,277.2,201.7
			z M234.3,167.8c-1,0-1.8-0.8-1.8-1.8s0.8-1.8,1.8-1.8s1.8,0.8,1.8,1.8S235.3,167.8,234.3,167.8z M238.3,177c-1,0-1.8-0.8-1.8-1.8
			s0.8-1.8,1.8-1.8s1.8,0.8,1.8,1.8S239.3,177,238.3,177z M243.2,186.7c-1,0-1.8-0.8-1.8-1.8s0.8-1.8,1.8-1.8s1.8,0.8,1.8,1.8
			S244.2,186.7,243.2,186.7z M247.2,195.8c-1,0-1.8-0.8-1.8-1.8s0.8-1.8,1.8-1.8s1.8,0.8,1.8,1.8S248.2,195.8,247.2,195.8z
			 M251.5,205.1c-1,0-1.8-0.8-1.8-1.8s0.8-1.8,1.8-1.8s1.8,0.8,1.8,1.8S252.5,205.1,251.5,205.1z M256,214.2c-1,0-1.8-0.8-1.8-1.8
			s0.8-1.8,1.8-1.8c1,0,1.8,0.8,1.8,1.8S257,214.2,256,214.2z M257.7,222.2c0-1,0.8-1.8,1.8-1.8c1,0,1.8,0.8,1.8,1.8
			s-0.8,1.8-1.8,1.8C258.6,224.1,257.7,223.3,257.7,222.2z"/>
		<path d="M108.3,278.2l-7.8,3.4c0.6,0.8,1.5,1.8,2.7,2.6c0.2,0.1,0.4,0.3,0.6,0.4l6.2-2.7L108.3,278.2z"/>
		<path d="M104.8,285.1c3.1,1.5,6.2,1.2,7.2,1.1l-1.6-3.5L104.8,285.1z"/>
		<path d="M106.1,273.4l-7.9,3.4c0.6,1.3,1.2,2.6,1.8,3.9c0,0,0,0,0,0l8-3.4L106.1,273.4z"/>
		<ellipse transform="matrix(0.2367 -0.9716 0.9716 0.2367 43.6171 192.696)" cx="144.5" cy="68.6" rx="5.7" ry="2.5"/>
		<ellipse transform="matrix(0.2367 -0.9716 0.9716 0.2367 60.4371 232.1775)" cx="178" cy="77.6" rx="5.7" ry="2.5"/>
		<path d="M164.5,98.1c3.6-2.8,4.3-6.7,4.4-7.5c-3.3-1.1-6.8-2.1-10.6-3c-4.4-1.1-8.5-1.9-12.4-2.5c0,1.2,0.1,2.8,0.5,4.7
			c0.5,2.4,0.9,4.3,2.2,6.1c2.6,3.6,6.8,4.3,7.3,4.4C160.5,101,163.9,98.5,164.5,98.1z"/>
		<path d="M90.7,240l-5.2,2.2c-0.1,0.3-0.2,0.7-0.3,1.1l5.9-2.5L90.7,240z"/>
		<path d="M92.8,244.7l-7.4,3.2c0.1,0.3,0.2,0.6,0.3,0.9l7.5-3.2L92.8,244.7z"/>
		<path d="M94.9,249.2l-7.6,3.3c0.1,0.3,0.2,0.6,0.4,0.8l7.6-3.3L94.9,249.2z"/>
		<path d="M97.4,254.5l-0.2-0.4l-7.7,3.3c0.1,0.1,0.1,0.3,0.2,0.4c0.1,0.1,0.1,0.3,0.2,0.4l7.7-3.3L97.4,254.5z"/>
		<path d="M99.5,259.2l-0.2-0.4l-7.7,3.3c0.1,0.1,0.1,0.3,0.2,0.4c0.1,0.1,0.1,0.3,0.2,0.4l7.7-3.3L99.5,259.2z"/>
		<path d="M101.4,263.3l-7.8,3.3c0.1,0.3,0.2,0.6,0.4,0.8l7.8-3.3L101.4,263.3z"/>
		<path d="M103.6,268l-7.8,3.4c0.1,0.3,0.2,0.6,0.4,0.8l7.9-3.4L103.6,268z"/>
		<path d="M105.7,272.6l-7.9,3.4c0.1,0.3,0.2,0.6,0.4,0.8l7.9-3.4L105.7,272.6z"/>
		<path d="M107.9,277.4l-8,3.4c0.2,0.2,0.3,0.5,0.5,0.8l7.8-3.4L107.9,277.4z"/>
		<path d="M110,281.9l-6.2,2.7c0.3,0.2,0.7,0.4,1,0.6l5.6-2.4L110,281.9z"/>
		<path d="M64.7,250.1c-9.8-0.6-17.2,5.7-27.1,14.2c-5.5,4.7-8.9,8.9-13.6,14.7c-5.1,6.3-11.3,14.7-17.6,25.1
			c14.1,2.8,25.9,3.5,34.5,3.5c12.8,0,19.7-1.4,23.6-2.3c10.4-2.5,16.9-4.1,21.4-10c6.3-8.1,5.6-20,1.7-28.3
			C83.5,258.5,74.8,250.7,64.7,250.1z M87,286.1c-2.3,6.7-8.3,9.8-10,10.6c-2,0.9-15.9,6.6-27.4-0.6c-1.8-1.1-6.4-4-8.3-9.5
			c-3.1-9.1,3.6-17.9,5.8-20.8C53,258,60.9,255.1,64.5,254c2.3-0.1,6.9,0.1,11.5,2.9c6.1,3.7,8.2,9.7,9.6,13.9
			C87.3,275.6,89,280.4,87,286.1z"/>
		<path d="M76,257c-4.5-2.8-9.2-3-11.5-2.9c-3.6,1.1-11.5,4-17.3,11.6c-2.2,2.9-8.9,11.8-5.8,20.8c1.9,5.5,6.5,8.4,8.3,9.5
			c11.5,7.2,25.4,1.5,27.4,0.6c1.7-0.8,7.6-3.9,10-10.6c2-5.6,0.3-10.5-1.4-15.2C84.2,266.7,82.1,260.7,76,257z M84,281.3
			c-0.2,0.4-1.2,2.2-4.4,3.7c-6.7,3-18.2,2.5-21.1-4c-2.2-4.8,1.3-10.8,2.1-12.3c1.8-3,4-4.8,5.1-5.5c1.9-1.4,3.6-2.7,6.1-2.8
			c2.3-0.1,4,1,4.9,1.5c3.5,2.2,4.9,5.7,6.1,9C84.3,275.1,85.5,278.4,84,281.3z"/>
		<path d="M76.6,262c-0.9-0.6-2.6-1.6-4.9-1.5c-2.5,0.1-4.3,1.4-6.1,2.8c-1,0.8-3.3,2.5-5.1,5.5c-0.8,1.4-4.3,7.4-2.1,12.3
			c3,6.5,14.5,7,21.1,4c3.2-1.5,4.2-3.3,4.4-3.7c1.5-2.9,0.3-6.2-1.2-10.3C81.5,267.7,80.1,264.2,76.6,262z"/>
		<circle cx="234.3" cy="166" r="1.8"/>
		<circle cx="238.3" cy="175.2" r="1.8"/>
		<circle cx="243.2" cy="184.9" r="1.8"/>
		<circle cx="251.5" cy="203.3" r="1.8"/>
		<circle cx="247.2" cy="193.9" r="1.8"/>
		<circle cx="256" cy="212.3" r="1.8"/>
		<circle cx="259.6" cy="222.2" r="1.8"/>
		<path d="M213.9,134.1c0,0,0-1-0.1-2.5c-0.1-2.5-0.2-6.2-0.2-9c0-4.3,0.7-11.1,0.7-11.4c-13.9,0.5-25.4-0.2-34-1.1
			c-8.8-0.9-15.8-1.7-24.8-4.3c-11.2-3.2-19.9-7.7-25.8-11.2c-1.6-1-4-2.6-6.6-4.9c-0.9,0.9-1.8,1.9-2.7,2.8
			c-1.3,1.3-2.6,2.6-3.9,3.9c4.6,4.1,8.9,7.2,12.3,9.4c-0.1,3.7-0.1,8.8,0.2,14.9c0.4,7.5,0.8,15.5,2.7,24.8
			c1.4,6.6,3.9,15.9,9.2,26.5l74.5-21C214.7,147,213.9,134.1,213.9,134.1z M199.3,122.6c-1.2,1.2-2.3,2.5-3.5,3.7
			c-0.9,2.2-2.5,5.6-5.5,9c0,0-3.7,4.1-9.2,6.8c-11.2,5.6-24.1,2.9-27.3,2.1c-1.8-3.5-3.7-7.1-5.5-10.6c0.5-0.2,1-0.5,1.5-0.7
			c-0.3-0.6-0.6-1.2-0.9-1.7c3.5-1.7,7.1-3.3,10.6-5c6.1,3.5,11.5,4.4,14.7,4.7c3.7,0.3,7.3,0.6,11.1-1.4c2.4-1.3,4-3,5-4.5
			c0.5-0.6,0.8-1.2,1.1-1.7l-2.3-3.8l-0.6-1.1l1.9-2.1h8.2l1.2,3.9c-0.3,0.4-0.7,0.7-1,1.1L199.3,122.6z"/>
		<path d="M191,132.8c0,0-3.7,4.1-9.2,6.8c-11.2,5.6-24.1,2.9-27.3,2.1c-1.5-3-3.1-5.9-4.6-8.9c-0.5,0.2-1,0.5-1.5,0.7
			c1.8,3.5,3.7,7.1,5.5,10.6c3.2,0.8,16,3.5,27.3-2.1c5.5-2.8,9.2-6.8,9.2-6.8c3-3.4,4.6-6.7,5.5-9c1.2-1.2,2.3-2.5,3.5-3.7
			l-0.4-1.4c-0.8,0.9-1.6,1.7-2.4,2.6C195.6,126.1,194,129.4,191,132.8z"/>
		<path d="M198.7,116.3h-8.2l-1.9,2.1l0.6,1.1l2.3,3.8c-0.3,0.5-0.6,1-1.1,1.7c-1.1,1.5-2.7,3.2-5,4.5c-3.8,2-7.4,1.8-11.1,1.4
			c-3.2-0.3-8.6-1.2-14.7-4.7c-3.5,1.7-7.1,3.3-10.6,5c0.3,0.6,0.6,1.2,0.9,1.7c1.5,3,3.1,5.9,4.6,8.9c3.2,0.8,16,3.5,27.3-2.1
			c5.5-2.8,9.2-6.8,9.2-6.8c3-3.4,4.6-6.7,5.5-9c0.8-0.9,1.6-1.7,2.4-2.6c0.3-0.4,0.7-0.7,1-1.1L198.7,116.3z"/>
		<path d="M120.2,194.1c-10.7-2.9-32.8-7-55.9,2.9c-8.2,3.5-14.7,8.1-19.6,12.3c-1.4,1.5-1.6,3.8-0.5,5.4c1.2,1.8,3.6,2.4,5.6,1.3
			c2.6-0.5,15.6-2.8,27.4,5.5c4.4,3.1,7.3,6.7,9.2,9.8c2.7-4.4,7.3-11.4,13-17.5C105.1,207.6,114.2,199.4,120.2,194.1z"/>
		<path d="M102.2,215.8c5.7-8.1,21-20.8,21-20.8c-0.9-0.3-1.9-0.6-3.1-0.9c-6,5.3-15,13.5-20.8,19.7c-5.7,6.1-10.4,13.1-13,17.5
			c1.1,1.8,1.9,3.4,2.4,4.5C88.8,235.8,96.5,223.9,102.2,215.8z"/>
		<path d="M164.3,290.5c0.7-1.4,1.3-2.7,1.8-3.9c0,0-11.7,2.6-23.8,2.6c-11.1,0-27.4-2-30-2.3c0.5,0.9,1.2,2.4,2,4.4
			c5.5,0.6,14.2,1.4,23.9,1.5C148.2,292.9,158.1,291.6,164.3,290.5z"/>
		<path d="M138.2,292.8c-9.7-0.1-18.4-0.9-23.9-1.5c1.6,4.6,3.1,11.8,0.6,19.9c-3.6,11.5-12.4,17.5-14.3,18.6
			c-1.4,1.3-1.9,3.2-1.3,4.9c0.7,2.1,2.9,3.4,5.3,3.1c8.7-2.1,26.8-7.7,42.9-23.7c8.3-8.2,13.6-16.7,17-23.5
			C158.1,291.6,148.2,292.9,138.2,292.8z"/>
		<path d="M246.2,201.6L227.1,160c-3.2,0-6.3,0-9.5,0l-9.5,0.6l-8.9,0.3c-8.5,2.3-17.2,4.8-26.2,7.7c-6.5,2.1-12.7,4.2-18.7,6.4
			c1,5.2,1.6,11.4,2.6,17L138,204.7l0.1,0.7c0,0,5,0.3,6.8,3.4c1.8,3.2,2.4,15.1-1.6,16.2c-1.5,0.4-3.2-1.6-4.6-4.1
			c-0.6,1.4-1.4,2.5-2.5,2.8c-3.8,1.1-7.4-11.6-7.4-11.6s-2.5-8-2-9.3c0.5-1.3,18.6-13.6,18.6-13.6l-2.3-7.3
			c-6.6,4.4-13.2,8.7-19.8,13.1c0,0-15.3,12.8-21,20.8c-5.7,8.1-13.5,20-13.5,20l1.9,4.2l0.4,0.8l1.8,3.8l0.4,0.8l1.7,3.7l0.4,0.8
			l1.9,4l0.2,0.4l0.2,0.4l1.8,3.9l0.2,0.4l0.2,0.4l1.7,3.6l0.4,0.8l1.8,3.8l0.4,0.8c24.3-8.7,50.5-19.4,78.1-32.7
			C205.4,224.9,226.7,213.2,246.2,201.6z"/>
		<path d="M182,236.1c-27.6,13.3-53.8,24-78.1,32.7l0,0l1.8,3.8l0.4,0.8l1.8,4l0.4,0.8l1.7,3.7l0.4,0.8l1.6,3.5
			c0.1,0.1,0.2,0.4,0.4,0.6c2.6,0.3,18.9,2.3,30,2.3c12,0,23.8-2.6,23.8-2.6c18.3-3.9,32.6-10,42.3-14.9c11-5.6,33.1-17.1,51.4-40.4
			l-13.6-29.7C226.7,213.2,205.4,224.9,182,236.1z"/>
	</g>
	<g>
		<g>
			<g>
				<g>
					<path class="st1" d="M121,87.8c-5.4-4.6-12-11.8-16.5-21.8c-5.1-11.4-5.8-23.2-5-26.5c0.7-2.6,1.3-8.5,1.2-9
						c-0.1-0.4-0.3-0.5-0.3-0.7c-0.2,0-1.1-0.3-1.4-0.2c-0.5,0.2-0.5,0.9-0.8,0.8c-0.5-0.1,0-1.3-0.6-1.5c-0.1,0-1.1-0.1-1.3,0.1
						c-0.4,0.3-0.5,0.9-0.8,0.8c-0.3-0.1-0.2-1-0.5-1.5c-0.3-0.4-1.1-0.2-1.3-0.3c-0.5,0-0.3,1.2-0.7,1.1c-0.4-0.1-0.5-0.9-1-1.3
						c-0.3-0.2-0.8-0.3-1.5,0.3c-0.7,0.6-1.2,1.4-1.5,3c-0.3,1.6-0.6,10.3,0.3,18.2c1.4,12.6,4.6,18.4,8.9,25.8
						c5.1,8.8,10.9,14.2,15.2,18.2c0.4,0.3,0.7,0.6,1,0.9c1.3-1.3,2.6-2.6,3.9-3.9C119.2,89.6,120.1,88.7,121,87.8z"/>
				</g>
				<g>
					<path class="st2" d="M89,238.8l-5.9,2.5c-0.2,1.1-0.2,2.6,0.3,4.5l7.4-3.2L89,238.8z"/>
				</g>
				<g>
					<path class="st2" d="M99.8,262.1l-7.8,3.3c0.6,1.3,1.1,2.6,1.7,3.8l7.8-3.4L99.8,262.1z"/>
				</g>
				<g>
					<path class="st2" d="M86.7,233.8c-0.3,0.5-0.7,1.4-1.2,2.3c-1.2,2.3-1.8,3.5-1.9,3.8c0,0.1-0.1,0.2-0.1,0.3l5.2-2.2L86.7,233.8
						z"/>
				</g>
				<g>
					<path class="st2" d="M95.5,252.9l-7.7,3.3c0.6,1.3,1.2,2.6,1.7,3.9l7.7-3.3L95.5,252.9z"/>
				</g>
				<g>
					<path class="st2" d="M91.2,243.4l-7.5,3.2c0,0.1,0.1,0.2,0.1,0.4c0.5,1.1,1,2.3,1.5,3.4l7.6-3.3L91.2,243.4z"/>
				</g>
				<g>
					<path class="st2" d="M97.7,257.6l-7.7,3.3c0.5,1.2,1.1,2.4,1.6,3.7l7.8-3.3L97.7,257.6z"/>
				</g>
				<g>
					<path class="st2" d="M93.3,248l-7.6,3.3c0.6,1.4,1.2,2.7,1.8,4.1l7.7-3.3L93.3,248z"/>
				</g>
				<g>
					<path class="st3" d="M215.5,158c0,0-1.6-4.7-2.2-8.9l-74.5,21c0.7,3.3,1.5,6.5,2.2,9.8l2.3,7.3c0,0-18.1,12.3-18.6,13.6
						s2,9.3,2,9.3s3.5,12.7,7.4,11.6c1.1-0.3,1.9-1.4,2.5-2.8c1.5-3.7,1.6-9.7,0.5-11.9c-1.5-3-6.4-4.8-6.4-4.8v-0.8l20-10.5
						c-0.2-5.7-0.4-11.4-0.6-17.2c0.7-0.2,1.3-0.5,2-0.7c6-2.2,12.3-4.3,18.7-6.4c9-2.9,17.7-5.4,26.2-7.7c3-0.8,6-1.6,8.9-2.3v2
						L215.5,158z"/>
				</g>
				<g>
					<path class="st4" d="M212.1,129.4c0.1,1.4,0.1,2.7,0.2,3.7c1.7,3.2,3.6,6.6,5.8,10.1c3.5,5.6,7.1,10.5,10.5,14.9l18.6,2.5
						c-5-4.6-10.5-10.3-15.9-17.4c-5-6.5-8.9-12.9-12.1-18.8c-1.3,1.2-2.8,2.4-4.5,3.5C213.8,128.4,213,128.9,212.1,129.4z"/>
				</g>
				<g>
					<path class="st5" d="M212.1,129.4c-0.1,0.1-0.3,0.2-0.4,0.2c0,1.5,0.1,2.5,0.1,2.5c0.2,0.3,0.3,0.6,0.5,0.9
						C212.3,132,212.2,130.7,212.1,129.4z"/>
				</g>
				<g>
					<path class="st6" d="M211.8,118c0.1-4.3,0.5-8.6,0.5-8.8h0c0,0.3-0.7,7-0.7,11.4c0,2.8,0.1,6.5,0.2,9c0.1-0.1,0.3-0.1,0.4-0.2
						C211.9,125.3,211.7,120.4,211.8,118z"/>
				</g>
				<g>
					<g>
						<path class="st7" d="M178.2,108.1c8.6,0.9,20.2,1.6,34,1.1c0,0,0,0,0,0c-2.7-2.8-6-6.7-9-11.7c-2.9-5-4.8-9.6-5.9-13.2
							c2.6,2.3,6,2.4,7.7,0.8c1.7-1.5,1.3-4.2,1.2-4.7c-0.1-0.4-0.5-3.3-2.8-4.4c-1.2-0.5-2.3-0.3-3.4-0.2c-1.8,0.3-3.1,1.1-3.8,1.6
							c-0.4-6.9-0.8-13.8-1.2-20.8c-2.8,0.1-6.8,0.2-11.5,0c-7.3-0.3-13.4-0.5-19.8-2.3c-4.6-1.3-11.9-4.1-19.8-11
							c-4.1,5.5-9.4,14.2-12.9,25.7c-2.7,8.9-3.5,17.5-3.6,23.5c5.9,3.5,14.6,8,25.8,11.2C162.5,106.4,169.5,107.2,178.2,108.1z
							 M173.5,75c0.7-3.1,2.4-5.3,3.8-5c1.3,0.3,1.8,3.1,1,6.2c-0.7,3.1-2.4,5.3-3.8,5C173.3,80.8,172.8,78.1,173.5,75z M141.1,72.1
							c-1.3-0.3-1.8-3.1-1-6.2c0.7-3.1,2.4-5.3,3.8-5c1.3,0.3,1.8,3.1,1,6.2C144.1,70.2,142.4,72.4,141.1,72.1z M146.5,93.9
							c-1.3-1.8-1.7-3.7-2.2-6.1c-0.4-1.9-0.5-3.5-0.5-4.7c3.9,0.6,8,1.4,12.4,2.5c3.8,0.9,7.4,1.9,10.6,3c-0.1,0.8-0.7,4.7-4.4,7.5
							c-0.6,0.5-4,3-8.7,2.2C153.3,98.2,149.1,97.4,146.5,93.9z"/>
					</g>
				</g>
				<g>
					<path class="st8" d="M150.8,190.9l-20,10.5v0.8c0,0,4.9,1.8,6.4,4.8c1,2.1,1,8.2-0.5,11.9c1.4,2.5,3.1,4.5,4.6,4.1
						c4-1.1,3.4-13,1.6-16.2c-1.8-3.1-6.8-3.4-6.8-3.4l-0.1-0.7l18.8-12.7c-1-5.6-1.7-11.8-2.6-17c-0.7,0.2-1.3,0.5-2,0.7
						C150.3,179.5,150.6,185.2,150.8,190.9z"/>
				</g>
				<g>
					<path class="st9" d="M211.8,118c-0.1,2.4,0.1,7.4,0.4,11.4c0.8-0.5,1.6-1,2.5-1.6c1.7-1.2,3.2-2.4,4.5-3.5
						c-2.9-5.4-5.1-10.5-6.9-15c0,0,0,0,0,0C212.3,109.4,211.9,113.7,211.8,118z"/>
				</g>
				<g>
					<path class="st10" d="M183.6,56.7c4.7,0.2,8.7,0.1,11.5,0c0.4,6.9,0.8,13.8,1.2,20.8c0.7-0.5,2-1.3,3.8-1.6
						c1-0.2,2.2-0.4,3.4,0.2c2.3,1,2.8,3.9,2.8,4.4c0.1,0.5,0.4,3.1-1.2,4.7c-1.7,1.6-5,1.4-7.7-0.8c1.1,3.7,3,8.3,5.9,13.2
						c3,5.1,6.3,9,9,11.7c2.7-6.6,18.7-46.1,14.9-65.1c-0.7-3.7-2.2-10.7-7.5-13c-4.2-1.8-8.5,0.3-8.5,0.3
						c-1.2-3.8-4.2-11.5-11.8-16.9c-11.8-8.3-26.3-5.2-30.2-3.9c-4.3,1.5-6.9,2.5-6.9,2.5c-3.4,1.3-4.7,1.9-6.9,2.5
						c-2.7,0.7-4.9,0.8-6.3,0.8c-1.8,0-5.5-0.3-9.4-2.7c-5.8-3.5-7.7-9.1-8.2-10.6c-0.7,4.8-1.5,15.1,3.3,26.4
						c2.8,6.5,6.5,11.1,9.3,14.1c7.9,6.9,15.2,9.7,19.8,11C170.2,56.2,176.3,56.5,183.6,56.7z"/>
				</g>
				<g>
					<path class="st2" d="M101.9,266.8l-7.9,3.4c0.6,1.3,1.1,2.5,1.7,3.8l7.9-3.4L101.9,266.8z"/>
				</g>
				<g>
					<g>
						<path class="st11" d="M275.2,199.7c1.4-2.9,3.4-7.1,5-12.9c1.2-4.4,1.5-7.2,0.5-10c-0.4-1.1-1.3-2.8-3.8-5.1
							c-2.7-2.5-6.6-4.8-16.3-8c-3.3-1.1-7.8-2.3-13.3-3.3l-18.6-2.5c-1.2,0-2.4,0-3.6,0l32.7,71.3c0.2-0.2,0.3-0.4,0.5-0.6
							C265.7,219,275.2,199.7,275.2,199.7z M232.2,165.8c-1,0-1.8-0.8-1.8-1.8c0-1,0.8-1.8,1.8-1.8s1.8,0.8,1.8,1.8
							C234.1,165,233.2,165.8,232.2,165.8z M236.3,175c-1,0-1.8-0.8-1.8-1.8s0.8-1.8,1.8-1.8s1.8,0.8,1.8,1.8S237.3,175,236.3,175z
							 M241.2,184.7c-1,0-1.8-0.8-1.8-1.8s0.8-1.8,1.8-1.8s1.8,0.8,1.8,1.8S242.2,184.7,241.2,184.7z M245.2,193.7
							c-1,0-1.8-0.8-1.8-1.8s0.8-1.8,1.8-1.8s1.8,0.8,1.8,1.8S246.2,193.7,245.2,193.7z M249.5,203.1c-1,0-1.8-0.8-1.8-1.8
							s0.8-1.8,1.8-1.8s1.8,0.8,1.8,1.8S250.5,203.1,249.5,203.1z M254,212.1c-1,0-1.8-0.8-1.8-1.8s0.8-1.8,1.8-1.8s1.8,0.8,1.8,1.8
							S255,212.1,254,212.1z M255.7,220.2c0-1,0.8-1.8,1.8-1.8c1,0,1.8,0.8,1.8,1.8s-0.8,1.8-1.8,1.8
							C256.5,222,255.7,221.2,255.7,220.2z"/>
					</g>
				</g>
				<g>
					<path class="st2" d="M106.2,276.2l-7.8,3.4c0.6,0.8,1.5,1.8,2.7,2.6c0.2,0.1,0.4,0.3,0.6,0.4l6.2-2.7L106.2,276.2z"/>
				</g>
				<g>
					<path class="st2" d="M102.8,283.1c3.1,1.5,6.2,1.2,7.2,1.1l-1.6-3.5L102.8,283.1z"/>
				</g>
				<g>
					<path class="st2" d="M104,271.4l-7.9,3.4c0.6,1.3,1.2,2.6,1.8,3.9c0,0,0,0,0,0l8-3.4L104,271.4z"/>
				</g>
				<g>
					
						<ellipse transform="matrix(0.2367 -0.9716 0.9716 0.2367 44.0427 189.1516)" class="st10" cx="142.4" cy="66.5" rx="5.7" ry="2.5"/>
				</g>
				<g>
					
						<ellipse transform="matrix(0.2367 -0.9716 0.9716 0.2367 60.8627 228.6332)" class="st10" cx="175.9" cy="75.6" rx="5.7" ry="2.5"/>
				</g>
				<g>
					<path class="st12" d="M162.5,96c3.6-2.8,4.3-6.7,4.4-7.5c-3.3-1.1-6.8-2.1-10.6-3c-4.4-1.1-8.5-1.9-12.4-2.5
						c0,1.2,0.1,2.8,0.5,4.7c0.5,2.4,0.9,4.3,2.2,6.1c2.6,3.6,6.8,4.3,7.3,4.4C158.5,99,161.9,96.5,162.5,96z"/>
				</g>
				<g>
					<path class="st13" d="M88.6,237.9l-5.2,2.2c-0.1,0.3-0.2,0.7-0.3,1.1l5.9-2.5L88.6,237.9z"/>
				</g>
				<g>
					<path class="st13" d="M90.8,242.6l-7.4,3.2c0.1,0.3,0.2,0.6,0.3,0.9l7.5-3.2L90.8,242.6z"/>
				</g>
				<g>
					<path class="st13" d="M92.9,247.2l-7.6,3.3c0.1,0.3,0.2,0.6,0.4,0.8l7.6-3.3L92.9,247.2z"/>
				</g>
				<g>
					<path class="st13" d="M95.3,252.5l-0.2-0.4l-7.7,3.3c0.1,0.1,0.1,0.3,0.2,0.4c0.1,0.1,0.1,0.3,0.2,0.4l7.7-3.3L95.3,252.5z"/>
				</g>
				<g>
					<path class="st13" d="M97.5,257.2l-0.2-0.4l-7.7,3.3c0.1,0.1,0.1,0.3,0.2,0.4c0.1,0.1,0.1,0.3,0.2,0.4l7.7-3.3L97.5,257.2z"/>
				</g>
				<g>
					<path class="st13" d="M99.4,261.3l-7.8,3.3c0.1,0.3,0.2,0.6,0.4,0.8l7.8-3.3L99.4,261.3z"/>
				</g>
				<g>
					<path class="st13" d="M101.5,265.9l-7.8,3.4c0.1,0.3,0.2,0.6,0.4,0.8l7.9-3.4L101.5,265.9z"/>
				</g>
				<g>
					<path class="st13" d="M103.7,270.6l-7.9,3.4c0.1,0.3,0.2,0.6,0.4,0.8l7.9-3.4L103.7,270.6z"/>
				</g>
				<g>
					<path class="st13" d="M105.9,275.3l-8,3.4c0.2,0.2,0.3,0.5,0.5,0.8l7.8-3.4L105.9,275.3z"/>
				</g>
				<g>
					<path class="st13" d="M107.9,279.9l-6.2,2.7c0.3,0.2,0.7,0.4,1,0.6l5.6-2.4L107.9,279.9z"/>
				</g>
				<g>
					<g>
						<path class="st14" d="M62.6,248c-9.8-0.6-17.2,5.7-27.1,14.2c-5.5,4.7-8.9,8.9-13.6,14.7c-5.1,6.3-11.3,14.7-17.6,25.1
							c14.1,2.8,25.9,3.5,34.5,3.5c12.8,0,19.7-1.4,23.6-2.3c10.4-2.5,16.9-4.1,21.4-10c6.3-8.1,5.6-20,1.7-28.3
							C81.4,256.5,72.8,248.7,62.6,248z M85,284c-2.3,6.7-8.3,9.8-10,10.6c-2,0.9-15.9,6.6-27.4-0.6c-1.8-1.1-6.4-4-8.3-9.5
							c-3.1-9.1,3.6-17.9,5.8-20.8C51,256,58.9,253.1,62.5,252c2.3-0.1,6.9,0.1,11.5,2.9c6.1,3.7,8.2,9.7,9.6,13.9
							C85.2,273.5,86.9,278.4,85,284z"/>
					</g>
				</g>
				<g>
					<g>
						<path class="st15" d="M74,254.9c-4.5-2.8-9.2-3-11.5-2.9c-3.6,1.1-11.5,4-17.3,11.6c-2.2,2.9-8.9,11.8-5.8,20.8
							c1.9,5.5,6.5,8.4,8.3,9.5c11.5,7.2,25.4,1.5,27.4,0.6c1.7-0.8,7.6-3.9,10-10.6c2-5.6,0.3-10.5-1.4-15.2
							C82.1,264.6,80,258.6,74,254.9z M81.9,279.3c-0.2,0.4-1.2,2.2-4.4,3.7c-6.7,3-18.2,2.5-21.1-4c-2.2-4.8,1.3-10.8,2.1-12.3
							c1.8-3,4-4.8,5.1-5.5c1.9-1.4,3.6-2.7,6.1-2.8c2.3-0.1,4,1,4.9,1.5c3.5,2.2,4.9,5.7,6.1,9C82.2,273,83.5,276.3,81.9,279.3z"/>
					</g>
				</g>
				<g>
					<path class="st16" d="M74.6,260c-0.9-0.6-2.6-1.6-4.9-1.5c-2.5,0.1-4.3,1.4-6.1,2.8c-1,0.8-3.3,2.5-5.1,5.5
						c-0.8,1.4-4.3,7.4-2.1,12.3c3,6.5,14.5,7,21.1,4c3.2-1.5,4.2-3.3,4.4-3.7c1.5-2.9,0.3-6.2-1.2-10.3
						C79.4,265.6,78.1,262.1,74.6,260z"/>
				</g>
				<g>
					<circle class="st17" cx="232.2" cy="163.9" r="1.8"/>
				</g>
				<g>
					<circle class="st17" cx="236.3" cy="173.1" r="1.8"/>
				</g>
				<g>
					<circle class="st17" cx="241.2" cy="182.9" r="1.8"/>
				</g>
				<g>
					<circle class="st17" cx="249.5" cy="201.2" r="1.8"/>
				</g>
				<g>
					<circle class="st17" cx="245.2" cy="191.9" r="1.8"/>
				</g>
				<g>
					<circle class="st17" cx="254" cy="210.3" r="1.8"/>
				</g>
				<g>
					<circle class="st17" cx="257.5" cy="220.2" r="1.8"/>
				</g>
			</g>
			<g>
				<g>
					<g>
						<path class="st9" d="M211.9,132.1c0,0,0-1-0.1-2.5c-0.1-2.5-0.2-6.2-0.2-9c0-4.3,0.7-11.1,0.7-11.4c-13.9,0.5-25.4-0.2-34-1.1
							c-8.8-0.9-15.8-1.7-24.8-4.3c-11.2-3.2-19.9-7.7-25.8-11.2c-1.6-1-4-2.6-6.6-4.9c-0.9,0.9-1.8,1.9-2.7,2.8
							c-1.3,1.3-2.6,2.6-3.9,3.9c4.6,4.1,8.9,7.2,12.3,9.4c-0.1,3.7-0.1,8.8,0.2,14.9c0.4,7.5,0.8,15.5,2.7,24.8
							c1.4,6.6,3.9,15.9,9.2,26.5l74.5-21C212.7,145,211.9,132.1,211.9,132.1z M197.3,120.6c-1.2,1.2-2.3,2.5-3.5,3.7
							c-0.9,2.2-2.5,5.6-5.5,9c0,0-3.7,4.1-9.2,6.8c-11.2,5.6-24.1,2.9-27.3,2.1c-1.8-3.5-3.7-7.1-5.5-10.6c0.5-0.2,1-0.5,1.5-0.7
							c-0.3-0.6-0.6-1.2-0.9-1.7c3.5-1.7,7.1-3.3,10.6-5c6.1,3.5,11.5,4.4,14.7,4.7c3.7,0.3,7.3,0.6,11.1-1.4c2.4-1.3,4-3,5-4.5
							c0.5-0.6,0.8-1.2,1.1-1.7l-2.3-3.8l-0.6-1.1l1.9-2.1h8.2l1.2,3.9c-0.3,0.4-0.7,0.7-1,1.1L197.3,120.6z"/>
					</g>
				</g>
				<g>
					<path class="st18" d="M188.9,130.8c0,0-3.7,4.1-9.2,6.8c-11.2,5.6-24.1,2.9-27.3,2.1c-1.5-3-3.1-5.9-4.6-8.9
						c-0.5,0.2-1,0.5-1.5,0.7c1.8,3.5,3.7,7.1,5.5,10.6c3.2,0.8,16,3.5,27.3-2.1c5.5-2.8,9.2-6.8,9.2-6.8c3-3.4,4.6-6.7,5.5-9
						c1.2-1.2,2.3-2.5,3.5-3.7l-0.4-1.4c-0.8,0.9-1.6,1.7-2.4,2.6C193.6,124,191.9,127.4,188.9,130.8z"/>
				</g>
				<g>
					<path class="st19" d="M196.7,114.2h-8.2l-1.9,2.1l0.6,1.1l2.3,3.8c-0.3,0.5-0.6,1-1.1,1.7c-1.1,1.5-2.7,3.2-5,4.5
						c-3.8,2-7.4,1.8-11.1,1.4c-3.2-0.3-8.6-1.2-14.7-4.7c-3.5,1.7-7.1,3.3-10.6,5c0.3,0.6,0.6,1.2,0.9,1.7c1.5,3,3.1,5.9,4.6,8.9
						c3.2,0.8,16,3.5,27.3-2.1c5.5-2.8,9.2-6.8,9.2-6.8c3-3.4,4.6-6.7,5.5-9c0.8-0.9,1.6-1.7,2.4-2.6c0.3-0.4,0.7-0.7,1-1.1
						L196.7,114.2z"/>
				</g>
			</g>
			<g>
				<g>
					<path class="st20" d="M118.1,192c-10.7-2.9-32.8-7-55.9,2.9c-8.2,3.5-14.7,8.1-19.6,12.3c-1.4,1.5-1.6,3.8-0.5,5.4
						c1.2,1.8,3.6,2.4,5.6,1.3c2.6-0.5,15.6-2.8,27.4,5.5c4.4,3.1,7.3,6.7,9.2,9.8c2.7-4.4,7.3-11.4,13-17.5
						C103.1,205.6,112.2,197.3,118.1,192z"/>
				</g>
				<g>
					<path class="st21" d="M100.2,213.8c5.7-8.1,21-20.8,21-20.8c-0.9-0.3-1.9-0.6-3.1-0.9c-6,5.3-15,13.5-20.8,19.7
						c-5.7,6.1-10.4,13.1-13,17.5c1.1,1.8,1.9,3.4,2.4,4.5C86.7,233.8,94.5,221.8,100.2,213.8z"/>
				</g>
				<g>
					<path class="st21" d="M162.3,288.5c0.7-1.4,1.3-2.7,1.8-3.9c0,0-11.7,2.6-23.8,2.6c-11.1,0-27.4-2-30-2.3
						c0.5,0.9,1.2,2.4,2,4.4c5.5,0.6,14.2,1.4,23.9,1.5C146.2,290.9,156.1,289.5,162.3,288.5z"/>
				</g>
				<g>
					<path class="st20" d="M136.1,290.7c-9.7-0.1-18.4-0.9-23.9-1.5c1.6,4.6,3.1,11.8,0.6,19.9c-3.6,11.5-12.4,17.5-14.3,18.6
						c-1.4,1.3-1.9,3.2-1.3,4.9c0.7,2.1,2.9,3.4,5.3,3.1c8.7-2.1,26.8-7.7,42.9-23.7c8.3-8.2,13.6-16.7,17-23.5
						C156.1,289.5,146.2,290.9,136.1,290.7z"/>
				</g>
			</g>
			<g>
				<g>
					<path class="st22" d="M244.1,199.6L225,158c-3.2,0-6.3,0-9.5,0l-9.5,0.6l-8.9,0.3c-8.5,2.3-17.2,4.8-26.2,7.7
						c-6.5,2.1-12.7,4.2-18.7,6.4c1,5.2,1.6,11.4,2.6,17L136,202.7l0.1,0.7c0,0,5,0.3,6.8,3.4c1.8,3.2,2.4,15.1-1.6,16.2
						c-1.5,0.4-3.2-1.6-4.6-4.1c-0.6,1.4-1.4,2.5-2.5,2.8c-3.8,1.1-7.4-11.6-7.4-11.6s-2.5-8-2-9.3c0.5-1.3,18.6-13.6,18.6-13.6
						l-2.3-7.3c-6.6,4.4-13.2,8.7-19.8,13.1c0,0-15.3,12.8-21,20.8c-5.7,8.1-13.5,20-13.5,20l1.9,4.2l0.4,0.8l1.8,3.8l0.4,0.8
						l1.7,3.7l0.4,0.8l1.9,4l0.2,0.4l0.2,0.4l1.8,3.9l0.2,0.4l0.2,0.4l1.7,3.6l0.4,0.8l1.8,3.8l0.4,0.8
						c24.3-8.7,50.5-19.4,78.1-32.7C203.3,222.8,224.7,211.2,244.1,199.6z"/>
				</g>
				<g>
					<path class="st8" d="M180,234.1c-27.6,13.3-53.8,24-78.1,32.7l0,0l1.8,3.8l0.4,0.8l1.8,4l0.4,0.8l1.7,3.7l0.4,0.8l1.6,3.5
						c0.1,0.1,0.2,0.4,0.4,0.6c2.6,0.3,18.9,2.3,30,2.3c12,0,23.8-2.6,23.8-2.6c18.3-3.9,32.6-10,42.3-14.9
						c11-5.6,33.1-17.1,51.4-40.4l-13.6-29.7C224.7,211.2,203.3,222.8,180,234.1z"/>
				</g>
			</g>
		</g>
	</g>
</g>
</svg>
