<?xml version="1.0" encoding="utf-8"?>
<!-- Generator: Adobe Illustrator 19.2.0, SVG Export Plug-In . SVG Version: 6.00 Build 0)  -->
<svg version="1.1" id="圖層_1" xmlns="http://www.w3.org/2000/svg" xmlns:xlink="http://www.w3.org/1999/xlink" x="0px" y="0px"
	 viewBox="0 0 81.1 79.5" style="enable-background:new 0 0 81.1 79.5;" xml:space="preserve">
<style type="text/css">
	.st0{fill-rule:evenodd;clip-rule:evenodd;}
	.st1{fill-rule:evenodd;clip-rule:evenodd;fill:#FFFFFF;}
</style>
<g>
	<path class="st0" d="M1.9,4.6c2.2-1.4,4.5-2.7,6.7-4.1c0.7,1.1,1.3,2.2,2,3.3C8.3,5.1,6.1,6.5,3.9,7.8C3.2,6.7,2.5,5.7,1.9,4.6z
		 M0.4,9.9c1.2-0.7,2.3-1.4,3.5-2.1c9,14.7,17.9,29.4,26.9,44.1c-1.2,0.7-2.3,1.4-3.5,2.1c-2.1-3.4-4.1-6.8-6.2-10.2
		c-1.1,0.7-2.2,1.3-3.3,2c-0.7-1.1-1.3-2.2-2-3.3c1.1-0.7,2.2-1.3,3.3-2C12.8,30.3,6.6,20.1,0.4,9.9z M10.6,3.7
		c1.2-0.7,2.3-1.4,3.5-2.1c2.8,4.6,5.6,9.1,8.3,13.7c2.2-1.4,4.5-2.7,6.7-4.1c0.7,1.1,1.3,2.2,2,3.3c-2.2,1.4-4.5,2.7-6.7,4.1
		c2.8,4.6,5.6,9.1,8.3,13.7c-1.2,0.7-2.3,1.4-3.5,2.1C23,24.1,16.8,13.9,10.6,3.7z M31.1,14.4c3.4-2.1,6.8-4.1,10.2-6.2
		c0.7,1.2,1.4,2.3,2.1,3.5c-2.2,1.4-4.5,2.7-6.7,4.1c2.1,3.4,4.1,6.8,6.2,10.2c-1.2,0.7-2.3,1.4-3.5,2.1
		C36.7,23.5,33.9,19,31.1,14.4z M43.4,11.7c2.2-1.4,4.5-2.7,6.7-4.1c0.7,1.2,1.4,2.3,2.1,3.5c-1.1,0.7-2.2,1.3-3.3,2
		c2,3.3,4.1,6.7,6.1,10c-1.2,0.7-2.3,1.4-3.5,2.1C48.9,20.7,46.2,16.2,43.4,11.7z M52.3,11.1c1.2-0.7,2.3-1.4,3.5-2.1
		c0.7,1.1,1.3,2.2,2,3.3c-1.2,0.7-2.3,1.4-3.5,2.1C53.6,13.2,52.9,12.1,52.3,11.1z M3.5,45.3c3.4-2.1,6.8-4.1,10.2-6.2
		c0.7,1.2,1.4,2.3,2.1,3.5c-2.2,1.4-4.5,2.7-6.7,4.1c1.4,2.2,2.7,4.5,4.1,6.7c-1.2,0.7-2.3,1.4-3.5,2.1C7.6,52.1,5.6,48.7,3.5,45.3z
		 M57.7,12.2c1.2-0.7,2.3-1.4,3.5-2.1c4.9,8,9.7,15.9,14.6,23.9c-1.2,0.7-2.3,1.4-3.5,2.1C67.4,28.1,62.6,20.1,57.7,12.2z
		 M13.2,53.4c1.1-0.7,2.2-1.3,3.3-2c0.7,1.2,1.4,2.3,2.1,3.5c-1.1,0.7-2.2,1.3-3.3,2C14.6,55.7,13.9,54.5,13.2,53.4z M18.5,54.8
		c1.2-0.7,2.3-1.4,3.5-2.1c1.4,2.2,2.7,4.5,4.1,6.7c-1.2,0.7-2.3,1.4-3.5,2.1C21.3,59.3,19.9,57.1,18.5,54.8z M26.1,59.5
		c1.1-0.7,2.2-1.3,3.3-2c1.4,2.2,2.7,4.5,4.1,6.7c-1.1,0.7-2.2,1.3-3.3,2C28.9,63.9,27.5,61.7,26.1,59.5z M68.8,38.2
		c1.2-0.7,2.3-1.4,3.5-2.1c2,3.3,4.1,6.7,6.1,10c-1.2,0.7-2.3,1.4-3.5,2.1C72.9,44.8,70.8,41.5,68.8,38.2z M33.5,64.2
		c1.2-0.7,2.3-1.4,3.5-2.1c1.4,2.2,2.7,4.5,4.1,6.7c-1.2,0.7-2.3,1.4-3.5,2.1C36.2,68.7,34.8,66.4,33.5,64.2z M41.1,68.8
		c1.2-0.7,2.3-1.4,3.5-2.1c1.4,2.3,2.8,4.6,4.2,6.9c9-5.5,18.1-11,27.1-16.5c-1.4-2.3-2.8-4.6-4.2-6.9c1.1-0.7,2.2-1.3,3.3-2
		c2.1,3.4,4.1,6.8,6.2,10.2C69.8,65.2,58.6,72.1,47.3,79C45.2,75.6,43.1,72.2,41.1,68.8z"/>
	<polygon class="st1" points="3.9,7.8 10.6,3.7 29.3,34.3 32.7,32.2 24.4,18.5 31.1,14.4 39.5,28.1 42.9,26 36.7,15.8 43.4,11.7 
		51.6,25.1 55.1,23 49,13 52.3,11.1 54.3,14.3 57.7,12.2 72.3,36.1 68.8,38.2 74.9,48.2 71.7,50.1 75.9,57.1 48.8,73.6 44.5,66.7 
		41.1,68.8 37,62.1 33.5,64.2 29.4,57.5 26.1,59.5 22,52.7 18.5,54.8 16.4,51.4 13.2,53.4 9.1,46.6 15.8,42.5 17.8,45.8 21,43.8 
		27.3,54 30.7,51.9 	"/>
</g>
</svg>
