<?xml version="1.0" encoding="utf-8"?>
<!-- Generator: Adobe Illustrator 19.2.0, SVG Export Plug-In . SVG Version: 6.00 Build 0)  -->
<svg version="1.1" id="圖層_1" xmlns="http://www.w3.org/2000/svg" xmlns:xlink="http://www.w3.org/1999/xlink" x="0px" y="0px"
	 viewBox="0 0 490 116.9" style="enable-background:new 0 0 490 116.9;" xml:space="preserve">
<style type="text/css">
	.st0{opacity:0.35;}
	.st1{stroke:#000000;stroke-width:7.8078;stroke-linecap:round;stroke-linejoin:round;stroke-miterlimit:10;}
	.st2{fill:#FFFFFF;stroke:#603813;stroke-width:7.8078;stroke-linecap:round;stroke-linejoin:round;stroke-miterlimit:10;}
	.st3{fill:#FFFFFF;}
</style>
<g>
	<g class="st0">
		<path class="st1" d="M48.3,24.1c-2.5,2.8-5.5,5.8-8,8.1c2.9,3,6.3,5.4,10.2,7.1c-1.6,1.3-3.7,4-4.8,5.9c-5.6-3-10-7.6-13.4-13.1
			v9.4c0,3.6-0.7,5.4-2.7,6.4c-2.1,1.1-5.1,1.3-9.1,1.3c-0.3-1.9-1.3-4.9-2.2-6.8c2.5,0.1,5.3,0.1,6.2,0.1c0.9,0,1.2-0.3,1.2-1.1
			v-5.2c-4.7,3.2-9.7,6.3-13.8,8.9l-4.2-6c4.3-2.1,11.5-6.1,18-9.8v-9.9H9.1V13h16.5V6.7h6.7V13h6.8c-1.5-0.9-3.2-1.8-4.7-2.6
			l3.8-4.1c2.6,1.2,6.4,3,8.4,4.5l-2,2.2h4.6v6.3H32.3v0.5c1.1,2.7,2.5,5.3,4.2,7.7c2.2-2.3,4.5-5,6-7.4L48.3,24.1z M17.2,32.4
			c-1.3-2.4-4.3-6-6.9-8.5l4.9-3.5c2.6,2.3,5.9,5.7,7.3,8.1L17.2,32.4z"/>
		<path class="st1" d="M69.6,13.9v35.2h-4.7v-7.6L57.2,43l-1.1-5.4c0.6-0.1,1.3-0.2,2-0.3V13.9h-1.5V8.1h14.3v5.8H69.6z M64.9,13.9
			h-2.2v3.9h2.2V13.9z M64.9,23h-2.2v3.8h2.2V23z M64.9,36.3v-4.3h-2.2v4.6L64.9,36.3z M98.8,28.3c-1.4,4.3-3.4,8.2-5.9,11.5
			c0.3,1.4,0.7,2.2,1.1,2.2c0.4,0,0.8-1.7,1-4.7c0.8,1.3,3,3,3.8,3.6c-1.2,6.8-3.5,8.2-5.1,8.2c-2.1,0-3.6-1.7-4.8-4.7
			c-1.9,1.9-4,3.4-6.2,4.7c-0.7-1-2.3-2.7-3.5-3.6c0.9-0.5,1.7-1,2.5-1.6h-2.1v-1h-3v3.3h-4.8v-20h12.5v15.5c1.1-1,2.1-2.1,3.1-3.2
			c-0.7-3.7-1.2-8.2-1.5-13.4H70.6v-5.4H72c-0.2-1.2-0.4-2.5-0.7-3.5l3.8-0.6h-3.5v-4.9h3.6c-0.3-1.1-0.5-2.2-0.8-3.2l5.3-0.9
			c0.4,1.2,0.9,2.7,1.2,4h3.8v4.9h-4.1l3.5,0.5c-0.4,1.3-0.8,2.6-1.1,3.7h2.6c-0.2-4-0.3-8.4-0.3-13.1h5.5c0,1.3,0,2.6,0,3.9
			l3.9-1.3c1.1,2.6,2.4,6.2,2.9,8.3l-4.8,1.7c-0.3-1.8-1.2-4.6-2-7c0,2.6,0.1,5,0.2,7.4h7.3v5.4h-7.1c0.1,2.3,0.3,4.5,0.5,6.4
			c0.9-1.8,1.6-3.8,2.2-5.8L98.8,28.3z M75.7,15.5c0.4,1.3,0.7,2.9,0.9,4.2h2c0.3-1.3,0.5-3,0.7-4.2H75.7z M76.7,30.4v2h3v-2H76.7z
			 M79.7,38.6v-2h-3v2H79.7z"/>
		<path class="st1" d="M123.4,19.9c-0.1,1.5-0.2,3-0.3,4.4h19.3c0,0,0,1.9-0.2,2.7c-0.8,12-1.7,17.1-3.6,19.2
			c-1.5,1.7-3.1,2.1-5.4,2.4c-1.8,0.2-4.8,0.2-7.8,0.1c-0.1-1.9-1.1-4.6-2.4-6.4c3,0.3,6.2,0.3,7.6,0.3c0.9,0,1.6-0.1,2.2-0.6
			c1.1-0.9,1.9-4.5,2.4-11.4h-13.1c-1.5,7.3-4.8,14.1-12.8,18.8c-1-1.8-3-4.1-4.7-5.4c10.4-5.7,11.1-15.1,11.5-24.1h-10.9v-6.4h18.5
			c-0.6-1.7-1.6-3.7-2.4-5.2l6.4-2.4c1.2,2,2.6,4.6,3.3,6.4l-3,1.3h18.2v6.4H123.4z"/>
		<path class="st1" d="M193,41.9c0,3.3-0.7,5.1-2.7,6.1c-2.1,1-5,1.2-9,1.2c-0.2-1.8-1.2-4.8-2.1-6.5c2.3,0.2,5.3,0.2,6.2,0.1
			c0.8,0,1.1-0.2,1.1-1V20.4h-24.7v28.7h-6.5V14h12.4c0.9-2.4,1.7-5.1,2.1-7.3l8.4,1.2c-1,2.1-2,4.3-3,6.2H193V41.9z M171.1,39.5
			v3.1h-5.9V23.8h17.6v15.7H171.1z M171.1,29.4v4.4h5.8v-4.4H171.1z"/>
		<path class="st1" d="M208.9,34.8c-1.7-1.4-5.4-3.6-7.8-5.1l3.6-4.3c2.4,1.3,6.1,3.4,8,4.7L208.9,34.8z M211.2,15h-9.1V9.5h9.1V6.6
			h6.4v2.9h4V15h-4v3.1h-6.4V15z M202.2,43c3-2.3,7.4-6.3,11.2-10.3l3.4,5.2c-3.2,3.6-6.8,7.2-10.2,10.7L202.2,43z M207.2,17.5
			c2.3,1.3,6.1,3.4,8.1,4.6l-3.8,4.8c-1.7-1.3-5.5-3.6-7.9-5.1L207.2,17.5z M225.2,27.1v11.7c0,1.9,0.4,2.6,2.2,2.6h8.2
			c1.8,0,4.5-0.2,5.8-0.5c0.2,1.7,0.4,4.1,0.7,5.6c-1.3,0.4-4,0.4-6.2,0.4h-8.5c-6.8,0-8.8-2.3-8.8-8.4V27.1h-3.4v-5.9h10.8
			l-1.1-2.1l2.4-1H227V15h-3.9V9.5h3.9V6.6h6.5v2.9h9.1V15h-9.1v3.1h-1.8c0.6,1,1.3,2.1,1.9,3.1h9.7v5.9H225.2z"/>
		<path class="st1" d="M257.2,34.8c-1.7-1.4-5.4-3.6-7.8-5.1l3.6-4.3c2.4,1.3,6.1,3.4,8,4.7L257.2,34.8z M259.6,15h-9.1V9.5h9.1V6.6
			h6.4v2.9h4V15h-4v3.1h-6.4V15z M250.6,43c3-2.3,7.4-6.3,11.2-10.3l3.4,5.2c-3.2,3.6-6.8,7.2-10.2,10.7L250.6,43z M255.5,17.5
			c2.3,1.3,6.1,3.4,8.1,4.6l-3.8,4.8c-1.7-1.3-5.5-3.6-7.9-5.1L255.5,17.5z M273.6,27.1v11.7c0,1.9,0.4,2.6,2.2,2.6h8.2
			c1.8,0,4.5-0.2,5.8-0.5c0.2,1.7,0.4,4.1,0.7,5.6c-1.3,0.4-4,0.4-6.2,0.4h-8.5c-6.8,0-8.8-2.3-8.8-8.4V27.1h-3.4v-5.9h10.8
			l-1.1-2.1l2.4-1h-0.3V15h-3.9V9.5h3.9V6.6h6.5v2.9h9.1V15h-9.1v3.1h-1.8c0.6,1,1.3,2.1,1.9,3.1h9.7v5.9H273.6z"/>
		<path class="st1" d="M334.4,37c-0.9-3-2.8-7.1-4.9-11.1c-1.7,4.5-4.6,9-9.8,12.6c-1.2-1.3-3.3-3.1-4.9-4.2
			c5.8-4.1,8.4-8.9,9.6-13.2H320v-2.3c-3.3,9.8-9.2,15.9-16.8,19.2c-0.9-1.4-3.1-4-4.5-5c5.3-2,9.5-5.1,12.5-9.8
			c-1.6-1.2-3.7-2.6-5.7-3.7c-1.5,1.7-3.1,3.4-4.8,4.7c2.1-0.5,4.7-1.3,7.4-2l0.7,3.9c-2.9,1.2-5.7,2.3-8.4,3.4l-1.2-5l0.6-0.1
			c-0.5-1.6-1.5-4.2-2.3-5.6c3.9-3,7.3-8.3,8.8-12.8l6,1.8c-0.3,0.8-0.7,1.6-1.1,2.4h5.4l1.1-0.2l4.1,1.5c-0.2,1.2-0.5,2.3-0.8,3.4
			h4.1c0-0.4,0-0.8,0-1.2V7.3h6.1v1.9l4.3-2.3c1.4,1.7,3.1,4.1,3.8,5.8l-4.2,2.3h4.6v6.1h-6.5c2.6,4.4,5.5,9.6,6.8,13.2L334.4,37z
			 M297.7,46.8c1.7-2.1,3.9-5.7,5.3-8.9l6.2,1.6c-1.4,3.3-3.6,7.3-5.3,9.8L297.7,46.8z M308.2,15.7c1.7,0.9,3.7,2,5.3,3
			c0.4-1.1,0.8-2.3,1.2-3.5h-6.1L308.2,15.7z M316.9,39.2c0.6,2.8,1.1,6.4,1.2,8.6l-6.4,0.9c0-2.2-0.3-6-0.8-8.9L316.9,39.2z
			 M325.9,38.8c1.1,2.7,2.1,6.2,2.5,8.5l-6.4,1.3c-0.2-2.2-1.2-5.9-2.1-8.7L325.9,38.8z M334.8,37.5c1.9,2.7,4.4,6.5,5.5,9l-6.2,2.8
			c-0.9-2.5-3.2-6.4-5.1-9.4L334.8,37.5z M331.4,15h3c-0.7-1.5-1.9-3.5-3-5.1v4V15z"/>
		<path class="st1" d="M364.7,20.9c0-2.5-2.1-3.6-5.1-3.6c-2.6,0-4.6,1.2-6.4,3.2l-4.4-4c2.8-3.4,7-5.6,11.7-5.6
			c6.6,0,11.7,2.9,11.7,9.3c0,6.4-9.3,6.9-8.9,12.8h-7C355.8,26.2,364.7,24.8,364.7,20.9z M360,35.6c3.1,0,5.3,2,5.3,4.9
			s-2.2,5-5.3,5s-5.3-2.1-5.3-5S356.9,35.6,360,35.6z"/>
		<path class="st1" d="M24.7,95c-1.6,0.4-3.3,0.9-4.9,1.3v9.6c0,3-0.5,4.5-2.2,5.5c-1.7,1-4,1.2-7.3,1.2c-0.2-1.7-1-4.3-1.7-5.9
			c1.6,0,3.4,0,4,0c0.6,0,0.9-0.2,0.9-0.8v-8.1l-4.1,1l-1.6-6.2c1.7-0.3,3.6-0.7,5.7-1.1v-6.8H8.3v-6h5.1v-8.2h6.4v8.2h4.5v6h-4.5
			V90c1.4-0.3,2.8-0.7,4.2-1L24.7,95z M48.3,89.6c-1.9,4.3-4.8,8.5-8.1,12.1c0.9,1.6,2,2.6,3.3,2.8c0.9,0.1,1.4-1.9,1.7-6.7
			c1.3,1.4,4.2,3.2,5.4,3.8c-1.3,9-4.1,10.9-6.7,10.7c-3.8-0.4-6.7-2.4-8.8-5.8c-2.4,1.9-4.9,3.5-7.5,4.8c-1.2-1.7-3.4-3.7-5.2-5
			c3.6-1.4,7-3.5,10-6c-1.1-3.5-1.8-7.8-2.2-12.8l-4.8,0.5l-0.6-6.2l5-0.4c-0.2-3.4-0.4-6.9-0.4-10.8h6.7c0,3.6,0.1,7,0.3,10.2
			l6.1-0.5c-1.3-1.8-3.7-4.6-5.5-6.6l5-3.2c1.8,2,4.6,4.8,6,6.5L43,80.1l6.4-0.6l0.6,6l-13.4,1.3c0.3,3,0.7,5.6,1.2,7.9
			c2.1-2.6,3.9-5.5,5.2-8.5L48.3,89.6z"/>
		<path class="st1" d="M98.2,103.4v6.6H56.9v-6.6h16.6V81.6H59.4v-6.8h36.1v6.8H81v21.8H98.2z"/>
		<path class="st1" d="M120.1,72.5c-1.1,3-2.5,6.1-4.1,9.1v31.2h-6.6V91.7c-0.6,0.8-1.3,1.4-1.9,2.1c-0.6-1.6-2.4-5.4-3.5-7
			c3.9-3.9,7.6-10.1,9.8-16.2L120.1,72.5z M135,83.7v3.7h10.9v5.9H135v4h11.5v6H135v9.4h-6.7V83.7h-0.9c-1.8,3.2-3.7,6.1-5.7,8.3
			c-1-1.2-3.5-3.5-4.9-4.6c3.9-3.9,7.4-10.4,9.4-16.8l6.3,1.7c-0.6,1.7-1.3,3.5-2,5.2h16.7v6.2H135z"/>
		<path class="st1" d="M174.4,106.8c0,2.6-0.5,4.1-2.1,5c-1.7,0.9-3.7,1-6.4,1c-0.3-1.6-1.2-4-2-5.5c1.3,0.1,3,0.1,3.5,0
			c0.5,0,0.7-0.2,0.7-0.7v-2.8h-6.6c-0.5,3.3-1.5,6.5-3.3,9c-1-1-3.5-3-4.9-3.6c2.7-3.9,3-9.6,3-13.9V85.1h18.1V106.8z M194.7,76.7
			v5.9h-41.1v-5.9h8.7c-0.7-1.4-1.9-3-3-4.3l6.2-2.1c1.6,1.7,3.3,3.9,4,5.6l-2.5,0.8h11.8c1.3-2,2.6-4.5,3.4-6.5l7.1,2.1
			c-1,1.6-2,3.1-3,4.4H194.7z M168.1,99.2v-2h-6c0,0.7,0,1.3,0,2H168.1z M162.1,90.2v2.2h6v-2.2H162.1z M183.2,104h-6V85.6h6V104z
			 M186.2,84.5h6.4V106c0,3-0.5,4.6-2.5,5.6c-1.9,1-4.4,1.2-7.6,1.1c-0.3-1.7-1.3-4.5-2.3-6.1c2,0.1,4.3,0.1,5.1,0.1
			c0.7,0,0.9-0.2,0.9-0.8V84.5z"/>
		<path class="st1" d="M229.4,85.1c4.5,3.5,11.5,8.8,14.7,12.4l-5.6,5c-2.5-3.2-7.9-7.9-12.4-11.7v21.9h-7.2V92.5
			c-3.8,3.9-8.2,7.4-13.2,9.9c-1-1.7-3.1-4.5-4.5-6c7.8-3.6,14.4-10.1,18.4-16.6h-16.9v-6.7h39.3v6.7h-13.8
			c-0.7,1.3-1.5,2.5-2.3,3.7v4.3L229.4,85.1z"/>
		<path class="st1" d="M269.6,83.4c-0.2,5-1,11.1-3.9,16.9c2.2,2.1,4.3,4,5.7,5.6l-4.9,4.9c-1.1-1.4-2.7-3.1-4.5-4.9
			c-2.1,2.5-4.7,4.7-8,6.7c-1-1.5-3.2-3.8-4.7-5c3.3-1.9,5.9-4.1,7.8-6.5c-2.5-2.3-4.9-4.6-7-6.5c0.8-2.8,1.7-6.3,2.3-10.1l-2.5,0.2
			l-0.6-6.4l4.2-0.2c0.4-2.6,0.6-5.1,0.8-7.6l6.9,0.4c-0.2,2.2-0.5,4.5-0.9,6.8l2.9-0.1v-2.1h6.4v1.7l1.3-0.1l0,6.1L269.6,83.4z
			 M260.4,95.8c1.8-4.1,2.5-8.4,2.7-11.9l-3.9,0.2c-0.6,3.1-1.2,6.2-1.9,9L260.4,95.8z M290,74.8v36.1h-6.4v-2.6h-5.7v3.3h-6.1V74.8
			H290z M283.5,102.2V80.9h-5.7v21.2H283.5z"/>
		<path class="st1" d="M332.2,106c1.2,0,1.4-0.8,1.6-5.8c1.3,1,4.2,2.1,5.9,2.6c-0.6,7.3-2.3,9.4-6.8,9.4h-4.6c-5.6,0-6.9-2-6.9-7.8
			v-9.7h-5.4c-0.9,7.6-3.3,14.3-13.6,18.4c-0.8-1.7-2.6-4.4-4.1-5.8c8.6-2.8,10.1-7.5,10.8-12.6h-10v-6.3h16.9v-6.3H309
			c-1,2.2-2,4.2-3.2,5.8c-1.5-1-4.2-2.3-5.8-2.9c2.9-3.6,4.9-9.7,5.8-14.3l6.6,1.3c-0.4,1.3-0.7,2.6-1.1,3.8h4.6v-5.5h6.6v5.5h13.1
			v6.2h-13.1v6.3h16.8v6.3h-11.5v9.6c0,1.6,0.2,1.7,1.4,1.7H332.2z"/>
		<path class="st1" d="M363,95c-1.6,0.4-3.3,0.9-4.9,1.3v9.6c0,3-0.5,4.5-2.2,5.5c-1.7,1-4,1.2-7.3,1.2c-0.2-1.7-1-4.3-1.7-5.9
			c1.6,0,3.4,0,4,0c0.6,0,0.8-0.2,0.8-0.8v-8.1l-4.1,1l-1.6-6.2c1.7-0.3,3.6-0.7,5.7-1.1v-6.8h-5.1v-6h5.1v-8.2h6.4v8.2h4.5v6h-4.5
			V90c1.4-0.3,2.8-0.7,4.2-1L363,95z M386.6,89.6c-1.9,4.3-4.8,8.5-8.1,12.1c0.9,1.6,2,2.6,3.3,2.8c0.9,0.1,1.4-1.9,1.7-6.7
			c1.3,1.4,4.2,3.2,5.4,3.8c-1.3,9-4.1,10.9-6.7,10.7c-3.8-0.4-6.7-2.4-8.8-5.8c-2.4,1.9-4.9,3.5-7.5,4.8c-1.2-1.7-3.4-3.7-5.2-5
			c3.6-1.4,7-3.5,10-6c-1.1-3.5-1.8-7.8-2.2-12.8l-4.8,0.5l-0.6-6.2l5-0.4c-0.2-3.4-0.4-6.9-0.4-10.8h6.7c0,3.6,0.1,7,0.3,10.2
			l6.1-0.5c-1.3-1.8-3.7-4.6-5.5-6.6l5-3.2c1.8,2,4.6,4.8,6,6.5l-4.7,3.2l6.4-0.6l0.6,6L375,86.9c0.3,3,0.7,5.6,1.2,7.9
			c2.1-2.6,3.9-5.5,5.2-8.5L386.6,89.6z"/>
		<path class="st1" d="M432.8,76v36.8h-6.9v-2.1h-19.9v2.1h-6.6V76h11.5c0.4-1.9,0.8-4,0.9-5.7l8,0.8c-0.6,1.7-1.3,3.4-2,4.9H432.8z
			 M405.9,82.2v3.4h19.9v-3.4H405.9z M405.9,91.6v3.5h19.9v-3.5H405.9z M425.8,104.7v-3.5h-19.9v3.5H425.8z"/>
		<path class="st1" d="M473.1,105.6c4.3,0,4.9-1,5.5-7.3c1.7,1,4.7,2.1,6.6,2.5c-1.1,8.9-3.3,11.3-11.9,11.3h-13.2
			c-9.1,0-12-1.9-12-9.1V87.1H473v-7.6h-25.5v-6.7h32.4v23.1H473v-2.4h-18.2v9.4c0,2.4,0.7,2.7,5.5,2.7H473.1z"/>
		<path d="M48.3,24.1c-2.5,2.8-5.5,5.8-8,8.1c2.9,3,6.3,5.4,10.2,7.1c-1.6,1.3-3.7,4-4.8,5.9c-5.6-3-10-7.6-13.4-13.1v9.4
			c0,3.6-0.7,5.4-2.7,6.4c-2.1,1.1-5.1,1.3-9.1,1.3c-0.3-1.9-1.3-4.9-2.2-6.8c2.5,0.1,5.3,0.1,6.2,0.1c0.9,0,1.2-0.3,1.2-1.1v-5.2
			c-4.7,3.2-9.7,6.3-13.8,8.9l-4.2-6c4.3-2.1,11.5-6.1,18-9.8v-9.9H9.1V13h16.5V6.7h6.7V13h6.8c-1.5-0.9-3.2-1.8-4.7-2.6l3.8-4.1
			c2.6,1.2,6.4,3,8.4,4.5l-2,2.2h4.6v6.3H32.3v0.5c1.1,2.7,2.5,5.3,4.2,7.7c2.2-2.3,4.5-5,6-7.4L48.3,24.1z M17.2,32.4
			c-1.3-2.4-4.3-6-6.9-8.5l4.9-3.5c2.6,2.3,5.9,5.7,7.3,8.1L17.2,32.4z"/>
		<path d="M69.6,13.9v35.2h-4.7v-7.6L57.2,43l-1.1-5.4c0.6-0.1,1.3-0.2,2-0.3V13.9h-1.5V8.1h14.3v5.8H69.6z M64.9,13.9h-2.2v3.9h2.2
			V13.9z M64.9,23h-2.2v3.8h2.2V23z M64.9,36.3v-4.3h-2.2v4.6L64.9,36.3z M98.8,28.3c-1.4,4.3-3.4,8.2-5.9,11.5
			c0.3,1.4,0.7,2.2,1.1,2.2c0.4,0,0.8-1.7,1-4.7c0.8,1.3,3,3,3.8,3.6c-1.2,6.8-3.5,8.2-5.1,8.2c-2.1,0-3.6-1.7-4.8-4.7
			c-1.9,1.9-4,3.4-6.2,4.7c-0.7-1-2.3-2.7-3.5-3.6c0.9-0.5,1.7-1,2.5-1.6h-2.1v-1h-3v3.3h-4.8v-20h12.5v15.5c1.1-1,2.1-2.1,3.1-3.2
			c-0.7-3.7-1.2-8.2-1.5-13.4H70.6v-5.4H72c-0.2-1.2-0.4-2.5-0.7-3.5l3.8-0.6h-3.5v-4.9h3.6c-0.3-1.1-0.5-2.2-0.8-3.2l5.3-0.9
			c0.4,1.2,0.9,2.7,1.2,4h3.8v4.9h-4.1l3.5,0.5c-0.4,1.3-0.8,2.6-1.1,3.7h2.6c-0.2-4-0.3-8.4-0.3-13.1h5.5c0,1.3,0,2.6,0,3.9
			l3.9-1.3c1.1,2.6,2.4,6.2,2.9,8.3l-4.8,1.7c-0.3-1.8-1.2-4.6-2-7c0,2.6,0.1,5,0.2,7.4h7.3v5.4h-7.1c0.1,2.3,0.3,4.5,0.5,6.4
			c0.9-1.8,1.6-3.8,2.2-5.8L98.8,28.3z M75.7,15.5c0.4,1.3,0.7,2.9,0.9,4.2h2c0.3-1.3,0.5-3,0.7-4.2H75.7z M76.7,30.4v2h3v-2H76.7z
			 M79.7,38.6v-2h-3v2H79.7z"/>
		<path d="M123.4,19.9c-0.1,1.5-0.2,3-0.3,4.4h19.3c0,0,0,1.9-0.2,2.7c-0.8,12-1.7,17.1-3.6,19.2c-1.5,1.7-3.1,2.1-5.4,2.4
			c-1.8,0.2-4.8,0.2-7.8,0.1c-0.1-1.9-1.1-4.6-2.4-6.4c3,0.3,6.2,0.3,7.6,0.3c0.9,0,1.6-0.1,2.2-0.6c1.1-0.9,1.9-4.5,2.4-11.4h-13.1
			c-1.5,7.3-4.8,14.1-12.8,18.8c-1-1.8-3-4.1-4.7-5.4c10.4-5.7,11.1-15.1,11.5-24.1h-10.9v-6.4h18.5c-0.6-1.7-1.6-3.7-2.4-5.2
			l6.4-2.4c1.2,2,2.6,4.6,3.3,6.4l-3,1.3h18.2v6.4H123.4z"/>
		<path d="M193,41.9c0,3.3-0.7,5.1-2.7,6.1c-2.1,1-5,1.2-9,1.2c-0.2-1.8-1.2-4.8-2.1-6.5c2.3,0.2,5.3,0.2,6.2,0.1
			c0.8,0,1.1-0.2,1.1-1V20.4h-24.7v28.7h-6.5V14h12.4c0.9-2.4,1.7-5.1,2.1-7.3l8.4,1.2c-1,2.1-2,4.3-3,6.2H193V41.9z M171.1,39.5
			v3.1h-5.9V23.8h17.6v15.7H171.1z M171.1,29.4v4.4h5.8v-4.4H171.1z"/>
		<path d="M208.9,34.8c-1.7-1.4-5.4-3.6-7.8-5.1l3.6-4.3c2.4,1.3,6.1,3.4,8,4.7L208.9,34.8z M211.2,15h-9.1V9.5h9.1V6.6h6.4v2.9h4
			V15h-4v3.1h-6.4V15z M202.2,43c3-2.3,7.4-6.3,11.2-10.3l3.4,5.2c-3.2,3.6-6.8,7.2-10.2,10.7L202.2,43z M207.2,17.5
			c2.3,1.3,6.1,3.4,8.1,4.6l-3.8,4.8c-1.7-1.3-5.5-3.6-7.9-5.1L207.2,17.5z M225.2,27.1v11.7c0,1.9,0.4,2.6,2.2,2.6h8.2
			c1.8,0,4.5-0.2,5.8-0.5c0.2,1.7,0.4,4.1,0.7,5.6c-1.3,0.4-4,0.4-6.2,0.4h-8.5c-6.8,0-8.8-2.3-8.8-8.4V27.1h-3.4v-5.9h10.8
			l-1.1-2.1l2.4-1H227V15h-3.9V9.5h3.9V6.6h6.5v2.9h9.1V15h-9.1v3.1h-1.8c0.6,1,1.3,2.1,1.9,3.1h9.7v5.9H225.2z"/>
		<path d="M257.2,34.8c-1.7-1.4-5.4-3.6-7.8-5.1l3.6-4.3c2.4,1.3,6.1,3.4,8,4.7L257.2,34.8z M259.6,15h-9.1V9.5h9.1V6.6h6.4v2.9h4
			V15h-4v3.1h-6.4V15z M250.6,43c3-2.3,7.4-6.3,11.2-10.3l3.4,5.2c-3.2,3.6-6.8,7.2-10.2,10.7L250.6,43z M255.5,17.5
			c2.3,1.3,6.1,3.4,8.1,4.6l-3.8,4.8c-1.7-1.3-5.5-3.6-7.9-5.1L255.5,17.5z M273.6,27.1v11.7c0,1.9,0.4,2.6,2.2,2.6h8.2
			c1.8,0,4.5-0.2,5.8-0.5c0.2,1.7,0.4,4.1,0.7,5.6c-1.3,0.4-4,0.4-6.2,0.4h-8.5c-6.8,0-8.8-2.3-8.8-8.4V27.1h-3.4v-5.9h10.8
			l-1.1-2.1l2.4-1h-0.3V15h-3.9V9.5h3.9V6.6h6.5v2.9h9.1V15h-9.1v3.1h-1.8c0.6,1,1.3,2.1,1.9,3.1h9.7v5.9H273.6z"/>
		<path d="M334.4,37c-0.9-3-2.8-7.1-4.9-11.1c-1.7,4.5-4.6,9-9.8,12.6c-1.2-1.3-3.3-3.1-4.9-4.2c5.8-4.1,8.4-8.9,9.6-13.2H320v-2.3
			c-3.3,9.8-9.2,15.9-16.8,19.2c-0.9-1.4-3.1-4-4.5-5c5.3-2,9.5-5.1,12.5-9.8c-1.6-1.2-3.7-2.6-5.7-3.7c-1.5,1.7-3.1,3.4-4.8,4.7
			c2.1-0.5,4.7-1.3,7.4-2l0.7,3.9c-2.9,1.2-5.7,2.3-8.4,3.4l-1.2-5l0.6-0.1c-0.5-1.6-1.5-4.2-2.3-5.6c3.9-3,7.3-8.3,8.8-12.8l6,1.8
			c-0.3,0.8-0.7,1.6-1.1,2.4h5.4l1.1-0.2l4.1,1.5c-0.2,1.2-0.5,2.3-0.8,3.4h4.1c0-0.4,0-0.8,0-1.2V7.3h6.1v1.9l4.3-2.3
			c1.4,1.7,3.1,4.1,3.8,5.8l-4.2,2.3h4.6v6.1h-6.5c2.6,4.4,5.5,9.6,6.8,13.2L334.4,37z M297.7,46.8c1.7-2.1,3.9-5.7,5.3-8.9l6.2,1.6
			c-1.4,3.3-3.6,7.3-5.3,9.8L297.7,46.8z M308.2,15.7c1.7,0.9,3.7,2,5.3,3c0.4-1.1,0.8-2.3,1.2-3.5h-6.1L308.2,15.7z M316.9,39.2
			c0.6,2.8,1.1,6.4,1.2,8.6l-6.4,0.9c0-2.2-0.3-6-0.8-8.9L316.9,39.2z M325.9,38.8c1.1,2.7,2.1,6.2,2.5,8.5l-6.4,1.3
			c-0.2-2.2-1.2-5.9-2.1-8.7L325.9,38.8z M334.8,37.5c1.9,2.7,4.4,6.5,5.5,9l-6.2,2.8c-0.9-2.5-3.2-6.4-5.1-9.4L334.8,37.5z
			 M331.4,15h3c-0.7-1.5-1.9-3.5-3-5.1v4V15z"/>
		<path d="M364.7,20.9c0-2.5-2.1-3.6-5.1-3.6c-2.6,0-4.6,1.2-6.4,3.2l-4.4-4c2.8-3.4,7-5.6,11.7-5.6c6.6,0,11.7,2.9,11.7,9.3
			c0,6.4-9.3,6.9-8.9,12.8h-7C355.8,26.2,364.7,24.8,364.7,20.9z M360,35.6c3.1,0,5.3,2,5.3,4.9s-2.2,5-5.3,5s-5.3-2.1-5.3-5
			S356.9,35.6,360,35.6z"/>
		<path d="M24.7,95c-1.6,0.4-3.3,0.9-4.9,1.3v9.6c0,3-0.5,4.5-2.2,5.5c-1.7,1-4,1.2-7.3,1.2c-0.2-1.7-1-4.3-1.7-5.9c1.6,0,3.4,0,4,0
			c0.6,0,0.9-0.2,0.9-0.8v-8.1l-4.1,1l-1.6-6.2c1.7-0.3,3.6-0.7,5.7-1.1v-6.8H8.3v-6h5.1v-8.2h6.4v8.2h4.5v6h-4.5V90
			c1.4-0.3,2.8-0.7,4.2-1L24.7,95z M48.3,89.6c-1.9,4.3-4.8,8.5-8.1,12.1c0.9,1.6,2,2.6,3.3,2.8c0.9,0.1,1.4-1.9,1.7-6.7
			c1.3,1.4,4.2,3.2,5.4,3.8c-1.3,9-4.1,10.9-6.7,10.7c-3.8-0.4-6.7-2.4-8.8-5.8c-2.4,1.9-4.9,3.5-7.5,4.8c-1.2-1.7-3.4-3.7-5.2-5
			c3.6-1.4,7-3.5,10-6c-1.1-3.5-1.8-7.8-2.2-12.8l-4.8,0.5l-0.6-6.2l5-0.4c-0.2-3.4-0.4-6.9-0.4-10.8h6.7c0,3.6,0.1,7,0.3,10.2
			l6.1-0.5c-1.3-1.8-3.7-4.6-5.5-6.6l5-3.2c1.8,2,4.6,4.8,6,6.5L43,80.1l6.4-0.6l0.6,6l-13.4,1.3c0.3,3,0.7,5.6,1.2,7.9
			c2.1-2.6,3.9-5.5,5.2-8.5L48.3,89.6z"/>
		<path d="M98.2,103.4v6.6H56.9v-6.6h16.6V81.6H59.4v-6.8h36.1v6.8H81v21.8H98.2z"/>
		<path d="M120.1,72.5c-1.1,3-2.5,6.1-4.1,9.1v31.2h-6.6V91.7c-0.6,0.8-1.3,1.4-1.9,2.1c-0.6-1.6-2.4-5.4-3.5-7
			c3.9-3.9,7.6-10.1,9.8-16.2L120.1,72.5z M135,83.7v3.7h10.9v5.9H135v4h11.5v6H135v9.4h-6.7V83.7h-0.9c-1.8,3.2-3.7,6.1-5.7,8.3
			c-1-1.2-3.5-3.5-4.9-4.6c3.9-3.9,7.4-10.4,9.4-16.8l6.3,1.7c-0.6,1.7-1.3,3.5-2,5.2h16.7v6.2H135z"/>
		<path d="M174.4,106.8c0,2.6-0.5,4.1-2.1,5c-1.7,0.9-3.7,1-6.4,1c-0.3-1.6-1.2-4-2-5.5c1.3,0.1,3,0.1,3.5,0c0.5,0,0.7-0.2,0.7-0.7
			v-2.8h-6.6c-0.5,3.3-1.5,6.5-3.3,9c-1-1-3.5-3-4.9-3.6c2.7-3.9,3-9.6,3-13.9V85.1h18.1V106.8z M194.7,76.7v5.9h-41.1v-5.9h8.7
			c-0.7-1.4-1.9-3-3-4.3l6.2-2.1c1.6,1.7,3.3,3.9,4,5.6l-2.5,0.8h11.8c1.3-2,2.6-4.5,3.4-6.5l7.1,2.1c-1,1.6-2,3.1-3,4.4H194.7z
			 M168.1,99.2v-2h-6c0,0.7,0,1.3,0,2H168.1z M162.1,90.2v2.2h6v-2.2H162.1z M183.2,104h-6V85.6h6V104z M186.2,84.5h6.4V106
			c0,3-0.5,4.6-2.5,5.6c-1.9,1-4.4,1.2-7.6,1.1c-0.3-1.7-1.3-4.5-2.3-6.1c2,0.1,4.3,0.1,5.1,0.1c0.7,0,0.9-0.2,0.9-0.8V84.5z"/>
		<path d="M229.4,85.1c4.5,3.5,11.5,8.8,14.7,12.4l-5.6,5c-2.5-3.2-7.9-7.9-12.4-11.7v21.9h-7.2V92.5c-3.8,3.9-8.2,7.4-13.2,9.9
			c-1-1.7-3.1-4.5-4.5-6c7.8-3.6,14.4-10.1,18.4-16.6h-16.9v-6.7h39.3v6.7h-13.8c-0.7,1.3-1.5,2.5-2.3,3.7v4.3L229.4,85.1z"/>
		<path d="M269.6,83.4c-0.2,5-1,11.1-3.9,16.9c2.2,2.1,4.3,4,5.7,5.6l-4.9,4.9c-1.1-1.4-2.7-3.1-4.5-4.9c-2.1,2.5-4.7,4.7-8,6.7
			c-1-1.5-3.2-3.8-4.7-5c3.3-1.9,5.9-4.1,7.8-6.5c-2.5-2.3-4.9-4.6-7-6.5c0.8-2.8,1.7-6.3,2.3-10.1l-2.5,0.2l-0.6-6.4l4.2-0.2
			c0.4-2.6,0.6-5.1,0.8-7.6l6.9,0.4c-0.2,2.2-0.5,4.5-0.9,6.8l2.9-0.1v-2.1h6.4v1.7l1.3-0.1l0,6.1L269.6,83.4z M260.4,95.8
			c1.8-4.1,2.5-8.4,2.7-11.9l-3.9,0.2c-0.6,3.1-1.2,6.2-1.9,9L260.4,95.8z M290,74.8v36.1h-6.4v-2.6h-5.7v3.3h-6.1V74.8H290z
			 M283.5,102.2V80.9h-5.7v21.2H283.5z"/>
		<path d="M332.2,106c1.2,0,1.4-0.8,1.6-5.8c1.3,1,4.2,2.1,5.9,2.6c-0.6,7.3-2.3,9.4-6.8,9.4h-4.6c-5.6,0-6.9-2-6.9-7.8v-9.7h-5.4
			c-0.9,7.6-3.3,14.3-13.6,18.4c-0.8-1.7-2.6-4.4-4.1-5.8c8.6-2.8,10.1-7.5,10.8-12.6h-10v-6.3h16.9v-6.3H309c-1,2.2-2,4.2-3.2,5.8
			c-1.5-1-4.2-2.3-5.8-2.9c2.9-3.6,4.9-9.7,5.8-14.3l6.6,1.3c-0.4,1.3-0.7,2.6-1.1,3.8h4.6v-5.5h6.6v5.5h13.1v6.2h-13.1v6.3h16.8
			v6.3h-11.5v9.6c0,1.6,0.2,1.7,1.4,1.7H332.2z"/>
		<path d="M363,95c-1.6,0.4-3.3,0.9-4.9,1.3v9.6c0,3-0.5,4.5-2.2,5.5c-1.7,1-4,1.2-7.3,1.2c-0.2-1.7-1-4.3-1.7-5.9c1.6,0,3.4,0,4,0
			c0.6,0,0.8-0.2,0.8-0.8v-8.1l-4.1,1l-1.6-6.2c1.7-0.3,3.6-0.7,5.7-1.1v-6.8h-5.1v-6h5.1v-8.2h6.4v8.2h4.5v6h-4.5V90
			c1.4-0.3,2.8-0.7,4.2-1L363,95z M386.6,89.6c-1.9,4.3-4.8,8.5-8.1,12.1c0.9,1.6,2,2.6,3.3,2.8c0.9,0.1,1.4-1.9,1.7-6.7
			c1.3,1.4,4.2,3.2,5.4,3.8c-1.3,9-4.1,10.9-6.7,10.7c-3.8-0.4-6.7-2.4-8.8-5.8c-2.4,1.9-4.9,3.5-7.5,4.8c-1.2-1.7-3.4-3.7-5.2-5
			c3.6-1.4,7-3.5,10-6c-1.1-3.5-1.8-7.8-2.2-12.8l-4.8,0.5l-0.6-6.2l5-0.4c-0.2-3.4-0.4-6.9-0.4-10.8h6.7c0,3.6,0.1,7,0.3,10.2
			l6.1-0.5c-1.3-1.8-3.7-4.6-5.5-6.6l5-3.2c1.8,2,4.6,4.8,6,6.5l-4.7,3.2l6.4-0.6l0.6,6L375,86.9c0.3,3,0.7,5.6,1.2,7.9
			c2.1-2.6,3.9-5.5,5.2-8.5L386.6,89.6z"/>
		<path d="M432.8,76v36.8h-6.9v-2.1h-19.9v2.1h-6.6V76h11.5c0.4-1.9,0.8-4,0.9-5.7l8,0.8c-0.6,1.7-1.3,3.4-2,4.9H432.8z M405.9,82.2
			v3.4h19.9v-3.4H405.9z M405.9,91.6v3.5h19.9v-3.5H405.9z M425.8,104.7v-3.5h-19.9v3.5H425.8z"/>
		<path d="M473.1,105.6c4.3,0,4.9-1,5.5-7.3c1.7,1,4.7,2.1,6.6,2.5c-1.1,8.9-3.3,11.3-11.9,11.3h-13.2c-9.1,0-12-1.9-12-9.1V87.1
			H473v-7.6h-25.5v-6.7h32.4v23.1H473v-2.4h-18.2v9.4c0,2.4,0.7,2.7,5.5,2.7H473.1z"/>
	</g>
	<g>
		<g>
			<g>
				<path class="st2" d="M45.7,21.5c-2.5,2.8-5.5,5.8-8,8.1c2.9,3,6.3,5.4,10.2,7.1c-1.6,1.3-3.7,4-4.8,5.9c-5.6-3-10-7.6-13.4-13.1
					v9.4c0,3.6-0.7,5.4-2.7,6.4c-2.1,1.1-5.1,1.3-9.1,1.3c-0.3-1.9-1.3-4.9-2.2-6.8c2.5,0.1,5.3,0.1,6.2,0.1c0.9,0,1.2-0.3,1.2-1.1
					v-5.2c-4.7,3.2-9.7,6.3-13.8,8.9l-4.2-6c4.3-2.1,11.5-6.1,18-9.8v-9.9H6.5v-6.3H23V4.1h6.7v6.3h6.8c-1.5-0.9-3.2-1.8-4.7-2.6
					l3.8-4.1c2.6,1.2,6.4,3,8.4,4.5l-2,2.2h4.6v6.3H29.7v0.5c1.1,2.7,2.5,5.3,4.2,7.7c2.2-2.3,4.5-5,6-7.4L45.7,21.5z M14.6,29.8
					c-1.3-2.4-4.3-6-6.9-8.5l4.9-3.5c2.6,2.3,5.9,5.7,7.3,8.1L14.6,29.8z"/>
				<path class="st2" d="M67,11.3v35.2h-4.7v-7.6l-7.7,1.5L53.5,35c0.6-0.1,1.3-0.2,2-0.3V11.3h-1.5V5.5h14.3v5.8H67z M62.3,11.3H60
					v3.9h2.2V11.3z M62.3,20.4H60v3.8h2.2V20.4z M62.3,33.7v-4.3H60v4.6L62.3,33.7z M96.2,25.7c-1.4,4.3-3.4,8.2-5.9,11.5
					c0.3,1.4,0.7,2.2,1.1,2.2c0.4,0,0.8-1.7,1-4.7c0.8,1.3,3,3,3.8,3.6c-1.2,6.8-3.5,8.2-5.1,8.2c-2.1,0-3.6-1.7-4.8-4.7
					c-1.9,1.9-4,3.4-6.2,4.7c-0.7-1-2.3-2.7-3.5-3.6c0.9-0.5,1.7-1,2.5-1.6h-2.1v-1h-3v3.3h-4.8v-20h12.5v15.5
					c1.1-1,2.1-2.1,3.1-3.2c-0.7-3.7-1.2-8.2-1.5-13.4H68v-5.4h1.5c-0.2-1.2-0.4-2.5-0.7-3.5l3.8-0.6H69V8h3.6
					c-0.3-1.1-0.5-2.2-0.8-3.2L77.1,4c0.4,1.2,0.9,2.7,1.2,4h3.8v4.9H78l3.5,0.5c-0.4,1.3-0.8,2.6-1.1,3.7h2.6
					c-0.2-4-0.3-8.4-0.3-13.1h5.5c0,1.3,0,2.6,0,3.9l3.9-1.3c1.1,2.6,2.4,6.2,2.9,8.3l-4.8,1.7c-0.3-1.8-1.2-4.6-2-7
					c0,2.6,0.1,5,0.2,7.4h7.3v5.4h-7.1c0.1,2.3,0.3,4.5,0.5,6.4c0.9-1.8,1.6-3.8,2.2-5.8L96.2,25.7z M73.1,12.9
					c0.4,1.3,0.7,2.9,0.9,4.2h2c0.3-1.3,0.5-3,0.7-4.2H73.1z M74.1,27.8v2h3v-2H74.1z M77.1,36v-2h-3v2H77.1z"/>
				<path class="st2" d="M120.8,17.3c-0.1,1.5-0.2,3-0.3,4.4h19.3c0,0,0,1.9-0.2,2.7c-0.8,12-1.7,17.1-3.6,19.2
					c-1.5,1.7-3.1,2.1-5.4,2.4c-1.8,0.2-4.8,0.2-7.8,0.1c-0.1-1.9-1.1-4.6-2.4-6.4c3,0.3,6.2,0.3,7.6,0.3c0.9,0,1.6-0.1,2.2-0.6
					c1.1-0.9,1.9-4.5,2.4-11.4h-13.1c-1.5,7.3-4.8,14.1-12.8,18.8c-1-1.8-3-4.1-4.7-5.4c10.4-5.7,11.1-15.1,11.5-24.1h-10.9v-6.4
					h18.5c-0.6-1.7-1.6-3.7-2.4-5.2l6.4-2.4c1.2,2,2.6,4.6,3.3,6.4l-3,1.3h18.2v6.4H120.8z"/>
				<path class="st2" d="M190.4,39.3c0,3.3-0.7,5.1-2.7,6.1c-2.1,1-5,1.2-9,1.2c-0.2-1.8-1.2-4.8-2.1-6.5c2.3,0.2,5.3,0.2,6.2,0.1
					c0.8,0,1.1-0.2,1.1-1V17.8h-24.7v28.7h-6.5V11.4H165c0.9-2.4,1.7-5.1,2.1-7.3l8.4,1.2c-1,2.1-2,4.3-3,6.2h17.9V39.3z
					 M168.5,36.9V40h-5.9V21.2h17.6v15.7H168.5z M168.5,26.8v4.4h5.8v-4.4H168.5z"/>
				<path class="st2" d="M206.3,32.2c-1.7-1.4-5.4-3.6-7.8-5.1l3.6-4.3c2.4,1.3,6.1,3.4,8,4.7L206.3,32.2z M208.6,12.4h-9.1V6.9h9.1
					V4h6.4v2.9h4v5.5h-4v3.1h-6.4V12.4z M199.6,40.4c3-2.3,7.4-6.3,11.2-10.3l3.4,5.2c-3.2,3.6-6.8,7.2-10.2,10.7L199.6,40.4z
					 M204.6,14.9c2.3,1.3,6.1,3.4,8.1,4.6l-3.8,4.8c-1.7-1.3-5.5-3.6-7.9-5.1L204.6,14.9z M222.6,24.5v11.7c0,1.9,0.4,2.6,2.2,2.6
					h8.2c1.8,0,4.5-0.2,5.8-0.5c0.2,1.7,0.4,4.1,0.7,5.6c-1.3,0.4-4,0.4-6.2,0.4h-8.5c-6.8,0-8.8-2.3-8.8-8.4V24.5h-3.4v-5.9h10.8
					l-1.1-2.1l2.4-1h-0.3v-3.1h-3.9V6.9h3.9V4h6.5v2.9h9.1v5.5h-9.1v3.1h-1.8c0.6,1,1.3,2.1,1.9,3.1h9.7v5.9H222.6z"/>
				<path class="st2" d="M254.6,32.2c-1.7-1.4-5.4-3.6-7.8-5.1l3.6-4.3c2.4,1.3,6.1,3.4,8,4.7L254.6,32.2z M257,12.4h-9.1V6.9h9.1V4
					h6.4v2.9h4v5.5h-4v3.1H257V12.4z M248,40.4c3-2.3,7.4-6.3,11.2-10.3l3.4,5.2c-3.2,3.6-6.8,7.2-10.2,10.7L248,40.4z M252.9,14.9
					c2.3,1.3,6.1,3.4,8.1,4.6l-3.8,4.8c-1.7-1.3-5.5-3.6-7.9-5.1L252.9,14.9z M271,24.5v11.7c0,1.9,0.4,2.6,2.2,2.6h8.2
					c1.8,0,4.5-0.2,5.8-0.5c0.2,1.7,0.4,4.1,0.7,5.6c-1.3,0.4-4,0.4-6.2,0.4h-8.5c-6.8,0-8.8-2.3-8.8-8.4V24.5H261v-5.9h10.8
					l-1.1-2.1l2.4-1h-0.3v-3.1h-3.9V6.9h3.9V4h6.5v2.9h9.1v5.5h-9.1v3.1h-1.8c0.6,1,1.3,2.1,1.9,3.1h9.7v5.9H271z"/>
				<path class="st2" d="M331.8,34.4c-0.9-3-2.8-7.1-4.9-11.1c-1.7,4.5-4.6,9-9.8,12.6c-1.2-1.3-3.3-3.1-4.9-4.2
					c5.8-4.1,8.4-8.9,9.6-13.2h-4.3v-2.3c-3.3,9.8-9.2,15.9-16.8,19.2c-0.9-1.4-3.1-4-4.5-5c5.3-2,9.5-5.1,12.5-9.8
					c-1.6-1.2-3.7-2.6-5.7-3.7c-1.5,1.7-3.1,3.4-4.8,4.7c2.1-0.5,4.7-1.3,7.4-2l0.7,3.9c-2.9,1.2-5.7,2.3-8.4,3.4l-1.2-5l0.6-0.1
					c-0.5-1.6-1.5-4.2-2.3-5.6c3.9-3,7.3-8.3,8.8-12.8l6,1.8c-0.3,0.8-0.7,1.6-1.1,2.4h5.4l1.1-0.2l4.1,1.5
					c-0.2,1.2-0.5,2.3-0.8,3.4h4.1c0-0.4,0-0.8,0-1.2V4.7h6.1v1.9l4.3-2.3c1.4,1.7,3.1,4.1,3.8,5.8l-4.2,2.3h4.6v6.1h-6.5
					c2.6,4.4,5.5,9.6,6.8,13.2L331.8,34.4z M295.1,44.2c1.7-2.1,3.9-5.7,5.3-8.9l6.2,1.6c-1.4,3.3-3.6,7.3-5.3,9.8L295.1,44.2z
					 M305.6,13.1c1.7,0.9,3.7,2,5.3,3c0.4-1.1,0.8-2.3,1.2-3.5h-6.1L305.6,13.1z M314.3,36.6c0.6,2.8,1.1,6.4,1.2,8.6l-6.4,0.9
					c0-2.2-0.3-6-0.8-8.9L314.3,36.6z M323.3,36.2c1.1,2.7,2.1,6.2,2.5,8.5l-6.4,1.3c-0.2-2.2-1.2-5.9-2.1-8.7L323.3,36.2z
					 M332.2,34.9c1.9,2.7,4.4,6.5,5.5,9l-6.2,2.8c-0.9-2.5-3.2-6.4-5.1-9.4L332.2,34.9z M328.8,12.4h3c-0.7-1.5-1.9-3.5-3-5.1v4
					V12.4z"/>
				<path class="st2" d="M362.1,18.3c0-2.5-2.1-3.6-5.1-3.6c-2.6,0-4.6,1.2-6.4,3.2l-4.4-4c2.8-3.4,7-5.6,11.7-5.6
					c6.6,0,11.7,2.9,11.7,9.3c0,6.4-9.3,6.9-8.9,12.8h-7C353.1,23.6,362.1,22.2,362.1,18.3z M357.4,33c3.1,0,5.3,2,5.3,4.9
					s-2.2,5-5.3,5s-5.3-2.1-5.3-5S354.3,33,357.4,33z"/>
				<path class="st2" d="M22.1,92.4c-1.6,0.4-3.3,0.9-4.9,1.3v9.6c0,3-0.5,4.5-2.2,5.5c-1.7,1-4,1.2-7.3,1.2c-0.2-1.7-1-4.3-1.7-5.9
					c1.6,0,3.4,0,4,0c0.6,0,0.9-0.2,0.9-0.8v-8.1l-4.1,1l-1.6-6.2c1.7-0.3,3.6-0.7,5.7-1.1V82H5.7v-6h5.1v-8.2h6.4V76h4.5v6h-4.5
					v5.4c1.4-0.3,2.8-0.7,4.2-1L22.1,92.4z M45.7,87c-1.9,4.3-4.8,8.5-8.1,12.1c0.9,1.6,2,2.6,3.3,2.8c0.9,0.1,1.4-1.9,1.7-6.7
					c1.3,1.4,4.2,3.2,5.4,3.8c-1.3,9-4.1,10.9-6.7,10.7c-3.8-0.4-6.7-2.4-8.8-5.8c-2.4,1.9-4.9,3.5-7.5,4.8c-1.2-1.7-3.4-3.7-5.2-5
					c3.6-1.4,7-3.5,10-6c-1.1-3.5-1.8-7.8-2.2-12.8l-4.8,0.5l-0.6-6.2l5-0.4c-0.2-3.4-0.4-6.9-0.4-10.8h6.7c0,3.6,0.1,7,0.3,10.2
					l6.1-0.5c-1.3-1.8-3.7-4.6-5.5-6.6l5-3.2c1.8,2,4.6,4.8,6,6.5l-4.7,3.2l6.4-0.6l0.6,6L34,84.3c0.3,3,0.7,5.6,1.2,7.9
					c2.1-2.6,3.9-5.5,5.2-8.5L45.7,87z"/>
				<path class="st2" d="M95.6,100.8v6.6H54.3v-6.6h16.6V79H56.8v-6.8h36.1V79H78.4v21.8H95.6z"/>
				<path class="st2" d="M117.5,69.9c-1.1,3-2.5,6.1-4.1,9.1v31.2h-6.6V89.1c-0.6,0.8-1.3,1.4-1.9,2.1c-0.6-1.6-2.4-5.4-3.5-7
					c3.9-3.9,7.6-10.1,9.8-16.2L117.5,69.9z M132.4,81.1v3.7h10.9v5.9h-10.9v4h11.5v6h-11.5v9.4h-6.7V81.1h-0.9
					c-1.8,3.2-3.7,6.1-5.7,8.3c-1-1.2-3.5-3.5-4.9-4.6c3.9-3.9,7.4-10.4,9.4-16.8l6.3,1.7c-0.6,1.7-1.3,3.5-2,5.2h16.7v6.2H132.4z"
					/>
				<path class="st2" d="M171.8,104.2c0,2.6-0.5,4.1-2.1,5c-1.7,0.9-3.7,1-6.4,1c-0.3-1.6-1.2-4-2-5.5c1.3,0.1,3,0.1,3.5,0
					c0.5,0,0.7-0.2,0.7-0.7v-2.8h-6.6c-0.5,3.3-1.5,6.5-3.3,9c-1-1-3.5-3-4.9-3.6c2.7-3.9,3-9.6,3-13.9V82.5h18.1V104.2z
					 M192.1,74.1V80h-41.1v-5.9h8.7c-0.7-1.4-1.9-3-3-4.3l6.2-2.1c1.6,1.7,3.3,3.9,4,5.6l-2.5,0.8h11.8c1.3-2,2.6-4.5,3.4-6.5
					l7.1,2.1c-1,1.6-2,3.1-3,4.4H192.1z M165.5,96.6v-2h-6c0,0.7,0,1.3,0,2H165.5z M159.5,87.6v2.2h6v-2.2H159.5z M180.6,101.4h-6
					V83h6V101.4z M183.6,81.9h6.4v21.5c0,3-0.5,4.6-2.5,5.6c-1.9,1-4.4,1.2-7.6,1.1c-0.3-1.7-1.3-4.5-2.3-6.1c2,0.1,4.3,0.1,5.1,0.1
					c0.7,0,0.9-0.2,0.9-0.8V81.9z"/>
				<path class="st2" d="M226.8,82.5c4.5,3.5,11.5,8.8,14.7,12.4l-5.6,5c-2.5-3.2-7.9-7.9-12.4-11.7v21.9h-7.2V89.9
					c-3.8,3.9-8.2,7.4-13.2,9.9c-1-1.7-3.1-4.5-4.5-6c7.8-3.6,14.4-10.1,18.4-16.6h-16.9v-6.7h39.3v6.7h-13.8
					c-0.7,1.3-1.5,2.5-2.3,3.7v4.3L226.8,82.5z"/>
				<path class="st2" d="M267,80.8c-0.2,5-1,11.1-3.9,16.9c2.2,2.1,4.3,4,5.7,5.6l-4.9,4.9c-1.1-1.4-2.7-3.1-4.5-4.9
					c-2.1,2.5-4.7,4.7-8,6.7c-1-1.5-3.2-3.8-4.7-5c3.3-1.9,5.9-4.1,7.8-6.5c-2.5-2.3-4.9-4.6-7-6.5c0.8-2.8,1.7-6.3,2.3-10.1
					l-2.5,0.2l-0.6-6.4l4.2-0.2c0.4-2.6,0.6-5.1,0.8-7.6l6.9,0.4c-0.2,2.2-0.5,4.5-0.9,6.8l2.9-0.1V73h6.4v1.7l1.3-0.1l0,6.1
					L267,80.8z M257.8,93.2c1.8-4.1,2.5-8.4,2.7-11.9l-3.9,0.2c-0.6,3.1-1.2,6.2-1.9,9L257.8,93.2z M287.4,72.2v36.1h-6.4v-2.6h-5.7
					v3.3h-6.1V72.2H287.4z M280.9,99.6V78.3h-5.7v21.2H280.9z"/>
				<path class="st2" d="M329.6,103.4c1.2,0,1.4-0.8,1.6-5.8c1.3,1,4.2,2.1,5.9,2.6c-0.6,7.3-2.3,9.4-6.8,9.4h-4.6
					c-5.6,0-6.9-2-6.9-7.8v-9.7h-5.4c-0.9,7.6-3.3,14.3-13.6,18.4c-0.8-1.7-2.6-4.4-4.1-5.8c8.6-2.8,10.1-7.5,10.8-12.6h-10v-6.3
					h16.9v-6.3h-6.8c-1,2.2-2,4.2-3.2,5.8c-1.5-1-4.2-2.3-5.8-2.9c2.9-3.6,4.9-9.7,5.8-14.3l6.6,1.3c-0.4,1.3-0.7,2.6-1.1,3.8h4.6
					v-5.5h6.6v5.5H333v6.2h-13.1v6.3h16.8v6.3h-11.5v9.6c0,1.6,0.2,1.7,1.4,1.7H329.6z"/>
				<path class="st2" d="M360.4,92.4c-1.6,0.4-3.3,0.9-4.9,1.3v9.6c0,3-0.5,4.5-2.2,5.5c-1.7,1-4,1.2-7.3,1.2
					c-0.2-1.7-1-4.3-1.7-5.9c1.6,0,3.4,0,4,0c0.6,0,0.8-0.2,0.8-0.8v-8.1l-4.1,1l-1.6-6.2c1.7-0.3,3.6-0.7,5.7-1.1V82H344v-6h5.1
					v-8.2h6.4V76h4.5v6h-4.5v5.4c1.4-0.3,2.8-0.7,4.2-1L360.4,92.4z M384,87c-1.9,4.3-4.8,8.5-8.1,12.1c0.9,1.6,2,2.6,3.3,2.8
					c0.9,0.1,1.4-1.9,1.7-6.7c1.3,1.4,4.2,3.2,5.4,3.8c-1.3,9-4.1,10.9-6.7,10.7c-3.8-0.4-6.7-2.4-8.8-5.8c-2.4,1.9-4.9,3.5-7.5,4.8
					c-1.2-1.7-3.4-3.7-5.2-5c3.6-1.4,7-3.5,10-6c-1.1-3.5-1.8-7.8-2.2-12.8l-4.8,0.5l-0.6-6.2l5-0.4c-0.2-3.4-0.4-6.9-0.4-10.8h6.7
					c0,3.6,0.1,7,0.3,10.2l6.1-0.5c-1.3-1.8-3.7-4.6-5.5-6.6l5-3.2c1.8,2,4.6,4.8,6,6.5l-4.7,3.2l6.4-0.6l0.6,6l-13.4,1.3
					c0.3,3,0.7,5.6,1.2,7.9c2.1-2.6,3.9-5.5,5.2-8.5L384,87z"/>
				<path class="st2" d="M430.2,73.4v36.8h-6.9v-2.1h-19.9v2.1h-6.6V73.4h11.5c0.4-1.9,0.8-4,0.9-5.7l8,0.8c-0.6,1.7-1.3,3.4-2,4.9
					H430.2z M403.3,79.6V83h19.9v-3.4H403.3z M403.3,89v3.5h19.9V89H403.3z M423.2,102.1v-3.5h-19.9v3.5H423.2z"/>
				<path class="st2" d="M470.5,103c4.3,0,4.9-1,5.5-7.3c1.7,1,4.7,2.1,6.6,2.5c-1.1,8.9-3.3,11.3-11.9,11.3h-13.2
					c-9.1,0-12-1.9-12-9.1V84.5h24.9V77h-25.5v-6.7h32.4v23.1h-6.9v-2.4h-18.2v9.4c0,2.4,0.7,2.7,5.5,2.7H470.5z"/>
			</g>
			<g>
				<path class="st3" d="M45.7,21.5c-2.5,2.8-5.5,5.8-8,8.1c2.9,3,6.3,5.4,10.2,7.1c-1.6,1.3-3.7,4-4.8,5.9c-5.6-3-10-7.6-13.4-13.1
					v9.4c0,3.6-0.7,5.4-2.7,6.4c-2.1,1.1-5.1,1.3-9.1,1.3c-0.3-1.9-1.3-4.9-2.2-6.8c2.5,0.1,5.3,0.1,6.2,0.1c0.9,0,1.2-0.3,1.2-1.1
					v-5.2c-4.7,3.2-9.7,6.3-13.8,8.9l-4.2-6c4.3-2.1,11.5-6.1,18-9.8v-9.9H6.5v-6.3H23V4.1h6.7v6.3h6.8c-1.5-0.9-3.2-1.8-4.7-2.6
					l3.8-4.1c2.6,1.2,6.4,3,8.4,4.5l-2,2.2h4.6v6.3H29.7v0.5c1.1,2.7,2.5,5.3,4.2,7.7c2.2-2.3,4.5-5,6-7.4L45.7,21.5z M14.6,29.8
					c-1.3-2.4-4.3-6-6.9-8.5l4.9-3.5c2.6,2.3,5.9,5.7,7.3,8.1L14.6,29.8z"/>
				<path class="st3" d="M67,11.3v35.2h-4.7v-7.6l-7.7,1.5L53.5,35c0.6-0.1,1.3-0.2,2-0.3V11.3h-1.5V5.5h14.3v5.8H67z M62.3,11.3H60
					v3.9h2.2V11.3z M62.3,20.4H60v3.8h2.2V20.4z M62.3,33.7v-4.3H60v4.6L62.3,33.7z M96.2,25.7c-1.4,4.3-3.4,8.2-5.9,11.5
					c0.3,1.4,0.7,2.2,1.1,2.2c0.4,0,0.8-1.7,1-4.7c0.8,1.3,3,3,3.8,3.6c-1.2,6.8-3.5,8.2-5.1,8.2c-2.1,0-3.6-1.7-4.8-4.7
					c-1.9,1.9-4,3.4-6.2,4.7c-0.7-1-2.3-2.7-3.5-3.6c0.9-0.5,1.7-1,2.5-1.6h-2.1v-1h-3v3.3h-4.8v-20h12.5v15.5
					c1.1-1,2.1-2.1,3.1-3.2c-0.7-3.7-1.2-8.2-1.5-13.4H68v-5.4h1.5c-0.2-1.2-0.4-2.5-0.7-3.5l3.8-0.6H69V8h3.6
					c-0.3-1.1-0.5-2.2-0.8-3.2L77.1,4c0.4,1.2,0.9,2.7,1.2,4h3.8v4.9H78l3.5,0.5c-0.4,1.3-0.8,2.6-1.1,3.7h2.6
					c-0.2-4-0.3-8.4-0.3-13.1h5.5c0,1.3,0,2.6,0,3.9l3.9-1.3c1.1,2.6,2.4,6.2,2.9,8.3l-4.8,1.7c-0.3-1.8-1.2-4.6-2-7
					c0,2.6,0.1,5,0.2,7.4h7.3v5.4h-7.1c0.1,2.3,0.3,4.5,0.5,6.4c0.9-1.8,1.6-3.8,2.2-5.8L96.2,25.7z M73.1,12.9
					c0.4,1.3,0.7,2.9,0.9,4.2h2c0.3-1.3,0.5-3,0.7-4.2H73.1z M74.1,27.8v2h3v-2H74.1z M77.1,36v-2h-3v2H77.1z"/>
				<path class="st3" d="M120.8,17.3c-0.1,1.5-0.2,3-0.3,4.4h19.3c0,0,0,1.9-0.2,2.7c-0.8,12-1.7,17.1-3.6,19.2
					c-1.5,1.7-3.1,2.1-5.4,2.4c-1.8,0.2-4.8,0.2-7.8,0.1c-0.1-1.9-1.1-4.6-2.4-6.4c3,0.3,6.2,0.3,7.6,0.3c0.9,0,1.6-0.1,2.2-0.6
					c1.1-0.9,1.9-4.5,2.4-11.4h-13.1c-1.5,7.3-4.8,14.1-12.8,18.8c-1-1.8-3-4.1-4.7-5.4c10.4-5.7,11.1-15.1,11.5-24.1h-10.9v-6.4
					h18.5c-0.6-1.7-1.6-3.7-2.4-5.2l6.4-2.4c1.2,2,2.6,4.6,3.3,6.4l-3,1.3h18.2v6.4H120.8z"/>
				<path class="st3" d="M190.4,39.3c0,3.3-0.7,5.1-2.7,6.1c-2.1,1-5,1.2-9,1.2c-0.2-1.8-1.2-4.8-2.1-6.5c2.3,0.2,5.3,0.2,6.2,0.1
					c0.8,0,1.1-0.2,1.1-1V17.8h-24.7v28.7h-6.5V11.4H165c0.9-2.4,1.7-5.1,2.1-7.3l8.4,1.2c-1,2.1-2,4.3-3,6.2h17.9V39.3z
					 M168.5,36.9V40h-5.9V21.2h17.6v15.7H168.5z M168.5,26.8v4.4h5.8v-4.4H168.5z"/>
				<path class="st3" d="M206.3,32.2c-1.7-1.4-5.4-3.6-7.8-5.1l3.6-4.3c2.4,1.3,6.1,3.4,8,4.7L206.3,32.2z M208.6,12.4h-9.1V6.9h9.1
					V4h6.4v2.9h4v5.5h-4v3.1h-6.4V12.4z M199.6,40.4c3-2.3,7.4-6.3,11.2-10.3l3.4,5.2c-3.2,3.6-6.8,7.2-10.2,10.7L199.6,40.4z
					 M204.6,14.9c2.3,1.3,6.1,3.4,8.1,4.6l-3.8,4.8c-1.7-1.3-5.5-3.6-7.9-5.1L204.6,14.9z M222.6,24.5v11.7c0,1.9,0.4,2.6,2.2,2.6
					h8.2c1.8,0,4.5-0.2,5.8-0.5c0.2,1.7,0.4,4.1,0.7,5.6c-1.3,0.4-4,0.4-6.2,0.4h-8.5c-6.8,0-8.8-2.3-8.8-8.4V24.5h-3.4v-5.9h10.8
					l-1.1-2.1l2.4-1h-0.3v-3.1h-3.9V6.9h3.9V4h6.5v2.9h9.1v5.5h-9.1v3.1h-1.8c0.6,1,1.3,2.1,1.9,3.1h9.7v5.9H222.6z"/>
				<path class="st3" d="M254.6,32.2c-1.7-1.4-5.4-3.6-7.8-5.1l3.6-4.3c2.4,1.3,6.1,3.4,8,4.7L254.6,32.2z M257,12.4h-9.1V6.9h9.1V4
					h6.4v2.9h4v5.5h-4v3.1H257V12.4z M248,40.4c3-2.3,7.4-6.3,11.2-10.3l3.4,5.2c-3.2,3.6-6.8,7.2-10.2,10.7L248,40.4z M252.9,14.9
					c2.3,1.3,6.1,3.4,8.1,4.6l-3.8,4.8c-1.7-1.3-5.5-3.6-7.9-5.1L252.9,14.9z M271,24.5v11.7c0,1.9,0.4,2.6,2.2,2.6h8.2
					c1.8,0,4.5-0.2,5.8-0.5c0.2,1.7,0.4,4.1,0.7,5.6c-1.3,0.4-4,0.4-6.2,0.4h-8.5c-6.8,0-8.8-2.3-8.8-8.4V24.5H261v-5.9h10.8
					l-1.1-2.1l2.4-1h-0.3v-3.1h-3.9V6.9h3.9V4h6.5v2.9h9.1v5.5h-9.1v3.1h-1.8c0.6,1,1.3,2.1,1.9,3.1h9.7v5.9H271z"/>
				<path class="st3" d="M331.8,34.4c-0.9-3-2.8-7.1-4.9-11.1c-1.7,4.5-4.6,9-9.8,12.6c-1.2-1.3-3.3-3.1-4.9-4.2
					c5.8-4.1,8.4-8.9,9.6-13.2h-4.3v-2.3c-3.3,9.8-9.2,15.9-16.8,19.2c-0.9-1.4-3.1-4-4.5-5c5.3-2,9.5-5.1,12.5-9.8
					c-1.6-1.2-3.7-2.6-5.7-3.7c-1.5,1.7-3.1,3.4-4.8,4.7c2.1-0.5,4.7-1.3,7.4-2l0.7,3.9c-2.9,1.2-5.7,2.3-8.4,3.4l-1.2-5l0.6-0.1
					c-0.5-1.6-1.5-4.2-2.3-5.6c3.9-3,7.3-8.3,8.8-12.8l6,1.8c-0.3,0.8-0.7,1.6-1.1,2.4h5.4l1.1-0.2l4.1,1.5
					c-0.2,1.2-0.5,2.3-0.8,3.4h4.1c0-0.4,0-0.8,0-1.2V4.7h6.1v1.9l4.3-2.3c1.4,1.7,3.1,4.1,3.8,5.8l-4.2,2.3h4.6v6.1h-6.5
					c2.6,4.4,5.5,9.6,6.8,13.2L331.8,34.4z M295.1,44.2c1.7-2.1,3.9-5.7,5.3-8.9l6.2,1.6c-1.4,3.3-3.6,7.3-5.3,9.8L295.1,44.2z
					 M305.6,13.1c1.7,0.9,3.7,2,5.3,3c0.4-1.1,0.8-2.3,1.2-3.5h-6.1L305.6,13.1z M314.3,36.6c0.6,2.8,1.1,6.4,1.2,8.6l-6.4,0.9
					c0-2.2-0.3-6-0.8-8.9L314.3,36.6z M323.3,36.2c1.1,2.7,2.1,6.2,2.5,8.5l-6.4,1.3c-0.2-2.2-1.2-5.9-2.1-8.7L323.3,36.2z
					 M332.2,34.9c1.9,2.7,4.4,6.5,5.5,9l-6.2,2.8c-0.9-2.5-3.2-6.4-5.1-9.4L332.2,34.9z M328.8,12.4h3c-0.7-1.5-1.9-3.5-3-5.1v4
					V12.4z"/>
				<path class="st3" d="M362.1,18.3c0-2.5-2.1-3.6-5.1-3.6c-2.6,0-4.6,1.2-6.4,3.2l-4.4-4c2.8-3.4,7-5.6,11.7-5.6
					c6.6,0,11.7,2.9,11.7,9.3c0,6.4-9.3,6.9-8.9,12.8h-7C353.1,23.6,362.1,22.2,362.1,18.3z M357.4,33c3.1,0,5.3,2,5.3,4.9
					s-2.2,5-5.3,5s-5.3-2.1-5.3-5S354.3,33,357.4,33z"/>
				<path class="st3" d="M22.1,92.4c-1.6,0.4-3.3,0.9-4.9,1.3v9.6c0,3-0.5,4.5-2.2,5.5c-1.7,1-4,1.2-7.3,1.2c-0.2-1.7-1-4.3-1.7-5.9
					c1.6,0,3.4,0,4,0c0.6,0,0.9-0.2,0.9-0.8v-8.1l-4.1,1l-1.6-6.2c1.7-0.3,3.6-0.7,5.7-1.1V82H5.7v-6h5.1v-8.2h6.4V76h4.5v6h-4.5
					v5.4c1.4-0.3,2.8-0.7,4.2-1L22.1,92.4z M45.7,87c-1.9,4.3-4.8,8.5-8.1,12.1c0.9,1.6,2,2.6,3.3,2.8c0.9,0.1,1.4-1.9,1.7-6.7
					c1.3,1.4,4.2,3.2,5.4,3.8c-1.3,9-4.1,10.9-6.7,10.7c-3.8-0.4-6.7-2.4-8.8-5.8c-2.4,1.9-4.9,3.5-7.5,4.8c-1.2-1.7-3.4-3.7-5.2-5
					c3.6-1.4,7-3.5,10-6c-1.1-3.5-1.8-7.8-2.2-12.8l-4.8,0.5l-0.6-6.2l5-0.4c-0.2-3.4-0.4-6.9-0.4-10.8h6.7c0,3.6,0.1,7,0.3,10.2
					l6.1-0.5c-1.3-1.8-3.7-4.6-5.5-6.6l5-3.2c1.8,2,4.6,4.8,6,6.5l-4.7,3.2l6.4-0.6l0.6,6L34,84.3c0.3,3,0.7,5.6,1.2,7.9
					c2.1-2.6,3.9-5.5,5.2-8.5L45.7,87z"/>
				<path class="st3" d="M95.6,100.8v6.6H54.3v-6.6h16.6V79H56.8v-6.8h36.1V79H78.4v21.8H95.6z"/>
				<path class="st3" d="M117.5,69.9c-1.1,3-2.5,6.1-4.1,9.1v31.2h-6.6V89.1c-0.6,0.8-1.3,1.4-1.9,2.1c-0.6-1.6-2.4-5.4-3.5-7
					c3.9-3.9,7.6-10.1,9.8-16.2L117.5,69.9z M132.4,81.1v3.7h10.9v5.9h-10.9v4h11.5v6h-11.5v9.4h-6.7V81.1h-0.9
					c-1.8,3.2-3.7,6.1-5.7,8.3c-1-1.2-3.5-3.5-4.9-4.6c3.9-3.9,7.4-10.4,9.4-16.8l6.3,1.7c-0.6,1.7-1.3,3.5-2,5.2h16.7v6.2H132.4z"
					/>
				<path class="st3" d="M171.8,104.2c0,2.6-0.5,4.1-2.1,5c-1.7,0.9-3.7,1-6.4,1c-0.3-1.6-1.2-4-2-5.5c1.3,0.1,3,0.1,3.5,0
					c0.5,0,0.7-0.2,0.7-0.7v-2.8h-6.6c-0.5,3.3-1.5,6.5-3.3,9c-1-1-3.5-3-4.9-3.6c2.7-3.9,3-9.6,3-13.9V82.5h18.1V104.2z
					 M192.1,74.1V80h-41.1v-5.9h8.7c-0.7-1.4-1.9-3-3-4.3l6.2-2.1c1.6,1.7,3.3,3.9,4,5.6l-2.5,0.8h11.8c1.3-2,2.6-4.5,3.4-6.5
					l7.1,2.1c-1,1.6-2,3.1-3,4.4H192.1z M165.5,96.6v-2h-6c0,0.7,0,1.3,0,2H165.5z M159.5,87.6v2.2h6v-2.2H159.5z M180.6,101.4h-6
					V83h6V101.4z M183.6,81.9h6.4v21.5c0,3-0.5,4.6-2.5,5.6c-1.9,1-4.4,1.2-7.6,1.1c-0.3-1.7-1.3-4.5-2.3-6.1c2,0.1,4.3,0.1,5.1,0.1
					c0.7,0,0.9-0.2,0.9-0.8V81.9z"/>
				<path class="st3" d="M226.8,82.5c4.5,3.5,11.5,8.8,14.7,12.4l-5.6,5c-2.5-3.2-7.9-7.9-12.4-11.7v21.9h-7.2V89.9
					c-3.8,3.9-8.2,7.4-13.2,9.9c-1-1.7-3.1-4.5-4.5-6c7.8-3.6,14.4-10.1,18.4-16.6h-16.9v-6.7h39.3v6.7h-13.8
					c-0.7,1.3-1.5,2.5-2.3,3.7v4.3L226.8,82.5z"/>
				<path class="st3" d="M267,80.8c-0.2,5-1,11.1-3.9,16.9c2.2,2.1,4.3,4,5.7,5.6l-4.9,4.9c-1.1-1.4-2.7-3.1-4.5-4.9
					c-2.1,2.5-4.7,4.7-8,6.7c-1-1.5-3.2-3.8-4.7-5c3.3-1.9,5.9-4.1,7.8-6.5c-2.5-2.3-4.9-4.6-7-6.5c0.8-2.8,1.7-6.3,2.3-10.1
					l-2.5,0.2l-0.6-6.4l4.2-0.2c0.4-2.6,0.6-5.1,0.8-7.6l6.9,0.4c-0.2,2.2-0.5,4.5-0.9,6.8l2.9-0.1V73h6.4v1.7l1.3-0.1l0,6.1
					L267,80.8z M257.8,93.2c1.8-4.1,2.5-8.4,2.7-11.9l-3.9,0.2c-0.6,3.1-1.2,6.2-1.9,9L257.8,93.2z M287.4,72.2v36.1h-6.4v-2.6h-5.7
					v3.3h-6.1V72.2H287.4z M280.9,99.6V78.3h-5.7v21.2H280.9z"/>
				<path class="st3" d="M329.6,103.4c1.2,0,1.4-0.8,1.6-5.8c1.3,1,4.2,2.1,5.9,2.6c-0.6,7.3-2.3,9.4-6.8,9.4h-4.6
					c-5.6,0-6.9-2-6.9-7.8v-9.7h-5.4c-0.9,7.6-3.3,14.3-13.6,18.4c-0.8-1.7-2.6-4.4-4.1-5.8c8.6-2.8,10.1-7.5,10.8-12.6h-10v-6.3
					h16.9v-6.3h-6.8c-1,2.2-2,4.2-3.2,5.8c-1.5-1-4.2-2.3-5.8-2.9c2.9-3.6,4.9-9.7,5.8-14.3l6.6,1.3c-0.4,1.3-0.7,2.6-1.1,3.8h4.6
					v-5.5h6.6v5.5H333v6.2h-13.1v6.3h16.8v6.3h-11.5v9.6c0,1.6,0.2,1.7,1.4,1.7H329.6z"/>
				<path class="st3" d="M360.4,92.4c-1.6,0.4-3.3,0.9-4.9,1.3v9.6c0,3-0.5,4.5-2.2,5.5c-1.7,1-4,1.2-7.3,1.2
					c-0.2-1.7-1-4.3-1.7-5.9c1.6,0,3.4,0,4,0c0.6,0,0.8-0.2,0.8-0.8v-8.1l-4.1,1l-1.6-6.2c1.7-0.3,3.6-0.7,5.7-1.1V82H344v-6h5.1
					v-8.2h6.4V76h4.5v6h-4.5v5.4c1.4-0.3,2.8-0.7,4.2-1L360.4,92.4z M384,87c-1.9,4.3-4.8,8.5-8.1,12.1c0.9,1.6,2,2.6,3.3,2.8
					c0.9,0.1,1.4-1.9,1.7-6.7c1.3,1.4,4.2,3.2,5.4,3.8c-1.3,9-4.1,10.9-6.7,10.7c-3.8-0.4-6.7-2.4-8.8-5.8c-2.4,1.9-4.9,3.5-7.5,4.8
					c-1.2-1.7-3.4-3.7-5.2-5c3.6-1.4,7-3.5,10-6c-1.1-3.5-1.8-7.8-2.2-12.8l-4.8,0.5l-0.6-6.2l5-0.4c-0.2-3.4-0.4-6.9-0.4-10.8h6.7
					c0,3.6,0.1,7,0.3,10.2l6.1-0.5c-1.3-1.8-3.7-4.6-5.5-6.6l5-3.2c1.8,2,4.6,4.8,6,6.5l-4.7,3.2l6.4-0.6l0.6,6l-13.4,1.3
					c0.3,3,0.7,5.6,1.2,7.9c2.1-2.6,3.9-5.5,5.2-8.5L384,87z"/>
				<path class="st3" d="M430.2,73.4v36.8h-6.9v-2.1h-19.9v2.1h-6.6V73.4h11.5c0.4-1.9,0.8-4,0.9-5.7l8,0.8c-0.6,1.7-1.3,3.4-2,4.9
					H430.2z M403.3,79.6V83h19.9v-3.4H403.3z M403.3,89v3.5h19.9V89H403.3z M423.2,102.1v-3.5h-19.9v3.5H423.2z"/>
				<path class="st3" d="M470.5,103c4.3,0,4.9-1,5.5-7.3c1.7,1,4.7,2.1,6.6,2.5c-1.1,8.9-3.3,11.3-11.9,11.3h-13.2
					c-9.1,0-12-1.9-12-9.1V84.5h24.9V77h-25.5v-6.7h32.4v23.1h-6.9v-2.4h-18.2v9.4c0,2.4,0.7,2.7,5.5,2.7H470.5z"/>
			</g>
		</g>
	</g>
</g>
</svg>
