<?xml version="1.0" encoding="utf-8"?>
<!-- Generator: Adobe Illustrator 19.2.0, SVG Export Plug-In . SVG Version: 6.00 Build 0)  -->
<svg version="1.1" id="Layer_1_copy_2" xmlns="http://www.w3.org/2000/svg" xmlns:xlink="http://www.w3.org/1999/xlink" x="0px"
	 y="0px" viewBox="0 0 1414 1132" style="enable-background:new 0 0 1414 1132;" xml:space="preserve">
<style type="text/css">
	.st0{fill:#DCDCDC;}
	.st1{fill:#F4EFED;}
	.st2{fill:#F9DAB4;}
	.st3{fill:#302F2D;}
	.st4{fill:#563A28;}
	.st5{fill:#EFC4A0;}
	.st6{fill:#AD3E3B;}
	.st7{fill:#C65044;}
	.st8{fill:#3F3E3D;}
	.st9{fill:#3A332D;}
	.st10{fill:#E8DFD9;}
	.st11{opacity:0.5;}
	.st12{fill:#89C5D3;}
	.st13{fill:#4C3626;}
	.st14{enable-background:new    ;}
	.st15{fill:#BD4D44;}
</style>
<circle class="st0" cx="919.7" cy="587.5" r="455.5"/>
<g>
	<g>
		<g>
			<g>
				<polygon class="st1" points="1083.8,629.3 1164.4,602.2 1164.7,742 1059.5,773.4 1059.5,692.5 				"/>
			</g>
		</g>
		<g>
			<g>
				<g>
					<path class="st2" d="M986.3,865.1h71.5c0,0-2.8,177.9-35.8,177.9C989.1,1043,986.3,865.1,986.3,865.1z"/>
				</g>
			</g>
			<g>
				<g>
					<path class="st3" d="M1022,1009.8c-10.5,0-16.5,2.1-19.8,4.2c4.9,17.3,11.4,29,19.8,29l0,0c8.4,0,14.9-11.6,19.8-28.9
						C1038.6,1012,1032.7,1009.8,1022,1009.8z"/>
				</g>
			</g>
		</g>
		<g>
			<g>
				<g>
					<path class="st2" d="M888.3,865.1h71.5c0,0-2.8,177.9-35.8,177.9S888.3,865.1,888.3,865.1z"/>
				</g>
			</g>
			<g>
				<g>
					<path class="st3" d="M924,1009.8c-10.5,0-16.5,2.1-19.8,4.2c4.9,17.3,11.4,29,19.8,29l0,0c8.4,0,14.9-11.6,19.8-28.9
						C940.6,1012,934.6,1009.8,924,1009.8z"/>
				</g>
			</g>
		</g>
		<g>
			<g>
				<path class="st4" d="M868.6,688.9l207.8-2.8c3,63.1,1.4,123.2-6.5,179H875.2C866.4,810.9,865.1,751.6,868.6,688.9z"/>
			</g>
		</g>
		<g>
			<g>
				<path class="st2" d="M826.9,663.9c0,0-11.7,38.6,1.4,67.8c13,29.2,26.7,46.2,42.4,40.5s-9.4-36-10.7-38.3c0,0,7.2,3.6,9.8-1.6
					c2.5-4.8,3-30.7-3.8-53.8L826.9,663.9z"/>
			</g>
		</g>
		<g>
			<g>
				<path class="st5" d="M865.6,742c-2.9-4.2-5.3-7.3-5.7-8c0,0-7.5-2.5-10.6-16.7C849.4,717.3,844.8,738.8,865.6,742z"/>
			</g>
		</g>
		<g>
			<g>
				<path class="st6" d="M904.1,698.2c0,0,88,11.1,143.8-3.7l18.9-22.1l-15-209.5l-19.6-17.7l-119.9,12.7l-15,10.8l-18.5,199.9
					L904.1,698.2z"/>
			</g>
		</g>
		<g>
			<g>
				<path class="st1" d="M916.8,451.2h115c0,0-47.1,121.7-63.8,121.7C951.3,572.8,916.8,451.2,916.8,451.2z"/>
			</g>
		</g>
		<g>
			<g>
				<circle class="st1" cx="969.3" cy="607.5" r="11.1"/>
			</g>
		</g>
		<g>
			<g>
				<circle class="st1" cx="969.3" cy="659.7" r="11.1"/>
			</g>
		</g>
		<g>
			<g>
				<g>
					<path class="st7" d="M912.4,455.4c-34.1,9.1-85.8,52.5-90.2,230.7c0,0,27.7,7.1,46.5,2.8c0,0,13.1,5,35.5,9.3
						C878.7,586.1,904.4,483,912.4,455.4z"/>
				</g>
			</g>
			<g>
				<g>
					<path class="st7" d="M1036.9,451.2c27.2,95.7,18.2,195.3,11,243.3c9.3-2.3,18.9-5.1,28.5-8.4l7.7-56.9l40.5-13.7
						C1124.7,615.5,1119.9,467,1036.9,451.2z"/>
				</g>
			</g>
			<g>
				<g>
					<path class="st6" d="M868.6,606.1c0,0-13.9,32.6-6.2,83.8l0,0c2.1-0.2,4.2-0.5,6.2-1C868.6,688.9,861.6,633.2,868.6,606.1z"/>
				</g>
			</g>
		</g>
		<g>
			<g>
				<path class="st6" d="M1084.1,629.2c0,0,3-40.4,2.5-59.8c0,0,11.1,32.4,5,57.3L1084.1,629.2z"/>
			</g>
		</g>
	</g>
	<g>
		<g>
			<g>
				<path class="st8" d="M1147,230c0,0,13.6-41.5,58.2-8c14.6,11,29.9,31.7,32.7,55c5.7,48-27.1,107.2,30.7,104.9
					c0,0,2.8,10.3-3.6,13.1c0,0,6.4,1.9,12-3.4c-3.1,56.6-113.6,66.4-123.6-95.8L1147,230z"/>
			</g>
		</g>
		<g>
			<g>
				<path class="st1" d="M1147,216.4c0,0,21.5,3,30.4,14.5c15.6,20.2,3.9,73.5-27.7,81L1147,216.4z"/>
			</g>
		</g>
		<g>
			<g>
				<path class="st8" d="M877.3,423.9c0,0-72.2-22.4-90.8-73.7C747.9,243.3,771.6,63,968.9,63c180.1,0,215,180.8,174.5,290.2
					c-21.6,58.3-93.2,70.3-93.2,70.3L877.3,423.9z"/>
			</g>
		</g>
		<g>
			<g>
				<path class="st2" d="M968.4,478.8h-2.7c-73,0-132.2-59.2-132.2-132.2V315c48.6-32.3,88.9-81.1,121.6-144.8
					c4.2,28.6-4.7,53.1-25,74.2c26.4-10.9,47.5-31.6,63.6-61.8c-3,26.9-10.6,47.7-21.7,63.8c18.4-11.3,32-27.8,39.9-50.2
					c5.6,47,37.8,91.9,88.8,126.4v24C1100.7,419.6,1041.5,478.8,968.4,478.8z"/>
			</g>
		</g>
		<g>
			<g>
				<path class="st5" d="M950.1,391.6c0,0,6.3-19.4,17.9-19.4c11.6,0,17.9,19.4,17.9,19.4s-7.6-12.3-17.9-12.3
					C957.7,379.3,950.1,391.6,950.1,391.6z"/>
			</g>
		</g>
		<g>
			<g>
				<path class="st7" d="M944.7,429.4c0,0,6-11.3,12.9-10.8s10.7,8.8,10.7,8.8s6.2-8.7,13.5-8.5s10.4,11.3,10.4,11.3
					s-6.5,20.8-23.7,20.8C951.2,451.1,944.7,429.4,944.7,429.4z"/>
			</g>
		</g>
		<g>
			<g>
				<path class="st9" d="M944,371c-1.3,0-2.6-0.8-3.1-2.2c-0.6-1.7,0.3-3.6,2-4.2c17.8-6.3,35.2-6.3,52,0c1.7,0.6,2.5,2.5,1.9,4.2
					s-2.5,2.5-4.2,1.9c-15.5-5.9-31-5.9-47.5,0C944.7,371,944.4,371,944,371z"/>
			</g>
		</g>
		<g>
			<g>
				<path class="st9" d="M883.1,368.1l-50-32c-1.8-1.2-2.5-3.4-1.6-4.9c1-1.5,3.2-1.8,5.1-0.6l50,32c1.8,1.2,2.5,3.4,1.6,4.9
					C887.2,369,884.9,369.3,883.1,368.1z"/>
			</g>
		</g>
		<g>
			<g>
				<path class="st9" d="M1101.2,329.2l-44,44c-1.7,1.7-4.2,2.1-5.5,0.8c-1.3-1.3-0.9-3.7,0.8-5.5l44-44c1.7-1.7,4.2-2.1,5.5-0.8
					C1103.3,325,1102.9,327.5,1101.2,329.2z"/>
			</g>
		</g>
		<g>
			<g>
				<g>
					<path class="st9" d="M924,363c-0.1,0-0.2,0-0.3,0c-1-0.1-24.5-2.4-34.6-8.6c-1.6-0.9-2.1-3-1.1-4.6c0.9-1.6,3-2.1,4.6-1.1
						c8.9,5.4,31.6,7.6,31.8,7.6c1.8,0.2,3.2,1.8,3,3.6S925.7,363,924,363z"/>
				</g>
			</g>
			<g>
				<g>
					<path class="st9" d="M920.5,355.7c-20.2,0-31.7-15.9-32.2-16.6c-1.1-1.5-0.7-3.6,0.8-4.6c1.5-1.1,3.6-0.7,4.6,0.8l0,0
						c0.1,0.1,10,13.8,26.8,13.8c0.1,0,0.3,0,0.4,0c1.8,0,3.3,1.4,3.4,3.3c0,1.8-1.4,3.3-3.3,3.4
						C920.8,355.7,920.6,355.7,920.5,355.7z"/>
				</g>
			</g>
			<g>
				<g>
					<g>
						
							<ellipse transform="matrix(0.2371 -0.9715 0.9715 0.2371 368.1149 1161.9214)" class="st9" cx="923.9" cy="346.6" rx="16.3" ry="16.3"/>
					</g>
				</g>
				<g>
					<g>
						
							<ellipse transform="matrix(4.033389e-002 -0.9992 0.9992 4.033389e-002 549.7856 1246.5229)" class="st10" cx="923.8" cy="337" rx="4.3" ry="7.5"/>
					</g>
				</g>
			</g>
		</g>
		<g>
			<g>
				<g>
					<path class="st9" d="M1014.4,363c-1.7,0-3.1-1.3-3.3-3c-0.2-1.8,1.2-3.4,3-3.6c0.2,0,22.9-2.3,31.8-7.6c1.6-1,3.6-0.4,4.6,1.1
						c0.9,1.6,0.4,3.6-1.1,4.6c-10.2,6.2-33.6,8.5-34.6,8.6C1014.7,363,1014.5,363,1014.4,363z"/>
				</g>
			</g>
			<g>
				<g>
					<path class="st9" d="M1018,355.7c-0.2,0-0.3,0-0.5,0c-1.8,0-3.3-1.5-3.3-3.4c0-1.8,1.5-3.3,3.3-3.3l0,0c0.1,0,0.3,0,0.4,0
						c16.8,0,26.7-13.7,26.8-13.8c1.1-1.5,3.1-1.9,4.6-0.8s1.9,3.1,0.8,4.6C1049.7,339.8,1038.2,355.7,1018,355.7z"/>
				</g>
			</g>
			<g>
				<g>
					<g>
						
							<ellipse transform="matrix(0.9715 -0.2371 0.2371 0.9715 -53.2497 250.4432)" class="st9" cx="1014.6" cy="346.6" rx="16.3" ry="16.3"/>
					</g>
				</g>
				<g>
					<g>
						
							<ellipse transform="matrix(0.9992 -4.033523e-002 4.033523e-002 0.9992 -12.7714 41.2031)" class="st10" cx="1014.7" cy="337.1" rx="7.5" ry="4.3"/>
					</g>
				</g>
			</g>
		</g>
		<g class="st11">
			<g>
				<ellipse class="st12" cx="913.3" cy="367.8" rx="30.7" ry="24.8"/>
			</g>
		</g>
		<g class="st11">
			<g>
				<ellipse class="st12" cx="1024.4" cy="367.8" rx="30.7" ry="24.8"/>
			</g>
		</g>
		<g>
			<g>
				<path class="st13" d="M935,319.9v-4.5c0-0.5-0.4-1-0.9-1c-5.1-0.7-30.4-3.8-42.6,2.9c-0.5,0.3-0.7,0.9-0.4,1.4l2.3,3.8
					c0.2,0.4,0.7,0.6,1.2,0.4c3.5-1.1,18.4-5.4,39.2-2.1C934.5,321,935,320.5,935,319.9z"/>
			</g>
		</g>
		<g>
			<g>
				<path class="st13" d="M998.2,319.9v-4.5c0-0.5,0.4-1,0.9-1c5.1-0.7,30.4-3.8,42.6,2.9c0.5,0.3,0.7,0.9,0.4,1.4l-2.3,3.8
					c-0.3,0.4-0.7,0.6-1.2,0.4c-3.5-1.1-18.4-5.4-39.2-2.1C998.8,321,998.2,320.5,998.2,319.9z"/>
			</g>
		</g>
	</g>
</g>
<g class="st14">
	<path class="st15" d="M89,1037V317h438v122H208v160h296v121H208v195h330v122H89z"/>
</g>
</svg>
