<?xml version="1.0" encoding="utf-8"?>
<!-- Generator: Adobe Illustrator 19.2.0, SVG Export Plug-In . SVG Version: 6.00 Build 0)  -->
<svg version="1.1" id="圖層_2" xmlns="http://www.w3.org/2000/svg" xmlns:xlink="http://www.w3.org/1999/xlink" x="0px" y="0px"
	 viewBox="0 0 1414 1132" style="enable-background:new 0 0 1414 1132;" xml:space="preserve">
<style type="text/css">
	.st0{fill:#DCDCDC;}
	.st1{enable-background:new    ;}
	.st2{fill:#683333;}
	.st3{fill:#563A28;}
	.st4{fill:#2D2926;}
	.st5{fill:#F4EFED;}
	.st6{fill:#3A332D;}
	.st7{fill:#E2DCD9;}
	.st8{fill:#7F5732;}
	.st9{fill:#F9DAB4;}
	.st10{fill:#EFC4A0;}
	.st11{fill:#492020;}
	.st12{fill:#754343;}
	.st13{fill:#3F3E3D;}
	.st14{fill:#F4D3B0;}
	.st15{fill:#302F2D;}
	.st16{fill:#C65044;}
	.st17{fill:#E8DFD9;}
</style>
<circle class="st0" cx="919.7" cy="587.5" r="455.5"/>
<g class="st1">
	<path class="st2" d="M88,317h217.5c55,0,96.5,6.1,124.5,18.4c28,12.3,53.8,33,77.3,62.1c23.6,29.1,42.1,67,55.5,113.5
		S583,615.3,583,684.3c0,62.2-7,116.3-21.1,162.3S530,929.1,508.4,956c-21.6,26.8-47.7,47.1-78.3,60.7
		c-30.6,13.6-70,20.4-118.1,20.4H88V317z M207,439v476h89.4c38.3,0,66.1-3.6,83.3-10.8s31.3-18,42.3-32.6s20.1-37.5,27.3-68.9
		S460,730,460,678.7c0-53.3-3.7-95.3-11.1-126s-18.8-54.9-34.4-72.5s-34.5-29.3-56.7-34.8c-16.7-4.3-49-6.4-96.8-6.4H207z"/>
</g>
<g>
	<g>
		<g>
			<g>
				<path class="st3" d="M883,715.8c0,0,146.2-10.9,195.6,0l14.3,298.6l-89.4,4.3c-0.1-50.5-10.5-121.6-23.1-196.9
					c0,0-17.3,125.8-19.3,195.7L870,1016C870,1016,880.4,747.1,883,715.8z"/>
			</g>
		</g>
		<g>
			<g>
				<path class="st4" d="M967.3,1034.3c0,13.2-22.8,12.1-51,12.1s-51,1.1-51-12.1c0-24.4,22.8-43.4,51-43.4
					S967.3,1009.9,967.3,1034.3z"/>
			</g>
		</g>
		<g>
			<g>
				<path class="st4" d="M998,1034.3c0,13.2,22.8,12.1,51,12.1c28.1,0,51,1.1,51-12.1c0-24.4-22.8-43.4-51-43.4
					C1020.8,990.9,998,1009.9,998,1034.3z"/>
			</g>
		</g>
		<g>
			<g>
				<rect x="924.8" y="455.2" class="st5" width="113.6" height="261.6"/>
			</g>
		</g>
		<g>
			<g>
				<path class="st6" d="M986.9,495.8h-12.3c-2.8,0-5.1-2.3-5.1-5.1v-16.1c0-2.8,2.3-5.1,5.1-5.1h12.3c2.8,0,5.1,2.3,5.1,5.1v16.1
					C992,493.6,989.7,495.8,986.9,495.8z"/>
			</g>
		</g>
		<g>
			<g>
				<polygon class="st6" points="974,493.3 962.4,654.8 981.6,678.2 999.8,653.9 987,493.3 				"/>
			</g>
		</g>
		<g>
			<g>
				<polygon class="st7" points="920.5,463.3 920.5,517.7 981.5,482.7 1037.5,517.7 1039.9,463.1 				"/>
			</g>
		</g>
		<g>
			<g>
				<rect x="916.7" y="700.3" class="st8" width="123.9" height="23.9"/>
			</g>
		</g>
		<g>
			<g>
				<path class="st9" d="M864.3,629.2c0,0-18,43-18.7,64.5s-6.8,31.4-13,31.8c-6.2,0.3-20.5-7.2-13.7-42.3c0,0-5.8,40.6-25.3,38.2
					c-19.5-2.4-9.6-38.2-9.6-38.2s-6.2,38.6-28.4,32.8c-22.2-5.9-2.4-70.6-2.4-70.6s-6.8-0.3-16.1,4c-12.9,6-29.9,16.4-34.9,7.3
					c-8.6-15.7,17.2-36.6,37.3-39.4c6.6-0.9,5.6-21.3,30.2-37.6l27-10.1l73.6,21.4L864.3,629.2z"/>
			</g>
		</g>
		<g>
			<g>
				<path class="st10" d="M758.8,635.1c0,0,42,19.6,71.6,18.2L758.8,635.1z"/>
			</g>
		</g>
		<g>
			<g>
				<path class="st2" d="M940.3,457.3c0,0-65.6,2.8-106.2,93.9c0,0-50.5-2.3-64.4,28.4c0,0,74.9-14.6,94.6,49.6l18.6-14.2
					L940.3,457.3z"/>
			</g>
		</g>
		<g>
			<g>
				<path class="st9" d="M1162.4,545.7c0,0,111.5-163.4,81.8-183.8s-54.2,60.7-54.2,60.7s-29.7-27.7-43.7-11.5s0,25.2,0,25.1
					c0-0.2-16.5-5-23.4,11.7c-7.1,17.2,11.1,30.1,14.2,31l-22.3,44.2L1162.4,545.7z"/>
			</g>
		</g>
		<g>
			<g>
				<path class="st10" d="M1137.1,478.8c0,0,11.6,6.4,18.6,2.7c3.6-1.9,5.7-11.3-5.6-21.1c0,0,21.8,11.9,9.1,24.1
					c-3.2,3.1-12.3,5.5-24.2-1.5L1137.1,478.8z"/>
			</g>
		</g>
		<g>
			<g>
				<path class="st10" d="M1146.3,436.1c-0.2-0.1-0.3-0.1-0.5-0.1c-1.6-0.4-6.7-1.6-12.6,0.8c10.1-0.1,41.4,12.4,41.4,12.4
					C1173.3,444,1146.3,436.1,1146.3,436.1z"/>
			</g>
		</g>
		<g>
			<g>
				<path class="st2" d="M1038,457.3c0,0,60.3,25.2,66.9,72.1l9.8-16.4l53.8,30.2c0,0-63.9,122-84.3,125.6
					c-20.3,3.6-30.2-30.5-30.2-30.5L1038,457.3z"/>
			</g>
		</g>
		<g>
			<g>
				<path class="st11" d="M1099.7,511.9L1099.7,511.9c-2.2,15-10.5,49.4-10.5,49.4l15.6-32C1104,523.2,1102.2,517.4,1099.7,511.9z"
					/>
			</g>
		</g>
		<g>
			<g>
				<polygon class="st2" points="870.2,609.9 861.6,761.2 934,761.2 959,559.2 936.1,468.7 				"/>
			</g>
		</g>
		<g>
			<g>
				<polygon class="st2" points="1002.7,559.7 1019.3,761.2 1093,761.2 1078.1,540.1 1034.7,457.3 				"/>
			</g>
		</g>
		<g>
			<g>
				<polygon class="st12" points="1030.5,468.3 1049.1,505.6 1027.8,520.1 1033.2,535.7 1002.7,559.7 				"/>
			</g>
		</g>
		<g>
			<g>
				<polygon class="st12" points="959,559.2 926.3,527.2 935.7,516.8 914.7,503.6 936.1,468.7 				"/>
			</g>
		</g>
	</g>
	<g>
		<g>
			<g>
				<path class="st13" d="M861.2,432.8c0,0-69.9-7.7-91.3-97.2c-9-37.8-10.1-84.9,1.4-128.4c5.9-22.2,25.3-41.2,38.7-47.4l-21.5,3.3
					c31.1-57.8,93.3-97.8,201.8-78.3c0,0,2-8.8-9.4-18.4c0,0,111.8,1.8,163.6,91.1c0,0,2.7-6.9,3.2-17.3c0,0,33,25.8,45.7,79.6
					c17,72.2,6.4,180.9-84.5,211L861.2,432.8z"/>
			</g>
		</g>
		<g>
			<g>
				<path class="st14" d="M843.9,304.8c0,0-21.4-13.8-35.7,0s-16.8,72.4,35.7,87.2V304.8z"/>
			</g>
		</g>
		<g>
			<g>
				<path class="st14" d="M1117.9,304.8c0,0,21.4-13.8,35.7,0c14.3,13.8,16.8,72.4-35.7,87.2V304.8z"/>
			</g>
		</g>
		<g>
			<g>
				<path class="st9" d="M836.7,261.5v120.7c0,34.5,21.7,65.4,54.2,76.8c21.1,7.3,50.1,12.7,89.9,12.7c39.8,0,68.8-5.3,89.9-12.7
					c32.6-11.3,54.2-42.3,54.2-76.8V231.5l-69.3-29.5l-124.5,1.5C872.3,207.8,839.9,226.6,836.7,261.5z"/>
			</g>
		</g>
		<g>
			<g>
				<path class="st15" d="M1125,264.1c0,0,27.1-112.7-104.2-151.2c0,0,13.7,11.9,10.9,28.7c0,0-42.4-36.5-111.2-25.1
					c0,0,25.5,11.4,25.1,23.7c0,0-62.4-23.7-111.7,6.8c0,0,25.5-1.6,37.4,12.6c0,0-70.6,5.6-96.6,39.8c0,0,36-8.2,54.7-5.9
					c0,0-46,21-49.7,57.9c0,0,36.5-32.4,67.5-31c0,0-55.6,26-53.3,86.6c0,0,56.1-89.9,128.5-89.8c32.2,0.1,21.4,6.4,59.3,6.8
					c37.8,0.5,25.1-8.2,68.8-8.5C1112.8,215.4,1125,264.1,1125,264.1z"/>
			</g>
		</g>
		<g>
			<g>
				<path class="st10" d="M948.1,345.8c0,0,13.4,16.7,28,16.1c14.7-0.6,25.8-16.1,25.8-16.1s-13.4,9.3-26.1,9.3
					C963,355.1,948.1,345.8,948.1,345.8z"/>
			</g>
		</g>
		<g>
			<g>
				<path class="st11" d="M928.2,398.7c0,0,60.4-3.6,88.6-22.4c28.2-18.9,27.9,18.9,23.2,37.7c-4.6,18.9-42.4,22.4-93.5,22.2
					C946.5,436.1,946,411,928.2,398.7z"/>
			</g>
		</g>
		<g>
			<g>
				<path class="st16" d="M1030.2,425.8c-8.1-10.3-20.6-19.4-38.6-16c-21.1,3.9-28,16.4-30.1,26.4
					C992.4,435.7,1017.1,433.3,1030.2,425.8z"/>
			</g>
		</g>
		<g>
			<g>
				<g>
					<circle class="st6" cx="890.6" cy="310.3" r="20"/>
				</g>
			</g>
			<g>
				<g>
					
						<ellipse transform="matrix(0.1977 -0.9803 0.9803 0.1977 423.8216 1115.6675)" class="st17" cx="893.5" cy="298.9" rx="5.3" ry="9.1"/>
				</g>
			</g>
		</g>
		<g>
			<g>
				<polygon class="st6" points="862.1,267.8 879.8,251.6 920,280.1 914.6,290.3 				"/>
			</g>
		</g>
		<g>
			<g>
				<g>
					<circle class="st6" cx="1076.3" cy="310.3" r="20"/>
				</g>
			</g>
			<g>
				<g>
					
						<ellipse transform="matrix(0.1977 -0.9803 0.9803 0.1977 572.8047 1297.7423)" class="st17" cx="1079.2" cy="298.9" rx="5.3" ry="9.1"/>
				</g>
			</g>
		</g>
		<g>
			<g>
				<polygon class="st6" points="1104.8,267.8 1087.1,251.6 1046.9,280.1 1052.3,290.3 				"/>
			</g>
		</g>
	</g>
</g>
</svg>
