<?xml version="1.0" encoding="utf-8"?>
<!-- Generator: Adobe Illustrator 19.2.0, SVG Export Plug-In . SVG Version: 6.00 Build 0)  -->
<svg version="1.1" id="圖層_4" xmlns="http://www.w3.org/2000/svg" xmlns:xlink="http://www.w3.org/1999/xlink" x="0px" y="0px"
	 viewBox="0 0 1414 1132" style="enable-background:new 0 0 1414 1132;" xml:space="preserve">
<style type="text/css">
	.st0{fill:#DCDCDC;}
	.st1{enable-background:new    ;}
	.st2{fill:#61AA90;}
	.st3{fill:#F9DAB4;}
	.st4{fill:#7F5732;}
	.st5{fill:#EFC4A0;}
	.st6{fill:#F9F5ED;}
	.st7{fill:#C65044;}
	.st8{fill:#E2DCD9;}
	.st9{fill:#3A332D;}
	.st10{fill:#494949;}
	.st11{fill:#515151;}
	.st12{fill:#492020;}
</style>
<circle class="st0" cx="919.7" cy="563.5" r="455.5"/>
<g class="st1">
	<path class="st2" d="M89,293h237c64.7,0,110.2,5.9,136.5,17.7c26.3,11.8,48.4,32.5,66.5,62.3S556,436.5,556,474.1
		c0,34.7-7.6,66-22.9,94c-15.3,28-35.1,48.7-59.5,62.1c34.5,12.5,61.5,33.8,81.1,63.9c19.5,30.2,29.3,66.8,29.3,110.1
		c0,52.4-12.6,96.8-37.9,133s-55,58.6-89.5,67.1c-23.9,5.9-79.5,8.8-166.6,8.8H89V293z M208,413v166h79.3c47.6,0,77-0.8,88.3-2.5
		c20.5-3.3,36.5-11.8,48.1-25.7s17.4-32.7,17.4-56.6c0-21.2-4.7-38.4-14.1-51.7c-9.4-13.2-20.8-21.5-34.2-24.7
		c-13.4-3.3-51.8-4.9-115.3-4.9H208z M208,699v192h110.8c48.6,0,79.7-2.5,93.5-7.6s25.3-15,34.7-29.9c9.3-14.8,14-33.7,14-56.6
		c0-23.5-5-42.8-15-58c-10-15.2-23.3-25.6-39.9-31.3s-50.5-8.6-101.6-8.6H208z"/>
</g>
<g>
	<g>
		<g>
			<g>
				<path class="st3" d="M898.5,843.9c0,0,9.4,78.2,9.4,128.9s-1,72,18.8,72c23.5,0,21.2-20,21.2-71.3s8.4-129.5,8.4-129.5h-57.8
					V843.9z"/>
			</g>
		</g>
		<g>
			<g>
				<path class="st4" d="M947.7,1008.6c-5.7-2.7-12.3-4.2-19.3-4.2c-7.4,0-14.4,1.7-20.3,4.7c0.8,24.8,4.3,35.7,18.5,35.7
					C943.7,1044.7,947.1,1034.1,947.7,1008.6z"/>
			</g>
		</g>
		<g>
			<g>
				<path class="st3" d="M1004.1,843.9c0,0,9.4,78.2,9.4,128.9s-1,72,18.8,72c23.5,0,21.2-20,21.2-71.3s8.4-129.5,8.4-129.5h-57.8
					V843.9z"/>
			</g>
		</g>
		<g>
			<g>
				<path class="st4" d="M1053.4,1008.6c-5.7-2.7-12.3-4.2-19.3-4.2c-7.4,0-14.4,1.7-20.3,4.7c0.8,24.8,4.3,35.7,18.5,35.7
					C1049.4,1044.7,1052.8,1034.1,1053.4,1008.6z"/>
			</g>
		</g>
		<g>
			<g>
				<path class="st2" d="M1069.7,908H890.6c-9.8-55.7-22.6-171.5-13-229.9h205.2C1092.9,736,1079.9,851.8,1069.7,908z"/>
			</g>
		</g>
		<g>
			<g>
				<path class="st3" d="M864.2,501.6c0,0-33.4,113.1-32.1,132.8c1.2,19.7,50.2,40.5,50.2,40.5l14.1-163.6L864.2,501.6z"/>
			</g>
		</g>
		<g>
			<g>
				<path class="st2" d="M892.9,428.9c0,0-32,22.2-42.4,78.5l45.9,18.2L892.9,428.9z"/>
			</g>
		</g>
		<g>
			<g>
				<path class="st3" d="M1095.6,501.6c0,0,29.5,105.9,57.3,115.9s44.1,7,50.5,17.8s-25.5,20.7-39.6,13.9c0,0,38.9,36.2,29.8,47.1
					c-9.1,10.9-30.2-16.3-30.2-16.3s16.4,21.9,9.5,27.9c-6.9,5.9-24.6-17.1-24.6-17.1s10.2,19,4.1,22.4
					c-9.4,5.2-30.2-22.2-30.2-22.2c-11.9-16.6-18.1-35.4-15.5-57.5l-48.6-117.1L1095.6,501.6z"/>
			</g>
		</g>
		<g>
			<g>
				<path class="st5" d="M1161.3,649.4c0,0-7.4,17.3-32,19.8C1129.3,669.3,1157.3,675.6,1161.3,649.4z"/>
			</g>
		</g>
		<g>
			<g>
				<path class="st2" d="M1066.7,428.9c0,0,32,22.2,42.4,78.5l-45.9,18.2L1066.7,428.9z"/>
			</g>
		</g>
		<g>
			<g>
				<path class="st6" d="M1066.7,428.9c-21.3-11.7-86.9-13.9-86.9-13.9s-65.6,2.2-86.9,13.9c0,0-19.8,169.3-15.4,249.2
					c0,0,48.8,8.1,102.3,8.1c53.4,0,102.3-8.1,102.3-8.1C1086.5,598.2,1066.7,428.9,1066.7,428.9z"/>
			</g>
		</g>
		<g>
			<g>
				<path class="st7" d="M988.7,455.9h-19.4c-2.9,0-5.3-2.4-5.3-5.3v-9.1c0-2.9,2.4-5.3,5.3-5.3h19.4c2.9,0,5.3,2.4,5.3,5.3v9.1
					C994,453.5,991.6,455.9,988.7,455.9z"/>
			</g>
		</g>
		<g>
			<g>
				<polygon class="st7" points="972.5,446.1 986,446.1 994,600.6 979,618.2 964,599.9 				"/>
			</g>
		</g>
		<g>
			<g>
				<polygon class="st8" points="956.1,463.3 979.1,433.5 1002.1,463.3 1048.4,422.7 910.7,422.7 				"/>
			</g>
		</g>
	</g>
	<g>
		<g>
			<g>
				<ellipse class="st3" cx="979.8" cy="312" rx="128.6" ry="132"/>
			</g>
		</g>
		<g>
			<g>
				<path class="st9" d="M889.6,333.3c-1.8,0-3.3-1.4-3.3-3.2c0-8.7,4.3-25.2,21.2-25.8c0.3,0,0.7,0,1,0c15.8,0,23,13.2,24.6,20.3
					c0.4,1.8-0.7,3.5-2.5,3.9s-3.5-0.7-3.9-2.4c-0.2-0.6-3.9-15.7-19-15.2c-14.7,0.5-14.9,18.5-14.9,19.2
					C892.8,331.8,891.4,333.3,889.6,333.3L889.6,333.3z"/>
			</g>
		</g>
		<g>
			<g>
				<path class="st9" d="M884,333.1c-3.5,0-8.3-0.5-14-2.5c-1.7-0.6-2.6-2.4-2-4.1s2.4-2.6,4.1-2c9.9,3.4,16.5,1.7,16.6,1.7
					c1.7-0.5,3.5,0.5,4,2.3c0.5,1.7-0.5,3.5-2.2,4C890.3,332.5,887.9,333.1,884,333.1z"/>
			</g>
		</g>
		<g>
			<g>
				<path class="st9" d="M890,326.3c-9.6,0-20.6-9-21-9.4c-1.4-1.1-1.6-3.2-0.4-4.6c1.1-1.4,3.2-1.6,4.6-0.4l0,0
					c2.7,2.2,10.9,7.9,16.9,7.9c0.1,0,0.1,0,0.2,0c1.8,0,3.2,1.4,3.3,3.2c0,1.8-1.4,3.3-3.2,3.3C890.2,326.3,890.1,326.3,890,326.3z
					"/>
			</g>
		</g>
		<g>
			<g>
				<path class="st9" d="M1069.8,333.3L1069.8,333.3c-1.8,0-3.3-1.5-3.3-3.3c0-0.8-0.2-18.7-14.9-19.2c-15.2-0.5-18.9,14.5-19,15.2
					c-0.4,1.8-2.1,2.9-3.9,2.5s-2.9-2.1-2.5-3.9c1.6-7.2,9.1-20.8,25.6-20.2c16.8,0.6,21.2,17.1,21.2,25.8
					C1073.1,331.8,1071.6,333.3,1069.8,333.3z"/>
			</g>
		</g>
		<g>
			<g>
				<path class="st9" d="M1075.4,333.1c-3.9,0-6.3-0.7-6.5-0.7c-1.7-0.5-2.7-2.3-2.2-4s2.3-2.7,4-2.2c0.2,0,6.8,1.7,16.6-1.7
					c1.7-0.6,3.6,0.3,4.1,2c0.6,1.7-0.3,3.6-2,4.1C1083.8,332.6,1079,333.1,1075.4,333.1z"/>
			</g>
		</g>
		<g>
			<g>
				<path class="st9" d="M1069.4,326.3c-0.1,0-0.2,0-0.2,0c-1.8,0-3.2-1.5-3.2-3.3s1.5-3.2,3.3-3.2c0.1,0,0.1,0,0.2,0
					c6,0,14.2-5.7,16.9-7.9c1.4-1.1,3.4-0.9,4.6,0.4c1.1,1.4,0.9,3.4-0.4,4.6C1090,317.4,1079,326.3,1069.4,326.3z"/>
			</g>
		</g>
		<g>
			<g>
				<path class="st5" d="M965.7,364.2c0,0,1.5-13.3,14.3-13.4s15.4,13.4,15.4,13.4s-7-8.2-15.2-8.2S965.7,364.2,965.7,364.2z"/>
			</g>
		</g>
		<g>
			<g>
				<path class="st10" d="M791.9,137.8c0,0-6.4-23.2-28.5-22.1s-27.4,22.7-26.6,51.5c0.8,28.8-2.8,57.9-25.2,39.7
					c0,0-5.9,15.4,5.9,21.5c0,0-8.4,7.3-18.2,1.4c0,0-0.3,16.8,12,18.5c0,0-4.5,7.3-9.8,6.7c0,0,14.7,28.4,42.8,13.1
					c12-6.5,28.5-20.7,42.5-49.5l19.3-48.1L791.9,137.8z"/>
			</g>
		</g>
		<g>
			<g>
				<path class="st6" d="M812.7,137.1c0,0-12.5-14.8-27.8,0.6c-15.4,15.4,0.2,39.8,17.8,31.2L812.7,137.1z"/>
			</g>
		</g>
		<g>
			<g>
				<path class="st10" d="M1167.7,137.8c0,0,6.4-23.2,28.5-22.1s27.4,22.7,26.6,51.5s2.8,57.9,25.2,39.7c0,0,5.9,15.4-5.9,21.5
					c0,0,8.4,7.3,18.2,1.4c0,0,0.3,16.8-12,18.5c0,0,4.5,7.3,9.8,6.7c0,0-14.7,28.4-42.8,13.1c-12-6.5-28.5-20.7-42.5-49.5
					l-19.3-48.1L1167.7,137.8z"/>
			</g>
		</g>
		<g>
			<g>
				<path class="st6" d="M1146.9,137.1c0,0,12.5-14.8,27.8,0.6s-0.2,39.8-17.8,31.2L1146.9,137.1z"/>
			</g>
		</g>
		<g>
			<g>
				<path class="st11" d="M1194.7,440.2c0,0-33.3-11.1-32-62.3c1.7-65.8,95.4-309-182.9-309S795.2,312,796.9,377.9
					c1.3,51.2-32,62.3-32,62.3c6.4,17,29.5,15.5,29.5,15.5c-1.5,13.6-18.6,15.9-18.6,15.9c8.7,21.6,36.4,13.3,36.4,13.3
					c2.3,9.1-4.5,16.3-4.5,16.3c106.5,48.6,60.5-203.6,60.5-203.6c39.2-12.8,111.6-11.1,111.6-11.1s72.4-1.7,111.6,11.1
					c0,0-46,252.2,60.5,203.6c0,0-6.8-7.2-4.5-16.3c0,0,27.6,8.3,36.4-13.3c0,0-17-2.3-18.6-15.9
					C1165.2,455.7,1188.3,457.2,1194.7,440.2z"/>
			</g>
		</g>
		<g>
			<g>
				<g>
					<path class="st12" d="M1019.3,390.7c0,0-59.4,2.7-79.1-5.9c0,0-4.3,26.9,8.6,27.7c12.9,0.8,35.7,2.8,64.5-3.4
						c0,0,5-0.8,4.3-7.1C1017,395.6,1019.3,390.7,1019.3,390.7z"/>
				</g>
			</g>
			<g>
				<g>
					<path class="st7" d="M1005.1,410.6c-16.5,2.8-30.7,3-41.7,2.6c3-5.6,9.2-13.1,20.8-13.6C997.6,399.1,1003.1,406.4,1005.1,410.6
						z"/>
				</g>
			</g>
		</g>
	</g>
</g>
</svg>
