<?xml version="1.0" encoding="utf-8"?>
<!-- Generator: Adobe Illustrator 19.2.0, SVG Export Plug-In . SVG Version: 6.00 Build 0)  -->
<svg version="1.1" id="圖層_5" xmlns="http://www.w3.org/2000/svg" xmlns:xlink="http://www.w3.org/1999/xlink" x="0px" y="0px"
	 viewBox="0 0 1414 1132" style="enable-background:new 0 0 1414 1132;" xml:space="preserve">
<style type="text/css">
	.st0{fill:#DCDCDC;}
	.st1{enable-background:new    ;}
	.st2{fill:#F8B551;}
	.st3{fill:#EA9628;}
	.st4{fill:#F9DAB4;}
	.st5{fill:#7F5732;}
	.st6{fill:#EFC4A0;}
	.st7{fill:#F4EFED;}
	.st8{fill:#C6C2C1;}
	.st9{fill:#C65044;}
	.st10{fill:#E2DCD9;}
	.st11{fill:#393C3D;}
	.st12{fill:#515151;}
	.st13{fill:#606060;}
	.st14{fill:#E08A22;}
	.st15{fill:#F4D3B0;}
	.st16{fill:#3A332D;}
</style>
<circle class="st0" cx="919.7" cy="563.5" r="455.5"/>
<g class="st1">
	<path class="st2" d="M639,1013H509.7l-50.5-163H222.4l-48.6,163H47l228.4-720h127.8L639,1013z M420.3,728l-81.7-267.1L258.8,728
		H420.3z"/>
</g>
<g>
	<g>
		<g>
			<g>
				<path class="st3" d="M1193.9,535.3c0,0-50.9-23.1-19.6-269.1C1192.8,121,1092,67.8,982.7,67.8S772.6,121,791.1,266.2
					c31.4,246-19.6,269.1-19.6,269.1c5.9,14.3,40.4,8.7,40.4,8.7c-5.6,20-35.5,21.6-35.5,21.6c35.3,84.8,206.3,78.1,206.3,78.1
					s171,6.7,206.3-78.1c0,0-29.9-1.6-35.5-21.6C1153.5,544,1188,549.6,1193.9,535.3z"/>
			</g>
		</g>
		<g>
			<g>
				<path class="st4" d="M897.3,846.7c0,0,9.4,78.3,9.4,129.1s-1,72.1,18.8,72.1c23.5,0,21.2-20,21.2-71.4s8.4-129.8,8.4-129.8
					H897.3z"/>
			</g>
		</g>
		<g>
			<g>
				<path class="st5" d="M946.6,1011.7c-5.7-2.7-12.3-4.3-19.4-4.3c-7.5,0-14.4,1.7-20.3,4.7c0.8,24.8,4.3,35.8,18.5,35.8
					C942.6,1047.9,946,1037.3,946.6,1011.7z"/>
			</g>
		</g>
		<g>
			<g>
				<path class="st4" d="M1003.1,846.7c0,0,9.4,78.3,9.4,129.1s-1,72.1,18.8,72.1c23.5,0,21.2-20,21.2-71.4s8.4-129.8,8.4-129.8
					H1003.1z"/>
			</g>
		</g>
		<g>
			<g>
				<path class="st5" d="M1052.5,1011.7c-5.7-2.7-12.3-4.3-19.4-4.3c-7.5,0-14.4,1.7-20.3,4.7c0.8,24.8,4.3,35.8,18.5,35.8
					C1048.5,1047.9,1051.9,1037.3,1052.5,1011.7z"/>
			</g>
		</g>
		<g>
			<g>
				<path class="st4" d="M1115,619.8c0.3,10.4-29.2,66.6-30.3,68.5c0,0,8,2.3,11.8,6.4c3.8,4,8.4,10.8,6.5,18.5
					c0,0,4.9-10.9,19.5-3.6c14.6,7.3-6.2,37-15.2,39.6s-39.4,4.3-42-22.5s-6.3-46.5-6.3-46.5s26.7-54,26.4-59.2
					s-28.6-55.4-28.6-55.4l28.1-9.6C1084.9,556,1114.8,609.4,1115,619.8z"/>
			</g>
		</g>
		<g>
			<g>
				<path class="st6" d="M1103,713.2c1.1-4.5,0-8.6-1.8-12.1c-2.5,11.8-0.2,25.9-0.2,25.9C1102.5,723.5,1103,713.2,1103,713.2z"/>
			</g>
		</g>
		<g>
			<g>
				<path class="st4" d="M879.5,559c0,0-4.3,110.1-29.1,126.2c-24.8,16.1-41.4,17-45.1,29c-3.7,12,29.7,14.3,41.8,4.4
					c0,0-29.6,44.3-18.2,52.8c11.4,8.5,25.7-22.9,25.7-22.9s-10.9,25.1-2.8,29.3c8.1,4.2,20.1-22.4,20.1-22.4s-5.6,20.9,1.1,22.8
					c10.3,2.9,24.3-28.6,24.3-28.6l5.7-185.7L879.5,559z"/>
			</g>
		</g>
		<g>
			<g>
				<path class="st6" d="M849.5,718.2c0,0,11.2,15.2,35.8,11.9C885.4,730.2,859.5,742.9,849.5,718.2z"/>
			</g>
		</g>
		<g>
			<g>
				<rect x="917.2" y="468" class="st7" width="127.5" height="127.8"/>
			</g>
		</g>
		<g>
			<g>
				<path class="st8" d="M895.6,701.4c0,0-6.2,130.7-29.9,150.7l1.1,3c1.9,5.1,7.9,7.2,12.5,4.4l3.7-2.2c5.5-3.3,12.4-3.3,18,0
					l3.7,2.2c5.5,3.3,12.4,3.3,18,0l3.7-2.2c5.5-3.3,12.4-3.3,18,0l3.7,2.2c5.5,3.3,12.4,3.3,18,0l3.7-2.2c5.5-3.3,12.4-3.3,18,0
					l3.7,2.2c5.5,3.3,12.4,3.3,18,0l3.7-2.2c5.5-3.3,12.4-3.3,18,0l3.7,2.2c5.5,3.3,12.4,3.3,18,0l3.7-2.2c5.5-3.3,12.4-3.3,18,0
					l6.7,4c3.5,2.1,7.9,1.5,10.7-1.5l3.7-3.9c0,0-24.7-40.4-29.4-154.5H895.6z"/>
			</g>
		</g>
		<g>
			<g>
				<path class="st9" d="M988.7,500.4h-16.6c-2.5,0-4.5-2-4.5-4.5v-7.7c0-2.5,2-4.5,4.5-4.5h16.6c2.5,0,4.5,2,4.5,4.5v7.7
					C993.2,498.4,991.2,500.4,988.7,500.4z"/>
			</g>
		</g>
		<g>
			<g>
				<polygon class="st9" points="974.9,492 986.4,492 993.2,577.1 980.5,600 967.7,576.5 				"/>
			</g>
		</g>
		<g>
			<g>
				<polygon class="st10" points="960.9,506.7 980.5,481.3 1000.1,506.7 1039.7,475.8 922.2,475.8 				"/>
			</g>
		</g>
		<g>
			<g>
				<path class="st11" d="M901.9,479.1c0,0-35.7,40.2-49.6,81.4c0,0,20.6,11.5,54.3,14.3L901.9,479.1z"/>
			</g>
		</g>
		<g>
			<g>
				<path class="st11" d="M1059.2,479.1c0,0,35.7,40.2,49.6,81.4c0,0-20.6,11.5-54.3,14.3L1059.2,479.1z"/>
			</g>
		</g>
		<g>
			<g>
				<path class="st12" d="M1058.5,477.5c-1.6-3.2-7.3-5.4-14.9-6.9l-63,113.8l-63-113.8c-7.6,1.5-13.3,3.8-14.9,6.9
					c-10.3,20-7,223.9-7,223.9h84.9h84.9C1065.5,701.4,1068.8,497.6,1058.5,477.5z"/>
			</g>
		</g>
		<g>
			<g>
				<polygon class="st13" points="919.9,474.8 911.4,540.7 936,540.7 933.2,574.8 980.5,584.3 				"/>
			</g>
		</g>
		<g>
			<g>
				<polygon class="st13" points="1041.2,474.8 1049.6,540.7 1025.1,540.7 1027.9,574.8 980.5,584.3 				"/>
			</g>
		</g>
		<g>
			<g>
				<path class="st11" d="M980.5,584.3v117.1C980.5,701.4,972.1,623.4,980.5,584.3z"/>
			</g>
		</g>
	</g>
	<g>
		<g>
			<g>
				<polygon class="st14" points="1152.3,304.1 1150.8,281.4 1161,306.2 				"/>
			</g>
		</g>
		<g>
			<g>
				<path class="st15" d="M828.9,320.1c0,0-20.1-29-46.8-12.5c-31.7,19.5-1.9,111.5,68.1,107.2L828.9,320.1z"/>
			</g>
		</g>
		<g>
			<g>
				<path class="st15" d="M1131.7,320.1c0,0,20.1-29,46.8-12.5c31.7,19.5,1.9,111.5-68.1,107.2L1131.7,320.1z"/>
			</g>
		</g>
		<g>
			<g>
				<path class="st4" d="M982.2,486.9h-3.4c-93.4,0-169-75.7-169-169V202h341.5v115.8C1151.3,411.2,1075.6,486.9,982.2,486.9z"/>
			</g>
		</g>
		<g>
			<g>
				<path class="st9" d="M949.7,436.7c0,0,7.5-11.3,16.2-10.8s13.4,8.8,13.4,8.8s7.8-8.7,16.9-8.5c9.1,0.2,13.1,11.3,13.1,11.3
					s-9,21.1-30.6,21.1C957,458.7,949.7,436.7,949.7,436.7z"/>
			</g>
		</g>
		<g>
			<g>
				<path class="st16" d="M869.9,358.2c-1.8,0-3.3-1.5-3.3-3.3c0-8.7,4.3-25.3,21.2-25.8c16.5-0.6,24,13,25.6,20.3
					c0.4,1.8-0.7,3.5-2.5,3.9s-3.5-0.7-3.9-2.5c-0.2-0.7-3.9-15.7-19-15.2c-14.8,0.5-14.9,18.5-14.9,19.3
					C873.1,356.7,871.7,358.2,869.9,358.2L869.9,358.2z"/>
			</g>
		</g>
		<g>
			<g>
				<path class="st3" d="M855.4,315.7c0,0,46.9-7.3,63.4,0l-14.2-14.4C904.6,301.3,862.6,301.3,855.4,315.7z"/>
			</g>
		</g>
		<g>
			<g>
				<path class="st3" d="M1105,315.7c0,0-46.9-7.3-63.4,0l14.2-14.4C1055.8,301.3,1097.8,301.3,1105,315.7z"/>
			</g>
		</g>
		<g>
			<g>
				<path class="st16" d="M864.3,358.1c-3.5,0-8.4-0.5-14-2.5c-1.7-0.6-2.6-2.4-2-4.2c0.6-1.7,2.4-2.6,4.2-2
					c9.9,3.4,16.5,1.7,16.6,1.7c1.7-0.5,3.5,0.5,4,2.2s-0.5,3.5-2.2,4C870.6,357.4,868.2,358.1,864.3,358.1z"/>
			</g>
		</g>
		<g>
			<g>
				<path class="st16" d="M870.3,351.3c-9.6,0-20.6-9-21.1-9.4c-1.4-1.1-1.6-3.2-0.4-4.6c1.1-1.4,3.2-1.6,4.6-0.4l0,0
					c2.7,2.2,10.9,7.9,16.9,7.9c0.1,0,0.1,0,0.2,0c1.8,0,3.2,1.4,3.3,3.2c0,1.8-1.4,3.3-3.2,3.3
					C870.5,351.3,870.4,351.3,870.3,351.3z"/>
			</g>
		</g>
		<g>
			<g>
				<path class="st16" d="M1086.4,358.2L1086.4,358.2c-1.8,0-3.3-1.5-3.3-3.3c0-0.8-0.2-18.8-14.9-19.3c-15.3-0.5-18.9,14.6-19,15.2
					c-0.4,1.8-2.2,2.9-3.9,2.5c-1.8-0.4-2.9-2.2-2.5-3.9c1.7-7.3,9.1-20.9,25.6-20.3c16.9,0.6,21.3,17.1,21.2,25.8
					C1089.7,356.8,1088.2,358.2,1086.4,358.2z"/>
			</g>
		</g>
		<g>
			<g>
				<path class="st16" d="M1092,358.1c-4,0-6.3-0.7-6.5-0.7c-1.7-0.5-2.7-2.3-2.2-4s2.3-2.7,4-2.2c0.2,0,6.8,1.7,16.6-1.7
					c1.7-0.6,3.6,0.3,4.2,2s-0.3,3.6-2,4.2C1100.4,357.5,1095.5,358.1,1092,358.1z"/>
			</g>
		</g>
		<g>
			<g>
				<path class="st16" d="M1086,351.3c-0.1,0-0.2,0-0.2,0c-1.8,0-3.2-1.5-3.2-3.3s1.5-3.2,3.3-3.2c0.1,0,0.1,0,0.2,0
					c6,0,14.2-5.7,16.9-7.9c1.4-1.1,3.5-1,4.6,0.4s0.9,3.5-0.4,4.6C1106.6,342.3,1095.6,351.3,1086,351.3z"/>
			</g>
		</g>
		<g>
			<g>
				<path class="st3" d="M809.8,304.7c0,0,59.7-31.5,72.5-76.3c0,0,27.5,37,104,69.4s109.3,19,130.9,48.7
					c11.7,16.1,7.1,61.6-14.6,79c0,0,57.8,15.8,49-142.2l6.2-88l-358.9-11.5L809.8,304.7z"/>
			</g>
		</g>
		<g>
			<g>
				<path class="st14" d="M866.5,200.7c0,0,1.8,26.2,12.7,36.4c1.2-2.8,2.3-5.8,3.1-8.7C882.3,228.4,872.9,217.1,866.5,200.7z"/>
			</g>
		</g>
	</g>
</g>
</svg>
