<?xml version="1.0" encoding="utf-8"?>
<!-- Generator: Adobe Illustrator 19.2.0, SVG Export Plug-In . SVG Version: 6.00 Build 0)  -->
<svg version="1.1" id="圖層_3" xmlns="http://www.w3.org/2000/svg" xmlns:xlink="http://www.w3.org/1999/xlink" x="0px" y="0px"
	 viewBox="0 0 1414 1132" style="enable-background:new 0 0 1414 1132;" xml:space="preserve">
<style type="text/css">
	.st0{fill:#DCDCDC;}
	.st1{enable-background:new    ;}
	.st2{fill:#D19865;}
	.st3{fill:#6D4C3A;}
	.st4{fill:#F4EFED;}
	.st5{fill:#E2DCD9;}
	.st6{fill:#BA8156;}
	.st7{fill:#4D9980;}
	.st8{fill:#61AA90;}
	.st9{fill:#42896F;}
	.st10{fill:#EFC4A0;}
	.st11{fill:#3F3E3D;}
	.st12{fill:#C6C2C1;}
	.st13{fill:#F4BB3B;}
	.st14{fill:#F9DAB4;}
	.st15{fill:#4C453F;}
	.st16{fill:#F4D3B0;}
	.st17{fill:#492020;}
	.st18{fill:#C65044;}
	.st19{fill:#3A332D;}
	.st20{fill:#E8DFD9;}
</style>
<circle class="st0" cx="919.7" cy="587.5" r="455.5"/>
<g class="st1">
	<path class="st2" d="M467,772l115,45c-18,80.4-48,139.2-89.8,176.3c-41.9,37.1-93.4,55.7-154.6,55.7c-76.9,0-139.3-29.6-187-88.8
		C95.5,891.8,68,799.5,68,683.4c0-122.7,27.7-218.7,83-288.1c48.2-60.2,112.8-90.3,194.1-90.3c66.2,0,121.5,22.6,166.1,67.9
		C543,405,566.3,452.7,581,516l-118,34c-7.5-39-22.5-68.9-44.9-89.8c-22.4-20.8-48.8-31.2-79.3-31.2c-43.5,0-79,19-106.5,57
		C204.8,523.9,191,586.6,191,674c0,90.7,13.4,155.2,40.3,193.5S293,925,335.9,925c31.4,0,58.6-12.2,81.5-36.6S456.9,825.1,467,772z"
		/>
</g>
<g>
	<g>
		<g>
			<g>
				<polygon class="st2" points="1077.7,1026.5 999.9,1026.5 980.7,812.7 960,1026.5 881.5,1026.5 901.1,679.9 1058.2,679.9 				"/>
			</g>
		</g>
		<g>
			<g>
				<path class="st3" d="M942.1,997.9c19.1,19.9,29.5,41.2-2.8,45.1c-29.5,3.6-111.3,18.6-91-21.2c19.6-38.3,42.2-41.2,54.9-41.2
					C916,980.6,932,987.3,942.1,997.9z"/>
			</g>
		</g>
		<g>
			<g>
				<path class="st3" d="M1017.7,997.9c-19.1,19.9-29.5,41.2,2.8,45.1c29.5,3.6,111.3,18.6,91-21.2c-19.6-38.3-42.2-41.2-54.9-41.2
					C1043.9,980.6,1027.8,987.3,1017.7,997.9z"/>
			</g>
		</g>
		<g>
			<g>
				<rect x="913.8" y="431.1" class="st4" width="131.9" height="247.1"/>
			</g>
		</g>
		<g>
			<g>
				<path class="st2" d="M985.6,467h-12.3c-2.8,0-5.1-2.3-5.1-5.1v-16.1c0-2.8,2.3-5.1,5.1-5.1h12.3c2.8,0,5.1,2.3,5.1,5.1v16.1
					C990.6,464.7,988.4,467,985.6,467z"/>
			</g>
		</g>
		<g>
			<g>
				<polygon class="st2" points="972.6,464.5 948,625.8 980.2,649.2 1011.4,624.9 985.7,464.5 				"/>
			</g>
		</g>
		<g>
			<g>
				<polygon class="st5" points="918.5,434.5 925,488.8 979.5,453.9 1034.6,488.8 1037.8,434.3 				"/>
			</g>
		</g>
		<g>
			<g>
				<rect x="918.5" y="671.9" class="st6" width="119.3" height="14.6"/>
			</g>
		</g>
		<g>
			<g>
				<path class="st7" d="M1022.2,424.8c0,0,45.2-14.6,86.4,91.3c41.1,106,39.6,84.9,39.6,105.3c0,20.3-43.5,94.4-53.7,102.4
					l6.6,49.4c0,0-85.5-52.3-85.3-144.5L1022.2,424.8z"/>
			</g>
		</g>
		<g>
			<g>
				<path class="st8" d="M1057.8,436.1c-20.6-16.1-35.6-11.3-35.6-11.3l-3.7,118.9C1063.3,530.4,1057.8,436.1,1057.8,436.1z"/>
			</g>
		</g>
		<g>
			<g>
				<path class="st9" d="M1075.8,554c1.4,53.6,18.7,169.8,18.7,169.8c2.2-1.8,6.1-6.8,10.8-13.7L1075.8,554z"/>
			</g>
		</g>
		<g>
			<g>
				<path class="st10" d="M792.5,591.6c0,0-8.6-9.5-32.7-4.2c-24,5.3-20.7,26.3-20.7,26.3l23.9,46.7l24.6-2.5l26.3-27.1L792.5,591.6
					z"/>
			</g>
		</g>
		<g>
			<g>
				<path class="st7" d="M907.9,431.1c0,0-152.8,59.5-179.8,112.6c-9.1,17.9,10,71.4,10,71.4s14.4-39.2,55.7-22.2l-12.2-26.1
					l108.8-28.3L907.9,431.1z"/>
			</g>
		</g>
		<g>
			<g>
				<path class="st7" d="M936.2,424.8c0,0-16.7-5.4-38.9,14c-14.4,12.6-6.7,61.8-14.7,115.1l-18.7,169.8l-6.6,49.4
					c0,0,85.5-52.3,85.3-144.5L936.2,424.8z"/>
			</g>
		</g>
		<g>
			<g>
				<path class="st8" d="M900.6,436.1c20.6-16.1,35.6-11.3,35.6-11.3l3.7,118.9C895.1,530.4,900.6,436.1,900.6,436.1z"/>
			</g>
		</g>
		<g>
			<g>
				<g>
					<path class="st11" d="M809.7,546.7c0,0,18.8-3,25.2,9.7l-59.6,124.5l-19.1-8.9L809.7,546.7z"/>
				</g>
			</g>
			<g>
				<g>
					<polygon class="st12" points="775.3,680.8 751.7,704.5 756.3,671.9 					"/>
				</g>
			</g>
			<g>
				<g>
					<path class="st13" d="M821.4,584.7l3.4-7.2c-6-4.3-13-7.2-20.9-8.7c-1.2-0.2-2.3-0.4-3.4-0.5l-3.2,7.5
						C804.4,576.5,813.4,578.6,821.4,584.7z"/>
				</g>
			</g>
		</g>
		<g>
			<g>
				<path class="st14" d="M780.2,615.8c0,0-19.1-2.8-20.2,17.4c-1.1,20.1,9.4,26.9,9.4,26.9s8.2,6.3-1,13.8
					c-7.1,5.8-14.9,1.1-14.9,1.1s1.8,7.2-3.8,10.4c-2.2,1.3-6,1.9-10.8,0.9c-7.5-1.5-15-17.4-14.5-36.9c0.6-25,17.7-60.9,64.7-54.3
					L780.2,615.8z"/>
			</g>
		</g>
		<g>
			<g>
				<path class="st14" d="M809.3,609.9c0,0,16.5,18.9,11.4,29s-13.7,7.3-22,17.8s-5.5,15.4-11.1,15.3c-5.6-0.2-14.8-21-0.1-36.7
					c4.7-5,13.7,0.4,13.5-8.1L809.3,609.9z"/>
			</g>
		</g>
		<g>
			<g>
				<path class="st10" d="M741.2,638.3c0,0-14,22.3,12.4,41.6c0.6-2.6,0-5,0-5S735.5,661.1,741.2,638.3z"/>
			</g>
		</g>
	</g>
	<g>
		<g>
			<g>
				<path class="st15" d="M785.3,266.6c0,0-36.7-197,186.5-197s186.8,197,186.8,197L972,312.9L785.3,266.6z"/>
			</g>
		</g>
		<g>
			<g>
				<path class="st16" d="M827.2,280.8c0,0-20.9-39-49.1-19.1c-36.6,25.9,16.5,111.9,57.9,97L827.2,280.8z"/>
			</g>
		</g>
		<g>
			<g>
				<path class="st16" d="M1117.4,280.8c0,0,20.9-39,49.1-19.1c36.6,25.9-16.5,111.9-57.9,97L1117.4,280.8z"/>
			</g>
		</g>
		<g>
			<g>
				<path class="st14" d="M1060.3,423.8l-33.3,9.8c-36.1,10.7-74.4,10.7-110.5,0l-33.3-9.8c-39.2-11.6-66.1-47.6-66.1-88.5V200.9
					l119.7,31.9c22.9,6.1,47,6.1,69.9,0l119.7-31.9v134.4C1126.4,376.2,1099.5,412.3,1060.3,423.8z"/>
			</g>
		</g>
		<g>
			<g>
				<path class="st17" d="M946.8,403.3c0,0,46.4,2.9,78-11.8c22-10.2,20.3,19.9,5.2,29.4c-15.2,9.7-50.2,13-62.3,10.6
					C967.1,421.8,963,410.8,946.8,403.3z"/>
			</g>
		</g>
		<g>
			<g>
				<path class="st18" d="M1032.5,419.2c-5.4-5.9-14.6-9.8-25.1-9.8c-16.7,0-30.2,9.8-30.2,21.9c0,0.3,0,0.6,0,1
					c15.7,0.1,40.7-3.5,52.9-11.3C1030.9,420.4,1031.7,419.8,1032.5,419.2z"/>
			</g>
		</g>
		<g>
			<g>
				<path class="st10" d="M956.6,368.5c0,0,6.8-19.2,25.7-19.2s27.3,21.7,27.3,21.7s-13.2-13.1-27.3-13.1
					C968,357.9,956.6,368.5,956.6,368.5z"/>
			</g>
		</g>
		<g>
			<g>
				<g>
					<circle class="st19" cx="891.6" cy="310.2" r="18.1"/>
				</g>
			</g>
			<g>
				<g>
					
						<ellipse transform="matrix(0.1977 -0.9803 0.9803 0.1977 423.4303 1117.1547)" class="st20" cx="894.2" cy="299.9" rx="4.8" ry="8.3"/>
				</g>
			</g>
		</g>
		<g>
			<g>
				<g>
					<circle class="st19" cx="1055.6" cy="310.2" r="18.1"/>
				</g>
			</g>
			<g>
				<g>
					
						<ellipse transform="matrix(0.1977 -0.9803 0.9803 0.1977 555.097 1277.9827)" class="st20" cx="1058.3" cy="299.9" rx="4.8" ry="8.3"/>
				</g>
			</g>
		</g>
		<g>
			<g>
				<path class="st15" d="M862.2,253.9c0,0,37,12.5,55.7,35.8c0,0,6.7-4.9,6.5-15.8c0,0-15.4-23.3-59.3-35
					C865.1,238.9,860.6,244.4,862.2,253.9z"/>
			</g>
		</g>
		<g>
			<g>
				<path class="st15" d="M1084.1,253.9c0,0-37,12.5-55.7,35.8c0,0-6.7-4.9-6.5-15.8c0,0,15.4-23.3,59.3-35
					C1081.1,238.9,1085.7,244.4,1084.1,253.9z"/>
			</g>
		</g>
	</g>
</g>
</svg>
